{"glyphs":{"0":{"ha":940,"x_min":125,"x_max":815,"o":"m 815 754 l 815 110 q 706 0 815 0 l 235 0 q 125 110 125 0 l 125 754 q 235 864 125 864 l 706 864 q 815 754 815 864 m 694 125 l 694 739 q 686 774 694 767 q 651 782 678 782 l 290 782 q 256 774 264 782 q 247 739 247 767 l 247 125 q 256 90 247 97 q 290 82 264 82 l 651 82 q 686 90 678 82 q 694 125 694 97 z "},"1":{"ha":464,"x_min":42,"x_max":339,"o":"m 339 864 l 339 0 l 217 0 l 217 782 l 42 782 l 42 864 l 339 864 z "},"2":{"ha":858,"x_min":83,"x_max":775,"o":"m 204 739 l 204 569 l 83 569 l 83 754 q 193 864 83 864 l 660 864 q 769 754 769 864 l 769 692 q 753 571 769 614 q 685 479 738 528 l 251 82 l 775 82 l 775 0 l 85 0 l 85 81 l 558 514 q 626 598 606 558 q 647 697 647 638 l 647 739 q 639 774 647 767 q 604 782 631 782 l 247 782 q 212 774 219 782 q 204 739 204 767 z "},"3":{"ha":911,"x_min":111,"x_max":800,"o":"m 232 739 l 232 596 l 111 596 l 111 754 q 221 864 111 864 l 690 864 q 800 754 800 864 l 800 510 q 743 439 800 443 q 800 369 800 431 l 800 110 q 690 0 800 0 l 221 0 q 111 110 111 0 l 111 267 l 232 267 l 232 125 q 240 90 232 97 q 275 82 247 82 l 636 82 q 672 90 664 82 q 679 125 679 97 l 679 353 q 672 388 679 381 q 636 396 664 396 l 378 396 l 378 479 l 636 479 q 672 487 664 479 q 679 522 679 494 l 679 739 q 672 774 679 767 q 636 782 664 782 l 275 782 q 240 774 247 782 q 232 739 232 767 z "},"4":{"ha":904,"x_min":56,"x_max":876,"o":"m 876 222 l 876 140 l 714 140 l 714 0 l 599 0 l 599 140 l 56 140 l 56 221 l 465 864 l 594 864 l 190 222 l 599 222 l 599 456 l 714 456 l 714 222 l 876 222 z "},"5":{"ha":881,"x_min":125,"x_max":797,"o":"m 250 526 l 688 526 q 797 417 797 526 l 797 110 q 688 0 797 0 l 235 0 q 125 110 125 0 l 125 271 l 247 271 l 247 125 q 256 90 247 97 q 290 82 264 82 l 633 82 q 669 90 661 82 q 676 125 676 97 l 676 401 q 669 436 676 428 q 633 444 661 444 l 126 444 l 126 864 l 785 864 l 785 782 l 250 782 l 250 526 z "},"6":{"ha":906,"x_min":125,"x_max":794,"o":"m 674 125 l 674 367 q 666 402 674 394 q 631 410 658 410 l 247 410 l 247 125 q 256 90 247 97 q 290 82 264 82 l 631 82 q 666 90 658 82 q 674 125 674 97 m 247 492 l 685 492 q 794 382 794 492 l 794 110 q 685 0 794 0 l 235 0 q 125 110 125 0 l 125 754 q 235 864 125 864 l 681 864 q 790 754 790 864 l 790 593 l 671 593 l 671 739 q 663 774 671 767 q 628 782 656 782 l 290 782 q 256 774 264 782 q 247 739 247 767 l 247 492 z "},"7":{"ha":714,"x_min":56,"x_max":686,"o":"m 686 864 l 686 793 l 307 0 l 178 0 l 550 782 l 56 782 l 56 864 l 686 864 z "},"8":{"ha":921,"x_min":125,"x_max":796,"o":"m 235 864 l 686 864 q 796 754 796 864 l 796 504 q 740 433 796 438 q 796 364 796 425 l 796 110 q 686 0 796 0 l 235 0 q 125 110 125 0 l 125 364 q 182 433 125 425 q 125 504 125 438 l 125 754 q 235 864 125 864 m 246 350 l 246 125 q 253 90 246 97 q 289 82 261 82 l 633 82 q 669 90 661 82 q 676 125 676 97 l 676 350 q 669 385 676 378 q 633 393 661 393 l 289 393 q 253 385 261 393 q 246 350 246 378 m 676 519 l 676 739 q 669 774 676 767 q 633 782 661 782 l 289 782 q 253 774 261 782 q 246 739 246 767 l 246 519 q 253 484 246 492 q 289 476 261 476 l 633 476 q 669 484 661 476 q 676 519 676 492 z "},"9":{"ha":913,"x_min":118,"x_max":788,"o":"m 283 442 l 665 442 l 665 739 q 658 774 665 767 q 622 782 650 782 l 283 782 q 248 774 256 782 q 240 739 240 767 l 240 485 q 248 450 240 458 q 283 442 256 442 m 228 864 l 678 864 q 788 754 788 864 l 788 110 q 678 0 788 0 l 235 0 q 125 110 125 0 l 125 257 l 246 257 l 246 125 q 253 90 246 97 q 289 82 261 82 l 622 82 q 658 90 650 82 q 665 125 665 97 l 665 360 l 228 360 q 118 469 118 360 l 118 754 q 228 864 118 864 z "},"\u0000":{"ha":0,"x_min":0,"x_max":0,"o":""},"\r":{"ha":0,"x_min":0,"x_max":0,"o":""}," ":{"ha":381,"x_min":0,"x_max":0,"o":""},"!":{"ha":388,"x_min":122,"x_max":267,"o":"m 122 864 l 267 864 l 244 275 l 144 275 l 122 864 m 125 0 l 125 161 l 263 161 l 263 0 l 125 0 z "},"\"":{"ha":467,"x_min":83,"x_max":383,"o":"m 83 864 l 193 864 l 193 561 l 83 561 l 83 864 m 274 864 l 383 864 l 383 561 l 274 561 l 274 864 z "},"#":{"ha":1317,"x_min":83,"x_max":1233,"o":"m 819 314 l 899 550 l 522 550 l 443 314 l 819 314 m 1233 550 l 1006 550 l 926 314 l 1172 314 l 1172 226 l 899 226 l 824 0 l 717 0 l 792 226 l 415 226 l 340 0 l 233 0 l 308 226 l 83 226 l 83 314 l 336 314 l 415 550 l 144 550 l 144 638 l 443 638 l 518 864 l 625 864 l 550 638 l 926 638 l 1001 864 l 1108 864 l 1033 638 l 1233 638 l 1233 550 z "},"$":{"ha":897,"x_min":108,"x_max":786,"o":"m 274 476 l 676 476 q 786 367 786 476 l 786 110 q 676 0 786 0 l 501 0 l 501 -126 l 386 -126 l 386 0 l 221 0 q 111 110 111 0 l 111 247 l 233 247 l 233 125 q 242 90 233 97 q 276 82 250 82 l 622 82 q 658 90 650 82 q 665 125 665 97 l 665 351 q 658 386 665 378 q 622 394 650 394 l 218 394 q 108 504 108 394 l 108 754 q 218 864 108 864 l 386 864 l 386 992 l 501 992 l 501 864 l 672 864 q 782 754 782 864 l 782 617 l 660 617 l 660 739 q 652 774 660 767 q 617 782 644 782 l 274 782 q 239 774 247 782 q 231 739 231 767 l 231 519 q 239 484 231 492 q 274 476 247 476 z "},"%":{"ha":1493,"x_min":83,"x_max":1410,"o":"m 1410 364 l 1410 96 q 1319 0 1410 0 l 1011 0 q 921 96 921 0 l 921 364 q 1011 460 921 460 l 1319 460 q 1410 364 1410 460 m 1313 113 l 1313 347 q 1306 380 1313 372 q 1275 388 1300 388 l 1057 388 q 1026 380 1032 388 q 1019 347 1019 372 l 1019 113 q 1026 80 1019 88 q 1057 72 1032 72 l 1275 72 q 1306 80 1300 72 q 1313 113 1313 88 m 1011 864 l 1125 864 l 476 0 l 364 0 l 1011 864 m 572 767 l 572 499 q 482 403 572 403 l 174 403 q 83 499 83 403 l 83 767 q 174 863 83 863 l 482 863 q 572 767 572 863 m 475 515 l 475 750 q 469 783 475 775 q 438 790 463 790 l 219 790 q 188 783 194 790 q 182 750 182 775 l 182 515 q 188 483 182 490 q 219 475 194 475 l 438 475 q 469 483 463 475 q 475 515 475 490 z "},"&":{"ha":1161,"x_min":111,"x_max":1110,"o":"m 272 82 l 789 82 l 461 353 l 290 290 q 242 258 256 278 q 229 203 229 239 l 229 125 q 237 90 229 97 q 272 82 244 82 m 739 626 l 739 739 q 731 774 739 767 q 696 782 722 782 l 389 782 q 353 774 361 782 q 346 739 346 767 l 346 629 q 355 583 346 599 q 369 560 364 568 q 388 540 374 553 q 410 520 403 526 q 440 497 418 514 q 471 471 461 479 l 488 457 l 657 519 q 721 560 703 536 q 739 626 739 583 m 221 0 q 111 110 111 0 l 111 225 q 132 306 111 278 q 204 353 153 333 l 382 418 l 360 436 q 333 458 353 442 q 308 478 314 474 q 286 497 301 483 q 265 518 271 511 q 250 538 260 525 q 238 561 240 550 q 228 613 228 597 l 228 754 q 338 864 228 864 l 747 864 q 857 754 857 864 l 857 631 q 832 518 857 557 q 749 458 807 479 l 567 392 l 936 82 l 938 82 q 972 90 964 82 q 981 125 981 97 l 981 314 l 1078 314 l 1078 113 q 1022 10 1078 35 l 1110 -62 l 964 -62 l 888 0 l 221 0 z "},"'":{"ha":283,"x_min":83,"x_max":200,"o":"m 83 864 l 200 864 l 200 561 l 83 561 l 83 864 z "},"(":{"ha":467,"x_min":139,"x_max":536,"o":"m 139 217 l 139 475 q 489 996 139 996 l 536 996 l 536 914 l 494 914 q 258 483 258 899 l 258 208 q 494 -222 258 -207 l 536 -222 l 536 -304 l 489 -304 q 139 217 139 -304 z "},")":{"ha":467,"x_min":-69,"x_max":328,"o":"m 328 475 l 328 217 q -22 -304 328 -304 l -69 -304 l -69 -222 l -28 -222 q 208 208 208 -207 l 208 483 q -28 914 208 899 l -69 914 l -69 996 l -22 996 q 328 475 328 996 z "},"*":{"ha":631,"x_min":79,"x_max":551,"o":"m 265 901 l 367 901 l 367 811 q 357 724 367 765 q 435 760 388 743 l 521 789 l 551 692 l 465 664 q 382 647 425 650 q 439 583 417 615 l 492 511 l 410 451 l 357 525 q 314 600 333 560 q 272 525 300 564 l 219 453 l 138 513 l 190 585 q 249 649 215 621 q 165 665 215 650 l 79 693 l 111 790 l 196 763 q 275 726 242 747 q 265 811 265 765 l 265 901 z "},"+":{"ha":889,"x_min":83,"x_max":806,"o":"m 806 479 l 806 385 l 504 385 l 504 164 l 385 164 l 385 385 l 83 385 l 83 479 l 385 479 l 385 700 l 504 700 l 504 479 l 806 479 z "},",":{"ha":290,"x_min":83,"x_max":221,"o":"m 83 -190 l 83 164 l 221 164 l 221 78 l 129 -190 l 83 -190 z "},"-":{"ha":556,"x_min":83,"x_max":472,"o":"m 83 336 l 83 418 l 472 418 l 472 336 l 83 336 z "},".":{"ha":304,"x_min":83,"x_max":221,"o":"m 83 0 l 83 161 l 221 161 l 221 0 l 83 0 z "},"/":{"ha":536,"x_min":-29,"x_max":663,"o":"m 542 971 l 663 971 l 92 -189 l -29 -189 l 542 971 z "},":":{"ha":304,"x_min":83,"x_max":221,"o":"m 83 47 l 83 207 l 221 207 l 221 47 l 83 47 m 83 467 l 83 626 l 221 626 l 221 467 l 83 467 z "},";":{"ha":290,"x_min":83,"x_max":221,"o":"m 83 513 l 83 674 l 221 674 l 221 513 l 83 513 m 83 -190 l 83 164 l 221 164 l 221 78 l 129 -190 l 83 -190 z "},"<":{"ha":918,"x_min":56,"x_max":835,"o":"m 835 565 l 161 432 l 835 299 l 835 194 l 56 374 l 56 492 l 835 669 l 835 565 z "},"=":{"ha":944,"x_min":111,"x_max":833,"o":"m 111 506 l 111 603 l 833 603 l 833 506 l 111 506 m 111 260 l 111 357 l 833 357 l 833 260 l 111 260 z "},">":{"ha":918,"x_min":83,"x_max":863,"o":"m 757 432 l 83 565 l 83 669 l 863 492 l 863 374 l 83 194 l 83 299 l 757 432 z "},"?":{"ha":799,"x_min":42,"x_max":715,"o":"m 301 0 l 301 161 l 439 161 l 439 0 l 301 0 m 151 864 l 606 864 q 715 757 715 864 l 715 476 q 606 368 715 368 l 426 368 l 421 275 l 321 275 l 311 451 l 556 451 q 588 460 581 451 q 594 496 594 469 l 594 738 q 588 774 594 764 q 556 783 581 783 l 203 783 q 169 774 176 783 q 163 738 163 764 l 163 604 l 42 604 l 42 757 q 151 864 42 864 z "},"@":{"ha":1531,"x_min":125,"x_max":1419,"o":"m 567 592 l 831 592 q 906 546 890 592 l 906 592 l 1018 592 l 1018 164 l 1267 164 q 1301 172 1293 164 q 1308 206 1308 179 l 1308 654 q 1301 689 1308 681 q 1267 697 1293 697 l 281 697 q 246 689 254 697 q 238 654 238 681 l 238 26 q 246 -8 238 0 q 281 -15 254 -15 l 1228 -15 l 1228 -100 l 232 -100 q 125 7 125 -100 l 125 675 q 232 782 125 782 l 1313 782 q 1419 675 1419 782 l 1419 189 q 1313 82 1419 82 l 915 82 l 915 172 q 831 108 908 108 l 567 108 q 460 215 460 108 l 460 485 q 567 592 460 592 m 572 468 l 572 232 q 580 198 572 206 q 614 190 588 190 l 860 190 q 895 201 885 190 q 906 238 906 211 l 906 463 q 894 499 906 489 q 860 510 883 510 l 614 510 q 580 502 588 510 q 572 468 572 494 z "},"A":{"ha":947,"x_min":49,"x_max":899,"o":"m 268 253 l 679 253 l 472 781 l 268 253 m 778 0 l 711 171 l 236 171 l 171 0 l 49 0 l 385 864 l 561 864 l 899 0 l 778 0 z "},"B":{"ha":963,"x_min":139,"x_max":838,"o":"m 139 864 l 728 864 q 838 754 838 864 l 838 503 q 781 431 838 435 q 838 363 838 422 l 838 110 q 728 0 838 0 l 139 0 l 139 864 m 718 124 l 718 349 q 710 383 718 375 q 675 392 703 392 l 261 392 l 261 82 l 674 82 q 710 90 701 82 q 718 124 718 97 m 718 517 l 718 739 q 710 774 718 767 q 675 782 703 782 l 261 782 l 261 474 l 675 474 q 710 481 703 474 q 718 517 718 489 z "},"C":{"ha":894,"x_min":125,"x_max":811,"o":"m 811 574 l 689 574 l 689 739 q 681 774 689 767 q 646 782 672 782 l 290 782 q 256 774 264 782 q 247 739 247 767 l 247 125 q 256 90 247 97 q 290 82 264 82 l 646 82 q 681 90 672 82 q 689 125 689 97 l 689 290 l 811 290 l 811 110 q 701 0 811 0 l 235 0 q 125 110 125 0 l 125 754 q 235 864 125 864 l 701 864 q 811 754 811 864 l 811 574 z "},"D":{"ha":965,"x_min":139,"x_max":840,"o":"m 718 125 l 718 739 q 710 774 718 767 q 675 782 703 782 l 261 782 l 261 82 l 675 82 q 710 90 703 82 q 718 125 718 97 m 139 864 l 731 864 q 840 754 840 864 l 840 110 q 731 0 840 0 l 139 0 l 139 864 z "},"E":{"ha":815,"x_min":139,"x_max":746,"o":"m 263 82 l 746 82 l 746 0 l 139 0 l 139 864 l 726 864 l 726 782 l 263 782 l 263 483 l 669 483 l 669 401 l 263 401 l 263 82 z "},"F":{"ha":769,"x_min":139,"x_max":728,"o":"m 728 782 l 263 782 l 263 450 l 674 450 l 674 368 l 263 368 l 263 0 l 139 0 l 139 864 l 728 864 l 728 782 z "},"G":{"ha":924,"x_min":125,"x_max":813,"o":"m 813 603 l 690 603 l 690 739 q 683 774 690 767 q 647 782 675 782 l 290 782 q 256 774 264 782 q 247 739 247 767 l 247 125 q 256 90 247 97 q 290 82 264 82 l 649 82 q 683 90 675 82 q 692 125 692 97 l 692 363 l 457 363 l 457 444 l 813 444 l 813 110 q 703 0 813 0 l 235 0 q 125 110 125 0 l 125 754 q 235 864 125 864 l 703 864 q 813 754 813 864 l 813 603 z "},"H":{"ha":1033,"x_min":139,"x_max":894,"o":"m 772 864 l 894 864 l 894 0 l 772 0 l 772 392 l 261 392 l 261 0 l 139 0 l 139 864 l 261 864 l 261 474 l 772 474 l 772 864 z "},"I":{"ha":428,"x_min":153,"x_max":275,"o":"m 153 864 l 275 864 l 275 0 l 153 0 l 153 864 z "},"J":{"ha":821,"x_min":56,"x_max":696,"o":"m 56 303 l 178 303 l 178 125 q 186 90 178 97 q 221 82 194 82 l 531 82 q 566 90 558 82 q 574 125 574 97 l 574 864 l 696 864 l 696 110 q 586 0 696 0 l 165 0 q 56 110 56 0 l 56 303 z "},"K":{"ha":926,"x_min":139,"x_max":896,"o":"m 726 864 l 876 864 l 444 442 l 896 0 l 742 0 l 296 442 l 726 864 m 139 864 l 258 864 l 258 0 l 139 0 l 139 864 z "},"L":{"ha":749,"x_min":139,"x_max":707,"o":"m 260 82 l 707 82 l 707 0 l 139 0 l 139 864 l 260 864 l 260 82 z "},"M":{"ha":1197,"x_min":139,"x_max":1058,"o":"m 244 0 l 139 0 l 139 864 l 271 864 l 592 293 l 926 864 l 1058 864 l 1058 0 l 953 0 l 953 708 l 649 188 l 538 188 l 244 708 l 244 0 z "},"N":{"ha":999,"x_min":139,"x_max":860,"o":"m 749 864 l 860 864 l 860 0 l 738 0 l 250 721 l 250 0 l 139 0 l 139 864 l 268 864 l 749 150 l 749 864 z "},"O":{"ha":924,"x_min":125,"x_max":799,"o":"m 799 754 l 799 110 q 689 0 799 0 l 235 0 q 125 110 125 0 l 125 754 q 235 864 125 864 l 689 864 q 799 754 799 864 m 679 125 l 679 739 q 672 774 679 767 q 636 782 664 782 l 289 782 q 253 774 261 782 q 246 739 246 767 l 246 125 q 253 90 246 97 q 289 82 261 82 l 636 82 q 672 90 664 82 q 679 125 679 97 z "},"P":{"ha":925,"x_min":139,"x_max":842,"o":"m 722 407 l 722 739 q 714 774 722 767 q 679 782 706 782 l 260 782 l 260 364 l 679 364 q 714 372 706 364 q 722 407 722 381 m 139 864 l 732 864 q 842 754 842 864 l 842 392 q 732 282 842 282 l 260 282 l 260 0 l 139 0 l 139 864 z "},"Q":{"ha":868,"x_min":97,"x_max":771,"o":"m 651 125 l 651 739 q 644 774 651 767 q 608 782 636 782 l 261 782 q 226 774 233 782 q 218 739 218 767 l 218 125 q 226 90 218 97 q 261 82 233 82 l 608 82 q 644 90 636 82 q 651 125 651 97 m 771 754 l 771 110 q 661 0 771 0 l 610 0 l 769 -135 l 618 -135 l 461 0 l 207 0 q 97 110 97 0 l 97 754 q 207 864 97 864 l 661 864 q 771 754 771 864 z "},"R":{"ha":954,"x_min":139,"x_max":846,"o":"m 260 782 l 260 392 l 681 392 q 716 400 708 392 q 724 435 724 408 l 724 739 q 716 774 724 767 q 681 782 708 782 l 260 782 m 260 310 l 260 0 l 139 0 l 139 864 l 733 864 q 843 754 843 864 l 843 419 q 733 310 843 310 l 651 310 l 846 0 l 721 0 l 528 310 l 260 310 z "},"S":{"ha":900,"x_min":111,"x_max":789,"o":"m 668 125 l 668 351 q 660 386 668 378 q 625 394 653 394 l 221 394 q 111 504 111 394 l 111 754 q 221 864 111 864 l 675 864 q 785 754 785 864 l 785 617 l 663 617 l 663 739 q 655 774 663 767 q 619 782 647 782 l 276 782 q 242 774 250 782 q 233 739 233 767 l 233 519 q 242 484 233 492 q 276 476 250 476 l 679 476 q 789 367 789 476 l 789 110 q 679 0 789 0 l 224 0 q 114 110 114 0 l 114 247 l 236 247 l 236 125 q 244 90 236 97 q 279 82 253 82 l 625 82 q 660 90 653 82 q 668 125 668 97 z "},"T":{"ha":785,"x_min":14,"x_max":771,"o":"m 771 864 l 771 782 l 453 782 l 453 0 l 332 0 l 332 782 l 14 782 l 14 864 l 771 864 z "},"U":{"ha":949,"x_min":125,"x_max":824,"o":"m 246 864 l 246 125 q 253 90 246 97 q 289 82 261 82 l 661 82 q 697 90 689 82 q 704 125 704 97 l 704 864 l 824 864 l 824 110 q 714 0 824 0 l 235 0 q 125 110 125 0 l 125 864 l 246 864 z "},"V":{"ha":956,"x_min":53,"x_max":903,"o":"m 782 864 l 903 864 l 565 0 l 389 0 l 53 864 l 175 864 l 476 83 l 782 864 z "},"W":{"ha":1457,"x_min":54,"x_max":1403,"o":"m 1283 864 l 1403 864 l 1108 0 l 939 0 l 728 724 l 517 0 l 347 0 l 54 864 l 176 864 l 433 85 l 660 864 l 796 864 l 1021 85 l 1283 864 z "},"X":{"ha":926,"x_min":49,"x_max":878,"o":"m 536 443 l 878 0 l 742 0 l 464 361 l 183 0 l 49 0 l 393 440 l 63 864 l 199 864 l 464 522 l 726 864 l 861 864 l 536 443 z "},"Y":{"ha":875,"x_min":13,"x_max":863,"o":"m 506 0 l 385 0 l 385 279 l 13 864 l 138 864 l 444 381 l 739 864 l 863 864 l 506 279 l 506 0 z "},"Z":{"ha":872,"x_min":83,"x_max":789,"o":"m 789 864 l 789 782 l 222 82 l 775 82 l 775 0 l 83 0 l 83 82 l 650 782 l 97 782 l 97 864 l 789 864 z "},"[":{"ha":440,"x_min":139,"x_max":496,"o":"m 496 918 l 261 918 l 261 -224 l 496 -224 l 496 -306 l 139 -306 l 139 1000 l 496 1000 l 496 918 z "},"\\":{"ha":522,"x_min":-126,"x_max":565,"o":"m -126 971 l -6 971 l 565 -189 l 444 -189 l -126 971 z "},"]":{"ha":440,"x_min":-56,"x_max":301,"o":"m 301 1000 l 301 -306 l -56 -306 l -56 -224 l 179 -224 l 179 918 l -56 918 l -56 1000 l 301 1000 z "},"^":{"ha":899,"x_min":81,"x_max":818,"o":"m 378 928 l 521 928 l 818 456 l 692 456 l 450 849 l 207 456 l 81 456 l 378 928 z "},"_":{"ha":796,"x_min":0,"x_max":796,"o":"m 0 -82 l 0 0 l 796 0 l 796 -82 l 0 -82 z "},"`":{"ha":599,"x_min":236,"x_max":583,"o":"m 389 901 l 583 703 l 461 703 l 236 901 l 389 901 z "},"a":{"ha":871,"x_min":111,"x_max":746,"o":"m 274 82 l 579 82 q 615 93 604 82 q 626 131 626 104 l 626 543 q 615 581 626 569 q 579 592 604 592 l 274 592 q 239 583 247 592 q 231 549 231 575 l 231 125 q 239 90 231 97 q 274 82 247 82 m 626 674 l 746 674 l 746 0 l 626 0 l 626 44 q 550 0 608 0 l 221 0 q 111 110 111 0 l 111 564 q 221 674 111 674 l 550 674 q 626 629 608 674 l 626 674 z "},"b":{"ha":871,"x_min":125,"x_max":760,"o":"m 640 125 l 640 549 q 633 583 640 575 q 597 592 625 592 l 293 592 q 257 581 268 592 q 246 543 246 569 l 246 496 l 244 496 l 244 164 l 246 164 l 246 131 q 257 93 246 104 q 293 82 268 82 l 597 82 q 633 90 625 82 q 640 125 640 97 m 322 674 l 650 674 q 760 564 760 674 l 760 110 q 650 0 760 0 l 322 0 q 244 49 260 0 l 244 0 l 125 0 l 125 929 l 244 929 l 244 625 q 322 674 260 674 z "},"c":{"ha":814,"x_min":111,"x_max":731,"o":"m 731 454 l 611 454 l 611 549 q 603 583 611 575 q 568 592 594 592 l 274 592 q 239 583 247 592 q 231 549 231 575 l 231 125 q 239 90 231 97 q 274 82 247 82 l 568 82 q 603 90 594 82 q 611 125 611 97 l 611 219 l 731 219 l 731 110 q 621 0 731 0 l 221 0 q 111 110 111 0 l 111 564 q 221 674 111 674 l 621 674 q 731 564 731 674 l 731 454 z "},"d":{"ha":871,"x_min":111,"x_max":746,"o":"m 274 82 l 579 82 q 615 93 604 82 q 626 131 626 104 l 626 543 q 615 581 626 569 q 579 592 604 592 l 274 592 q 239 583 247 592 q 231 549 231 575 l 231 125 q 239 90 231 97 q 274 82 247 82 m 626 929 l 746 929 l 746 0 l 626 0 l 626 44 q 550 0 608 0 l 221 0 q 111 110 111 0 l 111 564 q 221 674 111 674 l 550 674 q 626 629 608 674 l 626 929 z "},"e":{"ha":857,"x_min":111,"x_max":760,"o":"m 231 386 l 642 386 l 642 549 q 633 583 642 575 q 599 592 625 592 l 274 592 q 239 583 247 592 q 231 549 231 575 l 231 386 m 221 674 l 650 674 q 760 564 760 674 l 760 304 l 231 304 l 231 125 q 239 90 231 97 q 274 82 247 82 l 594 82 q 630 90 622 82 q 638 125 638 97 l 638 190 l 756 190 l 756 110 q 646 0 756 0 l 221 0 q 111 110 111 0 l 111 564 q 221 674 111 674 z "},"f":{"ha":517,"x_min":83,"x_max":503,"o":"m 503 842 l 346 842 q 311 833 319 842 q 303 799 303 825 l 303 674 l 503 674 l 503 592 l 303 592 l 303 0 l 183 0 l 183 592 l 83 592 l 83 674 l 183 674 l 183 819 q 293 929 183 929 l 503 929 l 503 842 z "},"g":{"ha":857,"x_min":111,"x_max":747,"o":"m 274 82 l 579 82 q 615 93 604 82 q 626 131 626 104 l 626 543 q 615 581 626 569 q 579 592 604 592 l 274 592 q 239 583 247 592 q 231 549 231 575 l 231 125 q 239 90 231 97 q 274 82 247 82 m 746 18 l 747 18 l 747 -86 q 638 -196 747 -196 l 135 -196 l 135 -114 l 585 -114 q 619 -106 611 -114 q 628 -71 628 -97 l 628 3 l 626 3 l 626 44 q 550 0 608 0 l 221 0 q 111 110 111 0 l 111 564 q 221 674 111 674 l 550 674 q 626 629 608 674 l 626 674 l 746 674 l 746 18 z "},"h":{"ha":872,"x_min":125,"x_max":761,"o":"m 322 674 l 651 674 q 761 564 761 674 l 761 0 l 642 0 l 642 549 q 633 583 642 575 q 599 592 625 592 l 293 592 q 257 581 268 592 q 246 543 246 569 l 246 500 l 244 500 l 244 0 l 125 0 l 125 929 l 244 929 l 244 625 q 322 674 260 674 z "},"i":{"ha":397,"x_min":136,"x_max":263,"o":"m 258 0 l 139 0 l 139 674 l 258 674 l 258 0 m 136 811 l 136 931 l 263 931 l 263 811 l 136 811 z "},"j":{"ha":385,"x_min":-56,"x_max":263,"o":"m 139 -71 l 139 674 l 260 674 l 260 -86 q 150 -196 260 -196 l -56 -196 l -56 -114 l 96 -114 q 131 -106 122 -114 q 139 -71 139 -97 m 136 811 l 136 931 l 263 931 l 263 811 l 136 811 z "},"k":{"ha":838,"x_min":125,"x_max":808,"o":"m 125 0 l 125 929 l 244 929 l 244 0 l 125 0 m 808 674 l 439 340 l 808 0 l 650 0 l 286 340 l 650 674 l 808 674 z "},"l":{"ha":397,"x_min":139,"x_max":258,"o":"m 258 0 l 139 0 l 139 929 l 258 929 l 258 0 z "},"m":{"ha":1339,"x_min":125,"x_max":1228,"o":"m 824 674 l 1118 674 q 1228 564 1228 674 l 1228 0 l 1108 0 l 1108 549 q 1100 583 1108 575 q 1065 592 1092 592 l 794 592 q 757 580 768 592 q 746 542 746 568 l 746 0 l 626 0 l 626 549 q 619 583 626 575 q 583 592 611 592 l 292 592 q 256 581 267 592 q 244 543 244 569 l 244 0 l 125 0 l 125 674 l 244 674 l 244 629 q 321 674 263 674 l 636 674 q 738 617 715 674 q 824 674 751 674 z "},"n":{"ha":871,"x_min":125,"x_max":760,"o":"m 322 674 l 650 674 q 760 564 760 674 l 760 0 l 640 0 l 640 549 q 633 583 640 575 q 597 592 625 592 l 293 592 q 257 581 268 592 q 246 543 246 569 l 246 497 l 244 497 l 244 0 l 125 0 l 125 674 l 244 674 l 244 625 q 322 674 260 674 z "},"o":{"ha":861,"x_min":111,"x_max":750,"o":"m 632 125 l 632 549 q 624 583 632 575 q 589 592 617 592 l 272 592 q 237 583 244 592 q 229 549 229 575 l 229 125 q 237 90 229 97 q 272 82 244 82 l 589 82 q 624 90 617 82 q 632 125 632 97 m 221 674 l 640 674 q 750 564 750 674 l 750 110 q 640 0 750 0 l 221 0 q 111 110 111 0 l 111 564 q 221 674 111 674 z "},"p":{"ha":885,"x_min":125,"x_max":774,"o":"m 654 125 l 654 549 q 647 583 654 575 q 611 592 639 592 l 292 592 q 256 581 267 592 q 244 543 244 569 l 244 131 q 256 93 244 104 q 292 82 267 82 l 611 82 q 647 90 639 82 q 654 125 654 97 m 321 674 l 664 674 q 774 564 774 674 l 774 110 q 664 0 774 0 l 321 0 q 244 44 263 0 l 244 -196 l 125 -196 l 125 674 l 244 674 l 244 629 q 321 674 263 674 z "},"q":{"ha":875,"x_min":160,"x_max":808,"o":"m 322 82 l 642 82 q 678 93 667 82 q 689 131 689 104 l 689 543 q 678 581 689 569 q 642 592 667 592 l 322 592 q 287 583 294 592 q 279 549 279 575 l 279 125 q 287 90 279 97 q 322 82 294 82 m 689 674 l 808 674 l 808 -196 l 689 -196 l 689 44 q 613 0 671 0 l 269 0 q 160 110 160 0 l 160 564 q 269 674 160 674 l 613 674 q 689 629 671 674 l 689 674 z "},"r":{"ha":511,"x_min":125,"x_max":497,"o":"m 353 674 l 497 674 l 497 589 l 335 589 q 244 485 244 589 l 244 0 l 125 0 l 125 674 l 244 674 l 244 589 q 353 674 267 674 z "},"s":{"ha":800,"x_min":111,"x_max":703,"o":"m 585 124 l 585 251 q 577 286 585 278 q 542 294 569 294 l 221 294 q 111 404 111 294 l 111 564 q 221 674 111 674 l 590 674 q 700 564 700 674 l 700 492 l 583 492 l 583 550 q 575 585 583 578 q 540 593 567 593 l 272 593 q 237 585 244 593 q 229 550 229 578 l 229 419 q 237 384 229 392 q 272 376 244 376 l 593 376 q 703 267 703 376 l 703 110 q 593 0 703 0 l 224 0 q 114 110 114 0 l 114 182 l 232 182 l 232 124 q 240 89 232 97 q 275 81 247 81 l 542 81 q 577 89 569 81 q 585 124 585 97 z "},"t":{"ha":508,"x_min":56,"x_max":453,"o":"m 453 592 l 283 592 l 283 132 q 292 97 283 106 q 326 89 300 89 l 451 89 l 451 0 l 274 0 q 164 110 164 0 l 164 592 l 56 592 l 56 674 l 164 674 l 164 790 l 283 790 l 283 674 l 453 674 l 453 592 z "},"u":{"ha":871,"x_min":111,"x_max":746,"o":"m 626 674 l 746 674 l 746 0 l 626 0 l 626 44 q 550 0 608 0 l 221 0 q 111 110 111 0 l 111 674 l 231 674 l 231 125 q 239 90 231 97 q 274 82 247 82 l 579 82 q 615 93 604 82 q 626 131 626 104 l 626 674 z "},"v":{"ha":822,"x_min":42,"x_max":781,"o":"m 42 674 l 161 674 l 410 81 l 663 674 l 781 674 l 499 0 l 322 0 l 42 674 z "},"w":{"ha":1228,"x_min":42,"x_max":1186,"o":"m 1072 674 l 1186 674 l 951 0 l 783 0 l 614 574 l 447 0 l 279 0 l 42 674 l 156 674 l 364 81 l 542 674 l 689 674 l 864 81 l 1072 674 z "},"x":{"ha":836,"x_min":47,"x_max":794,"o":"m 496 339 l 789 0 l 653 0 l 422 265 l 183 0 l 47 0 l 353 336 l 64 674 l 204 674 l 428 407 l 657 674 l 794 674 l 496 339 z "},"y":{"ha":801,"x_min":50,"x_max":792,"o":"m 297 -196 l 165 -196 l 165 -114 l 257 -114 q 357 -62 331 -114 l 388 0 l 346 0 l 50 674 l 171 674 l 424 82 l 671 674 l 792 674 l 460 -76 q 399 -167 433 -137 q 297 -196 364 -196 z "},"z":{"ha":707,"x_min":83,"x_max":624,"o":"m 624 674 l 624 592 l 211 82 l 624 82 l 624 0 l 83 0 l 83 82 l 496 592 l 101 592 l 101 674 l 624 674 z "},"{":{"ha":560,"x_min":111,"x_max":615,"o":"m 379 860 l 379 511 q 272 343 379 356 q 379 176 379 331 l 379 -167 q 390 -212 379 -199 q 432 -225 401 -225 l 615 -225 l 615 -307 l 386 -307 q 288 -275 317 -307 q 260 -176 260 -243 l 260 147 q 230 266 260 229 q 136 303 200 303 l 111 303 l 111 385 l 136 385 q 231 422 201 385 q 260 542 260 460 l 260 869 q 288 968 260 936 q 386 1000 317 1000 l 615 1000 l 615 918 l 432 918 q 390 905 401 918 q 379 860 379 892 z "},"|":{"ha":394,"x_min":139,"x_max":256,"o":"m 139 1011 l 256 1011 l 256 -149 l 139 -149 l 139 1011 z "},"}":{"ha":560,"x_min":-56,"x_max":449,"o":"m 181 511 l 181 860 q 169 905 181 892 q 128 918 158 918 l -56 918 l -56 1000 l 174 1000 q 272 968 243 1000 q 300 869 300 936 l 300 542 q 329 422 300 460 q 424 385 358 385 l 449 385 l 449 303 l 424 303 q 330 266 360 303 q 300 147 300 229 l 300 -176 q 272 -275 300 -243 q 174 -307 243 -307 l -56 -307 l -56 -225 l 128 -225 q 169 -212 158 -225 q 181 -167 181 -199 l 181 176 q 288 343 181 331 q 181 511 181 356 z "},"~":{"ha":1079,"x_min":111,"x_max":968,"o":"m 524 308 q 422 357 482 335 q 311 379 363 379 q 242 366 260 379 q 225 319 225 353 l 225 238 l 111 238 l 111 354 q 218 460 111 460 l 360 460 q 469 438 415 460 q 561 388 524 415 q 656 339 599 361 q 766 317 714 317 q 836 331 818 317 q 854 379 854 346 l 854 460 l 968 460 l 968 343 q 860 236 968 236 l 724 236 q 524 308 633 236 z "},"¡":{"ha":360,"x_min":108,"x_max":253,"o":"m 131 399 l 231 399 l 253 -190 l 108 -190 l 131 399 m 111 674 l 249 674 l 249 513 l 111 513 l 111 674 z "},"¢":{"ha":814,"x_min":111,"x_max":731,"o":"m 731 454 l 611 454 l 611 549 q 603 583 611 575 q 568 592 594 592 l 274 592 q 239 583 247 592 q 231 549 231 575 l 231 125 q 239 90 231 97 q 274 82 247 82 l 568 82 q 603 90 594 82 q 611 125 611 97 l 611 219 l 731 219 l 731 110 q 621 0 731 0 l 474 0 l 474 -106 l 358 -106 l 358 0 l 221 0 q 111 110 111 0 l 111 564 q 221 674 111 674 l 358 674 l 358 779 l 474 779 l 474 674 l 621 674 q 731 564 731 674 l 731 454 z "},"£":{"ha":963,"x_min":97,"x_max":879,"o":"m 879 90 l 879 0 l 111 0 l 111 86 q 222 229 222 86 l 222 379 l 97 379 l 97 461 l 222 461 l 222 754 q 332 864 222 864 l 750 864 q 860 754 860 864 l 860 608 l 739 608 l 739 739 q 731 774 739 767 q 696 782 722 782 l 388 782 q 353 774 361 782 q 344 739 344 767 l 344 461 l 754 461 l 754 379 l 344 379 l 344 239 q 337 139 344 172 q 306 90 329 106 l 879 90 z "},"¤":{"ha":988,"x_min":92,"x_max":896,"o":"m 319 236 l 679 236 q 725 246 714 236 q 736 289 736 256 l 736 538 q 724 582 736 571 q 679 593 713 593 l 319 593 q 274 583 285 593 q 263 538 263 572 l 263 289 q 274 246 263 256 q 319 236 285 236 m 844 553 l 844 276 q 836 219 844 244 l 896 160 l 821 86 l 749 157 q 714 154 726 154 l 283 154 q 240 158 258 154 l 167 86 l 92 160 l 160 226 q 153 276 153 251 l 153 553 q 160 604 153 579 l 92 671 l 167 746 l 242 672 q 283 675 267 675 l 714 675 q 747 672 728 675 l 821 746 l 896 671 l 835 611 q 844 553 844 588 z "},"¥":{"ha":986,"x_min":68,"x_max":918,"o":"m 849 456 l 849 374 l 618 374 l 561 279 l 561 278 l 849 278 l 849 196 l 561 196 l 561 0 l 440 0 l 440 196 l 150 196 l 150 278 l 440 278 l 440 279 l 381 374 l 150 374 l 150 456 l 328 456 l 68 864 l 193 864 l 500 381 l 794 864 l 918 864 l 668 456 l 849 456 z "},"¦":{"ha":367,"x_min":125,"x_max":242,"o":"m 125 344 l 242 344 l 242 -149 l 125 -149 l 125 344 m 242 518 l 125 518 l 125 1011 l 242 1011 l 242 518 z "},"§":{"ha":847,"x_min":111,"x_max":736,"o":"m 685 218 l 685 61 q 575 -49 685 -49 l 221 -49 q 111 61 111 -49 l 111 132 l 232 132 l 232 76 q 240 42 232 50 q 275 33 247 33 l 522 33 q 556 42 549 33 q 564 76 564 50 l 564 204 q 556 239 564 231 q 522 247 549 247 l 221 247 q 111 357 111 247 l 111 475 q 181 594 111 576 q 161 657 161 622 l 161 815 q 271 925 161 925 l 626 925 q 736 815 736 925 l 736 744 l 615 744 l 615 800 q 608 835 615 828 q 572 843 600 843 l 325 843 q 290 835 297 843 q 282 800 282 828 l 282 672 q 290 637 282 644 q 325 629 297 629 l 626 629 q 736 519 736 629 l 736 400 q 667 282 736 296 q 685 218 685 254 m 572 547 l 275 547 q 240 539 247 547 q 232 504 232 531 l 232 372 q 240 337 232 344 q 275 329 247 329 l 572 329 q 608 337 600 329 q 615 372 615 344 l 615 504 q 608 539 615 531 q 572 547 600 547 z "},"¨":{"ha":833,"x_min":150,"x_max":682,"o":"m 511 868 l 682 868 l 682 753 l 511 753 l 511 868 m 150 868 l 321 868 l 321 753 l 150 753 l 150 868 z "},"©":{"ha":1450,"x_min":125,"x_max":1325,"o":"m 1325 475 l 1325 378 q 1252 92 1325 183 q 1017 0 1179 0 l 433 0 q 198 92 271 0 q 125 378 125 183 l 125 475 q 199 767 125 671 q 433 864 272 864 l 1017 864 q 1251 767 1178 864 q 1325 475 1325 671 m 442 83 l 1008 83 q 1167 160 1121 83 q 1214 375 1214 236 l 1214 478 q 1008 783 1214 783 l 442 783 q 236 478 236 783 l 236 375 q 283 160 236 236 q 442 83 329 83 m 886 333 l 886 369 l 994 369 l 994 318 q 885 208 994 208 l 567 208 q 457 318 457 208 l 457 563 q 567 672 457 672 l 885 672 q 994 563 994 672 l 994 511 l 886 511 l 886 547 q 878 583 886 575 q 843 590 869 590 l 610 590 q 575 583 583 590 q 567 547 567 575 l 567 333 q 575 298 567 306 q 610 290 583 290 l 843 290 q 878 298 869 290 q 886 333 886 306 z "},"ª":{"ha":593,"x_min":83,"x_max":496,"o":"m 199 449 l 376 449 q 411 482 411 449 l 411 771 q 376 806 411 806 l 199 806 q 173 800 179 806 q 167 775 167 794 l 167 479 q 173 454 167 460 q 199 449 179 449 m 411 864 l 496 864 l 496 389 l 411 389 l 411 424 q 356 389 400 389 l 161 389 q 83 467 83 389 l 83 786 q 161 864 83 864 l 356 864 q 411 829 400 864 l 411 864 z "},"«":{"ha":728,"x_min":83,"x_max":672,"o":"m 256 146 l 83 361 l 256 576 l 386 576 l 211 360 l 386 146 l 256 146 m 542 146 l 369 361 l 542 576 l 672 576 l 497 360 l 672 146 l 542 146 z "},"¬":{"ha":1035,"x_min":83,"x_max":951,"o":"m 951 550 l 951 235 l 860 235 l 860 442 l 83 442 l 83 550 l 951 550 z "},"­":{"ha":446,"x_min":76,"x_max":368,"o":"m 76 363 l 76 443 l 368 443 l 368 363 l 76 363 z "},"®":{"ha":849,"x_min":83,"x_max":765,"o":"m 765 732 l 765 678 q 724 519 765 571 q 592 468 683 468 l 257 468 q 124 519 165 468 q 83 678 83 571 l 83 732 q 125 894 83 840 q 257 947 167 947 l 592 947 q 724 894 682 947 q 765 732 765 840 m 263 528 l 588 528 q 692 676 692 528 l 692 733 q 588 892 692 892 l 263 892 q 158 733 158 892 l 158 676 q 263 528 158 528 m 294 846 l 494 846 q 543 800 543 846 l 543 722 q 500 675 543 675 l 489 675 l 556 574 l 483 574 l 418 674 l 360 674 l 360 574 l 294 574 l 294 846 m 476 743 l 476 781 q 461 796 476 796 l 361 796 l 361 728 l 461 728 q 476 743 476 728 z "},"¯":{"ha":833,"x_min":175,"x_max":657,"o":"m 175 764 l 175 844 l 657 844 l 657 764 l 175 764 z "},"°":{"ha":760,"x_min":83,"x_max":676,"o":"m 676 757 l 676 575 q 569 468 676 468 l 190 468 q 83 575 83 468 l 83 757 q 190 864 83 864 l 569 864 q 676 757 676 864 m 565 589 l 565 744 q 557 778 565 771 q 522 786 549 786 l 239 786 q 204 778 213 786 q 196 744 196 771 l 196 589 q 203 553 196 561 q 239 546 211 546 l 522 546 q 558 553 550 546 q 565 589 565 561 z "},"±":{"ha":944,"x_min":111,"x_max":833,"o":"m 111 164 l 111 253 l 833 253 l 833 164 l 111 164 m 531 533 l 833 533 l 833 442 l 531 442 l 531 308 l 414 308 l 414 442 l 111 442 l 111 533 l 414 533 l 414 700 l 531 700 l 531 533 z "},"²":{"ha":528,"x_min":97,"x_max":458,"o":"m 176 782 l 176 710 l 97 710 l 97 804 q 157 864 97 864 l 399 864 q 458 804 458 864 l 458 751 q 399 614 458 663 l 200 451 l 454 451 l 454 389 l 99 389 l 99 450 l 331 649 q 378 754 378 689 l 378 782 q 374 801 378 797 q 354 806 369 806 l 200 806 q 181 801 186 806 q 176 782 176 797 z "},"³":{"ha":568,"x_min":97,"x_max":471,"o":"m 178 782 l 178 717 l 97 717 l 97 804 q 158 864 97 864 l 410 864 q 471 804 471 864 l 471 669 q 439 631 471 633 q 471 592 471 626 l 471 449 q 410 389 471 389 l 158 389 q 97 449 97 389 l 97 536 l 178 536 l 178 472 q 182 452 178 457 q 201 447 186 447 l 365 447 q 385 452 381 447 q 389 472 389 457 l 389 576 q 385 596 389 592 q 365 600 381 600 l 219 600 l 219 660 l 365 660 q 385 665 381 660 q 389 683 389 669 l 389 782 q 385 801 389 797 q 365 806 381 806 l 201 806 q 182 801 186 806 q 178 782 178 797 z "},"´":{"ha":833,"x_min":236,"x_max":583,"o":"m 236 703 l 431 901 l 583 901 l 358 703 l 236 703 z "},"µ":{"ha":885,"x_min":125,"x_max":760,"o":"m 640 674 l 760 674 l 760 0 l 640 0 l 640 44 q 564 0 622 0 l 244 0 l 244 -196 l 125 -196 l 125 674 l 244 674 l 244 125 q 253 90 244 97 q 288 82 261 82 l 593 82 q 629 93 618 82 q 640 131 640 104 l 640 674 z "},"¶":{"ha":1019,"x_min":111,"x_max":881,"o":"m 585 864 l 585 -196 l 471 -196 l 471 315 l 221 315 q 111 425 111 315 l 111 754 q 221 864 111 864 l 585 864 m 767 864 l 881 864 l 881 -196 l 767 -196 l 767 864 z "},"·":{"ha":360,"x_min":111,"x_max":249,"o":"m 111 357 l 111 518 l 249 518 l 249 357 l 111 357 z "},"¸":{"ha":833,"x_min":251,"x_max":581,"o":"m 468 -171 l 468 -69 l 581 -69 l 581 -179 q 458 -301 581 -301 l 251 -301 l 251 -221 l 419 -221 q 457 -210 446 -221 q 468 -171 468 -199 z "},"¹":{"ha":335,"x_min":42,"x_max":238,"o":"m 238 864 l 238 389 l 154 389 l 154 806 l 42 806 l 42 864 l 238 864 z "},"º":{"ha":597,"x_min":97,"x_max":500,"o":"m 500 788 l 500 465 q 424 389 500 389 l 174 389 q 97 465 97 389 l 97 788 q 174 864 97 864 l 424 864 q 500 788 500 864 m 417 478 l 417 776 q 411 800 417 794 q 386 806 406 806 l 210 806 q 185 801 190 806 q 179 776 179 796 l 179 478 q 185 453 179 458 q 210 447 190 447 l 386 447 q 411 453 406 447 q 417 478 417 458 z "},"»":{"ha":719,"x_min":56,"x_max":644,"o":"m 644 361 l 472 146 l 342 146 l 517 360 l 342 576 l 472 576 l 644 361 m 358 361 l 186 146 l 56 146 l 231 360 l 56 576 l 186 576 l 358 361 z "},"¿":{"ha":854,"x_min":125,"x_max":799,"o":"m 539 672 l 539 511 l 401 511 l 401 672 l 539 672 m 678 68 l 799 68 l 799 -85 q 689 -192 799 -192 l 235 -192 q 125 -85 125 -192 l 125 196 q 235 304 125 304 l 414 304 l 419 397 l 519 397 l 529 221 l 285 221 q 253 212 260 221 q 246 176 246 203 l 246 -65 q 253 -101 246 -92 q 285 -111 260 -111 l 638 -111 q 671 -101 664 -111 q 678 -65 678 -92 l 678 68 z "},"À":{"ha":947,"x_min":49,"x_max":899,"o":"m 513 931 l 390 931 l 165 1129 l 318 1129 l 513 931 m 268 253 l 679 253 l 472 781 l 268 253 m 778 0 l 711 171 l 236 171 l 171 0 l 49 0 l 385 864 l 561 864 l 899 0 l 778 0 z "},"Á":{"ha":947,"x_min":49,"x_max":899,"o":"m 774 1129 l 549 931 l 426 931 l 621 1129 l 774 1129 m 268 253 l 679 253 l 472 781 l 268 253 m 778 0 l 711 171 l 236 171 l 171 0 l 49 0 l 385 864 l 561 864 l 899 0 l 778 0 z "},"Â":{"ha":947,"x_min":49,"x_max":899,"o":"m 472 1069 l 313 929 l 172 929 l 403 1128 l 542 1128 l 772 929 l 632 929 l 472 1069 m 268 253 l 679 253 l 472 781 l 268 253 m 778 0 l 711 171 l 236 171 l 171 0 l 49 0 l 385 864 l 561 864 l 899 0 l 778 0 z "},"Ã":{"ha":947,"x_min":49,"x_max":899,"o":"m 310 1007 l 310 929 l 206 929 l 206 1011 q 307 1118 206 1118 l 326 1118 q 496 1063 369 1118 q 644 1008 622 1008 q 672 1015 667 1008 q 678 1042 678 1021 l 678 1118 l 781 1118 l 781 1036 q 758 956 781 983 q 682 929 736 929 l 657 929 q 489 984 614 929 q 333 1039 364 1039 q 310 1007 310 1039 m 268 253 l 679 253 l 472 781 l 268 253 m 778 0 l 711 171 l 236 171 l 171 0 l 49 0 l 385 864 l 561 864 l 899 0 l 778 0 z "},"Ä":{"ha":947,"x_min":49,"x_max":899,"o":"m 742 1044 l 742 929 l 571 929 l 571 1044 l 742 1044 m 381 1044 l 381 929 l 210 929 l 210 1044 l 381 1044 m 268 253 l 679 253 l 472 781 l 268 253 m 778 0 l 711 171 l 236 171 l 171 0 l 49 0 l 385 864 l 561 864 l 899 0 l 778 0 z "},"Å":{"ha":947,"x_min":49,"x_max":899,"o":"m 343 1064 l 343 1035 q 350 1003 343 1010 q 382 996 357 996 l 564 996 q 596 1003 589 996 q 603 1035 603 1010 l 603 1064 q 596 1096 603 1089 q 564 1103 589 1103 l 382 1103 q 350 1096 357 1103 q 343 1064 343 1089 m 596 931 l 350 931 q 258 1022 258 931 l 258 1076 q 350 1168 258 1168 l 596 1168 q 688 1076 688 1168 l 688 1022 q 596 931 688 931 m 268 253 l 679 253 l 472 781 l 268 253 m 778 0 l 711 171 l 236 171 l 171 0 l 49 0 l 385 864 l 561 864 l 899 0 l 778 0 z "},"Æ":{"ha":1408,"x_min":43,"x_max":1325,"o":"m 733 283 l 733 767 l 382 283 l 733 283 m 856 82 l 1325 82 l 1325 0 l 733 0 l 733 201 l 322 201 l 175 0 l 43 0 l 676 864 l 1307 864 l 1307 782 l 856 782 l 856 483 l 1264 483 l 1264 401 l 856 401 l 856 82 z "},"Ç":{"ha":894,"x_min":125,"x_max":811,"o":"m 400 -171 l 400 -69 l 513 -69 l 513 -179 q 390 -301 513 -301 l 183 -301 l 183 -221 l 351 -221 q 389 -210 378 -221 q 400 -171 400 -199 m 811 574 l 689 574 l 689 739 q 681 774 689 767 q 646 782 672 782 l 290 782 q 256 774 264 782 q 247 739 247 767 l 247 125 q 256 90 247 97 q 290 82 264 82 l 646 82 q 681 90 672 82 q 689 125 689 97 l 689 290 l 811 290 l 811 110 q 701 0 811 0 l 235 0 q 125 110 125 0 l 125 754 q 235 864 125 864 l 701 864 q 811 754 811 864 l 811 574 z "},"È":{"ha":815,"x_min":139,"x_max":746,"o":"m 500 929 l 378 929 l 153 1128 l 306 1128 l 500 929 m 263 82 l 746 82 l 746 0 l 139 0 l 139 864 l 726 864 l 726 782 l 263 782 l 263 483 l 669 483 l 669 401 l 263 401 l 263 82 z "},"É":{"ha":815,"x_min":139,"x_max":746,"o":"m 740 1128 l 515 929 l 393 929 l 588 1128 l 740 1128 m 263 82 l 746 82 l 746 0 l 139 0 l 139 864 l 726 864 l 726 782 l 263 782 l 263 483 l 669 483 l 669 401 l 263 401 l 263 82 z "},"Ê":{"ha":815,"x_min":139,"x_max":746,"o":"m 442 1069 l 282 929 l 142 929 l 372 1128 l 511 1128 l 742 929 l 601 929 l 442 1069 m 263 82 l 746 82 l 746 0 l 139 0 l 139 864 l 726 864 l 726 782 l 263 782 l 263 483 l 669 483 l 669 401 l 263 401 l 263 82 z "},"Ë":{"ha":815,"x_min":139,"x_max":746,"o":"m 699 1044 l 699 929 l 528 929 l 528 1044 l 699 1044 m 338 1044 l 338 929 l 167 929 l 167 1044 l 338 1044 m 263 82 l 746 82 l 746 0 l 139 0 l 139 864 l 726 864 l 726 782 l 263 782 l 263 483 l 669 483 l 669 401 l 263 401 l 263 82 z "},"Ì":{"ha":428,"x_min":-89,"x_max":275,"o":"m 153 864 l 275 864 l 275 0 l 153 0 l 153 864 m 64 1128 l 258 929 l 136 929 l -89 1128 l 64 1128 z "},"Í":{"ha":428,"x_min":153,"x_max":508,"o":"m 153 864 l 275 864 l 275 0 l 153 0 l 153 864 m 161 929 l 356 1128 l 508 1128 l 283 929 l 161 929 z "},"Î":{"ha":428,"x_min":-78,"x_max":522,"o":"m 153 864 l 275 864 l 275 0 l 153 0 l 153 864 m -78 931 l 153 1129 l 292 1129 l 522 931 l 382 931 l 222 1071 l 63 931 l -78 931 z "},"Ï":{"ha":428,"x_min":-53,"x_max":479,"o":"m 153 864 l 275 864 l 275 0 l 153 0 l 153 864 m -53 1044 l 118 1044 l 118 929 l -53 929 l -53 1044 m 308 1044 l 479 1044 l 479 929 l 308 929 l 308 1044 z "},"Ð":{"ha":990,"x_min":94,"x_max":865,"o":"m 743 125 l 743 739 q 735 774 743 767 q 700 782 728 782 l 289 782 l 289 476 l 575 476 l 575 393 l 289 393 l 289 82 l 700 82 q 735 90 728 82 q 743 125 743 97 m 167 864 l 756 864 q 865 754 865 864 l 865 110 q 756 0 865 0 l 167 0 l 167 393 l 94 393 l 94 476 l 167 476 l 167 864 z "},"Ñ":{"ha":999,"x_min":139,"x_max":860,"o":"m 749 864 l 860 864 l 860 0 l 738 0 l 250 721 l 250 0 l 139 0 l 139 864 l 268 864 l 749 150 l 749 864 m 340 1040 q 317 1008 317 1040 l 317 931 l 213 931 l 213 1013 q 314 1119 213 1119 l 333 1119 q 502 1065 376 1119 q 651 1010 628 1010 q 679 1016 674 1010 q 685 1043 685 1022 l 685 1119 l 788 1119 l 788 1038 q 765 958 788 985 q 689 931 743 931 l 664 931 q 496 985 621 931 q 340 1040 371 1040 z "},"Ò":{"ha":924,"x_min":125,"x_max":799,"o":"m 799 754 l 799 110 q 689 0 799 0 l 235 0 q 125 110 125 0 l 125 754 q 235 864 125 864 l 689 864 q 799 754 799 864 m 679 125 l 679 739 q 672 774 679 767 q 636 782 664 782 l 289 782 q 253 774 261 782 q 246 739 246 767 l 246 125 q 253 90 246 97 q 289 82 261 82 l 636 82 q 672 90 664 82 q 679 125 679 97 m 333 1128 l 528 929 l 406 929 l 181 1128 l 333 1128 z "},"Ó":{"ha":924,"x_min":125,"x_max":799,"o":"m 417 929 l 611 1128 l 764 1128 l 539 929 l 417 929 m 799 754 l 799 110 q 689 0 799 0 l 235 0 q 125 110 125 0 l 125 754 q 235 864 125 864 l 689 864 q 799 754 799 864 m 679 125 l 679 739 q 672 774 679 767 q 636 782 664 782 l 289 782 q 253 774 261 782 q 246 739 246 767 l 246 125 q 253 90 246 97 q 289 82 261 82 l 636 82 q 672 90 664 82 q 679 125 679 97 z "},"Ô":{"ha":924,"x_min":125,"x_max":799,"o":"m 163 929 l 393 1128 l 532 1128 l 763 929 l 622 929 l 463 1069 l 303 929 l 163 929 m 799 754 l 799 110 q 689 0 799 0 l 235 0 q 125 110 125 0 l 125 754 q 235 864 125 864 l 689 864 q 799 754 799 864 m 679 125 l 679 739 q 672 774 679 767 q 636 782 664 782 l 289 782 q 253 774 261 782 q 246 739 246 767 l 246 125 q 253 90 246 97 q 289 82 261 82 l 636 82 q 672 90 664 82 q 679 125 679 97 z "},"Õ":{"ha":924,"x_min":125,"x_max":799,"o":"m 799 754 l 799 110 q 689 0 799 0 l 235 0 q 125 110 125 0 l 125 754 q 235 864 125 864 l 689 864 q 799 754 799 864 m 679 125 l 679 739 q 672 774 679 767 q 636 782 664 782 l 289 782 q 253 774 261 782 q 246 739 246 767 l 246 125 q 253 90 246 97 q 289 82 261 82 l 636 82 q 672 90 664 82 q 679 125 679 97 m 299 1040 q 275 1008 275 1040 l 275 931 l 171 931 l 171 1013 q 272 1119 171 1119 l 292 1119 q 460 1065 333 1119 q 609 1010 586 1010 q 638 1016 632 1010 q 643 1043 643 1022 l 643 1119 l 746 1119 l 746 1038 q 724 958 746 985 q 647 931 701 931 l 622 931 q 454 985 579 931 q 299 1040 329 1040 z "},"Ö":{"ha":924,"x_min":125,"x_max":799,"o":"m 799 754 l 799 110 q 689 0 799 0 l 235 0 q 125 110 125 0 l 125 754 q 235 864 125 864 l 689 864 q 799 754 799 864 m 679 125 l 679 739 q 672 774 679 767 q 636 782 664 782 l 289 782 q 253 774 261 782 q 246 739 246 767 l 246 125 q 253 90 246 97 q 289 82 261 82 l 636 82 q 672 90 664 82 q 679 125 679 97 m 560 1044 l 731 1044 l 731 929 l 560 929 l 560 1044 m 199 1044 l 369 1044 l 369 929 l 199 929 l 199 1044 z "},"×":{"ha":913,"x_min":117,"x_max":796,"o":"m 796 611 l 547 440 l 789 274 l 725 192 l 456 378 l 186 192 l 124 274 l 365 440 l 117 611 l 181 693 l 457 503 l 732 693 l 796 611 z "},"Ø":{"ha":975,"x_min":121,"x_max":854,"o":"m 718 121 l 718 696 l 296 78 l 674 78 q 710 85 701 78 q 718 121 718 93 m 256 743 l 256 167 l 681 786 l 299 786 q 264 778 272 786 q 256 743 256 769 m 836 754 l 836 110 q 726 0 836 0 l 243 0 l 222 -31 l 121 -31 l 163 31 q 139 110 139 58 l 139 754 q 249 864 139 864 l 733 864 l 754 894 l 854 894 l 813 833 q 836 754 836 806 z "},"Ù":{"ha":949,"x_min":125,"x_max":824,"o":"m 246 864 l 246 125 q 253 90 246 97 q 289 82 261 82 l 661 82 q 697 90 689 82 q 704 125 704 97 l 704 864 l 824 864 l 824 110 q 714 0 824 0 l 235 0 q 125 110 125 0 l 125 864 l 246 864 m 358 1128 l 553 929 l 431 929 l 206 1128 l 358 1128 z "},"Ú":{"ha":949,"x_min":125,"x_max":824,"o":"m 421 929 l 615 1128 l 768 1128 l 543 929 l 421 929 m 246 864 l 246 125 q 253 90 246 97 q 289 82 261 82 l 661 82 q 697 90 689 82 q 704 125 704 97 l 704 864 l 824 864 l 824 110 q 714 0 824 0 l 235 0 q 125 110 125 0 l 125 864 l 246 864 z "},"Û":{"ha":949,"x_min":125,"x_max":824,"o":"m 171 929 l 401 1128 l 540 1128 l 771 929 l 631 929 l 471 1069 l 311 929 l 171 929 m 246 864 l 246 125 q 253 90 246 97 q 289 82 261 82 l 661 82 q 697 90 689 82 q 704 125 704 97 l 704 864 l 824 864 l 824 110 q 714 0 824 0 l 235 0 q 125 110 125 0 l 125 864 l 246 864 z "},"Ü":{"ha":949,"x_min":125,"x_max":824,"o":"m 704 864 l 824 864 l 824 110 q 714 0 824 0 l 235 0 q 125 110 125 0 l 125 864 l 246 864 l 246 125 q 253 90 246 97 q 289 82 261 82 l 661 82 q 697 90 689 82 q 704 125 704 97 l 704 864 m 201 1044 l 372 1044 l 372 929 l 201 929 l 201 1044 m 563 1044 l 733 1044 l 733 929 l 563 929 l 563 1044 z "},"Ý":{"ha":875,"x_min":13,"x_max":863,"o":"m 760 1128 l 535 929 l 413 929 l 607 1128 l 760 1128 m 506 0 l 385 0 l 385 279 l 13 864 l 138 864 l 444 381 l 739 864 l 863 864 l 506 279 l 506 0 z "},"Þ":{"ha":925,"x_min":139,"x_max":828,"o":"m 708 267 l 708 597 q 700 633 708 625 q 665 640 692 640 l 260 640 l 260 224 l 665 224 q 700 231 692 224 q 708 267 708 239 m 260 722 l 718 722 q 828 613 828 722 l 828 251 q 718 142 828 142 l 260 142 l 260 0 l 139 0 l 139 864 l 260 864 l 260 722 z "},"ß":{"ha":1125,"x_min":139,"x_max":1042,"o":"m 439 208 l 556 208 l 556 124 q 564 89 556 97 q 599 81 572 81 l 882 81 q 917 89 908 81 q 925 124 925 97 l 925 279 q 917 314 925 306 q 882 322 908 322 l 544 322 q 435 432 435 322 l 435 539 q 539 649 435 649 l 831 649 q 872 656 863 649 q 881 685 881 663 l 881 735 q 872 771 881 763 q 838 779 864 779 l 303 779 q 267 770 275 779 q 258 735 258 761 l 258 0 l 139 0 l 139 754 q 249 864 139 864 l 889 864 q 999 754 999 864 l 999 660 q 903 568 999 568 l 593 568 q 558 560 567 568 q 550 525 550 553 l 550 446 q 558 411 550 419 q 593 403 567 403 l 932 403 q 1042 293 1042 403 l 1042 110 q 932 0 1042 0 l 549 0 q 439 110 439 0 l 439 208 z "},"à":{"ha":871,"x_min":111,"x_max":746,"o":"m 499 739 l 376 739 l 151 938 l 304 938 l 499 739 m 274 82 l 579 82 q 615 93 604 82 q 626 131 626 104 l 626 543 q 615 581 626 569 q 579 592 604 592 l 274 592 q 239 583 247 592 q 231 549 231 575 l 231 125 q 239 90 231 97 q 274 82 247 82 m 626 674 l 746 674 l 746 0 l 626 0 l 626 44 q 550 0 608 0 l 221 0 q 111 110 111 0 l 111 564 q 221 674 111 674 l 550 674 q 626 629 608 674 l 626 674 z "},"á":{"ha":871,"x_min":111,"x_max":746,"o":"m 722 938 l 497 739 l 375 739 l 569 938 l 722 938 m 274 82 l 579 82 q 615 93 604 82 q 626 131 626 104 l 626 543 q 615 581 626 569 q 579 592 604 592 l 274 592 q 239 583 247 592 q 231 549 231 575 l 231 125 q 239 90 231 97 q 274 82 247 82 m 626 674 l 746 674 l 746 0 l 626 0 l 626 44 q 550 0 608 0 l 221 0 q 111 110 111 0 l 111 564 q 221 674 111 674 l 550 674 q 626 629 608 674 l 626 674 z "},"â":{"ha":871,"x_min":111,"x_max":746,"o":"m 431 879 l 271 739 l 131 739 l 361 938 l 500 938 l 731 739 l 590 739 l 431 879 m 274 82 l 579 82 q 615 93 604 82 q 626 131 626 104 l 626 543 q 615 581 626 569 q 579 592 604 592 l 274 592 q 239 583 247 592 q 231 549 231 575 l 231 125 q 239 90 231 97 q 274 82 247 82 m 626 674 l 746 674 l 746 0 l 626 0 l 626 44 q 550 0 608 0 l 221 0 q 111 110 111 0 l 111 564 q 221 674 111 674 l 550 674 q 626 629 608 674 l 626 674 z "},"ã":{"ha":871,"x_min":111,"x_max":746,"o":"m 249 818 l 249 740 l 144 740 l 144 822 q 246 929 144 929 l 265 929 q 435 874 308 929 q 583 819 561 819 q 611 826 606 819 q 617 853 617 832 l 617 929 l 719 929 l 719 847 q 697 767 719 794 q 621 740 675 740 l 596 740 q 428 795 553 740 q 272 850 303 850 q 249 818 249 850 m 274 82 l 579 82 q 615 93 604 82 q 626 131 626 104 l 626 543 q 615 581 626 569 q 579 592 604 592 l 274 592 q 239 583 247 592 q 231 549 231 575 l 231 125 q 239 90 231 97 q 274 82 247 82 m 626 674 l 746 674 l 746 0 l 626 0 l 626 44 q 550 0 608 0 l 221 0 q 111 110 111 0 l 111 564 q 221 674 111 674 l 550 674 q 626 629 608 674 l 626 674 z "},"ä":{"ha":871,"x_min":111,"x_max":746,"o":"m 700 854 l 700 739 l 529 739 l 529 854 l 700 854 m 339 854 l 339 739 l 168 739 l 168 854 l 339 854 m 274 82 l 579 82 q 615 93 604 82 q 626 131 626 104 l 626 543 q 615 581 626 569 q 579 592 604 592 l 274 592 q 239 583 247 592 q 231 549 231 575 l 231 125 q 239 90 231 97 q 274 82 247 82 m 626 674 l 746 674 l 746 0 l 626 0 l 626 44 q 550 0 608 0 l 221 0 q 111 110 111 0 l 111 564 q 221 674 111 674 l 550 674 q 626 629 608 674 l 626 674 z "},"å":{"ha":871,"x_min":111,"x_max":746,"o":"m 299 872 l 299 843 q 306 811 299 818 q 338 804 313 804 l 519 804 q 551 811 544 804 q 558 843 558 818 l 558 872 q 551 904 558 897 q 519 911 544 911 l 338 911 q 306 904 313 911 q 299 872 299 897 m 551 739 l 306 739 q 214 831 214 739 l 214 885 q 306 976 214 976 l 551 976 q 643 885 643 976 l 643 831 q 551 739 643 739 m 274 82 l 579 82 q 615 93 604 82 q 626 131 626 104 l 626 543 q 615 581 626 569 q 579 592 604 592 l 274 592 q 239 583 247 592 q 231 549 231 575 l 231 125 q 239 90 231 97 q 274 82 247 82 m 626 674 l 746 674 l 746 0 l 626 0 l 626 44 q 550 0 608 0 l 221 0 q 111 110 111 0 l 111 564 q 221 674 111 674 l 550 674 q 626 629 608 674 l 626 674 z "},"æ":{"ha":1339,"x_min":111,"x_max":1228,"o":"m 274 82 l 551 82 q 597 124 597 82 l 597 300 l 231 219 l 231 125 q 239 90 231 97 q 274 82 247 82 m 1067 592 l 760 592 q 725 583 733 592 q 717 549 717 575 l 717 386 l 1110 386 l 1110 549 q 1102 583 1110 575 q 1067 592 1094 592 m 717 304 l 717 125 q 725 90 717 97 q 760 82 733 82 l 1063 82 q 1097 90 1089 82 q 1106 125 1106 97 l 1106 190 l 1224 190 l 1224 110 q 1114 0 1224 0 l 740 0 q 683 15 706 0 q 656 53 661 31 q 565 0 639 0 l 221 0 q 111 110 111 0 l 111 278 l 597 386 l 597 550 q 551 592 597 592 l 274 592 q 239 583 247 592 q 231 549 231 575 l 231 432 l 111 432 l 111 564 q 221 674 111 674 l 565 674 q 656 621 639 674 q 683 658 661 643 q 740 674 706 674 l 1118 674 q 1228 564 1228 674 l 1228 304 l 717 304 z "},"ç":{"ha":814,"x_min":111,"x_max":731,"o":"m 360 -171 l 360 -69 l 472 -69 l 472 -179 q 350 -301 472 -301 l 143 -301 l 143 -221 l 311 -221 q 349 -210 338 -221 q 360 -171 360 -199 m 731 454 l 611 454 l 611 549 q 603 583 611 575 q 568 592 594 592 l 274 592 q 239 583 247 592 q 231 549 231 575 l 231 125 q 239 90 231 97 q 274 82 247 82 l 568 82 q 603 90 594 82 q 611 125 611 97 l 611 219 l 731 219 l 731 110 q 621 0 731 0 l 221 0 q 111 110 111 0 l 111 564 q 221 674 111 674 l 621 674 q 731 564 731 674 l 731 454 z "},"è":{"ha":857,"x_min":111,"x_max":760,"o":"m 517 739 l 394 739 l 169 938 l 322 938 l 517 739 m 231 386 l 642 386 l 642 549 q 633 583 642 575 q 599 592 625 592 l 274 592 q 239 583 247 592 q 231 549 231 575 l 231 386 m 221 674 l 650 674 q 760 564 760 674 l 760 304 l 231 304 l 231 125 q 239 90 231 97 q 274 82 247 82 l 594 82 q 630 90 622 82 q 638 125 638 97 l 638 190 l 756 190 l 756 110 q 646 0 756 0 l 221 0 q 111 110 111 0 l 111 564 q 221 674 111 674 z "},"é":{"ha":857,"x_min":111,"x_max":760,"o":"m 738 938 l 513 739 l 390 739 l 585 938 l 738 938 m 231 386 l 642 386 l 642 549 q 633 583 642 575 q 599 592 625 592 l 274 592 q 239 583 247 592 q 231 549 231 575 l 231 386 m 221 674 l 650 674 q 760 564 760 674 l 760 304 l 231 304 l 231 125 q 239 90 231 97 q 274 82 247 82 l 594 82 q 630 90 622 82 q 638 125 638 97 l 638 190 l 756 190 l 756 110 q 646 0 756 0 l 221 0 q 111 110 111 0 l 111 564 q 221 674 111 674 z "},"ê":{"ha":857,"x_min":111,"x_max":760,"o":"m 439 879 l 279 739 l 139 739 l 369 938 l 508 938 l 739 739 l 599 739 l 439 879 m 231 386 l 642 386 l 642 549 q 633 583 642 575 q 599 592 625 592 l 274 592 q 239 583 247 592 q 231 549 231 575 l 231 386 m 221 674 l 650 674 q 760 564 760 674 l 760 304 l 231 304 l 231 125 q 239 90 231 97 q 274 82 247 82 l 594 82 q 630 90 622 82 q 638 125 638 97 l 638 190 l 756 190 l 756 110 q 646 0 756 0 l 221 0 q 111 110 111 0 l 111 564 q 221 674 111 674 z "},"ë":{"ha":857,"x_min":111,"x_max":760,"o":"m 338 854 l 338 739 l 167 739 l 167 854 l 338 854 m 699 854 l 699 739 l 528 739 l 528 854 l 699 854 m 221 674 l 650 674 q 760 564 760 674 l 760 304 l 231 304 l 231 125 q 239 90 231 97 q 274 82 247 82 l 594 82 q 630 90 622 82 q 638 125 638 97 l 638 190 l 756 190 l 756 110 q 646 0 756 0 l 221 0 q 111 110 111 0 l 111 564 q 221 674 111 674 m 231 386 l 642 386 l 642 549 q 633 583 642 575 q 599 592 625 592 l 274 592 q 239 583 247 592 q 231 549 231 575 l 231 386 z "},"ì":{"ha":397,"x_min":-97,"x_max":258,"o":"m 258 0 l 139 0 l 139 674 l 258 674 l 258 0 m 56 938 l 250 739 l 128 739 l -97 938 l 56 938 z "},"í":{"ha":397,"x_min":139,"x_max":493,"o":"m 258 0 l 139 0 l 139 674 l 258 674 l 258 0 m 146 739 l 340 938 l 493 938 l 268 739 l 146 739 z "},"î":{"ha":397,"x_min":-100,"x_max":500,"o":"m 258 0 l 139 0 l 139 674 l 258 674 l 258 0 m -100 739 l 131 938 l 269 938 l 500 739 l 360 739 l 200 879 l 40 739 l -100 739 z "},"ï":{"ha":397,"x_min":-60,"x_max":472,"o":"m 258 0 l 139 0 l 139 674 l 258 674 l 258 0 m 301 854 l 472 854 l 472 739 l 301 739 l 301 854 m -60 854 l 111 854 l 111 739 l -60 739 l -60 854 z "},"ð":{"ha":531,"x_min":142,"x_max":813,"o":"m 304 82 l 649 82 q 683 90 675 82 q 692 125 692 97 l 692 444 l 304 444 q 269 436 278 444 q 261 401 261 428 l 261 125 q 269 90 261 97 q 304 82 278 82 m 811 442 l 811 110 q 701 0 811 0 l 251 0 q 142 110 142 0 l 142 417 q 251 526 142 526 l 681 526 q 600 669 658 599 l 363 603 l 363 678 l 543 729 q 361 864 474 793 l 521 864 q 649 758 603 804 l 813 804 l 813 729 l 704 699 q 811 442 811 569 z "},"ñ":{"ha":871,"x_min":125,"x_max":760,"o":"m 261 817 l 261 739 l 157 739 l 157 821 q 258 928 157 928 l 278 928 q 446 873 319 928 q 595 818 572 818 q 624 824 618 818 q 629 851 629 831 l 629 928 l 732 928 l 732 846 q 710 766 732 793 q 633 739 688 739 l 608 739 q 440 794 565 739 q 285 849 315 849 q 261 817 261 849 m 322 674 l 650 674 q 760 564 760 674 l 760 0 l 640 0 l 640 549 q 633 583 640 575 q 597 592 625 592 l 293 592 q 257 581 268 592 q 246 543 246 569 l 246 497 l 244 497 l 244 0 l 125 0 l 125 674 l 244 674 l 244 625 q 322 674 260 674 z "},"ò":{"ha":861,"x_min":111,"x_max":750,"o":"m 501 739 l 379 739 l 154 938 l 307 938 l 501 739 m 632 125 l 632 549 q 624 583 632 575 q 589 592 617 592 l 272 592 q 237 583 244 592 q 229 549 229 575 l 229 125 q 237 90 229 97 q 272 82 244 82 l 589 82 q 624 90 617 82 q 632 125 632 97 m 221 674 l 640 674 q 750 564 750 674 l 750 110 q 640 0 750 0 l 221 0 q 111 110 111 0 l 111 564 q 221 674 111 674 z "},"ó":{"ha":861,"x_min":111,"x_max":750,"o":"m 736 938 l 511 739 l 389 739 l 583 938 l 736 938 m 632 125 l 632 549 q 624 583 632 575 q 589 592 617 592 l 272 592 q 237 583 244 592 q 229 549 229 575 l 229 125 q 237 90 229 97 q 272 82 244 82 l 589 82 q 624 90 617 82 q 632 125 632 97 m 221 674 l 640 674 q 750 564 750 674 l 750 110 q 640 0 750 0 l 221 0 q 111 110 111 0 l 111 564 q 221 674 111 674 z "},"ô":{"ha":861,"x_min":111,"x_max":750,"o":"m 432 879 l 272 739 l 132 739 l 363 938 l 501 938 l 732 739 l 592 739 l 432 879 m 632 125 l 632 549 q 624 583 632 575 q 589 592 617 592 l 272 592 q 237 583 244 592 q 229 549 229 575 l 229 125 q 237 90 229 97 q 272 82 244 82 l 589 82 q 624 90 617 82 q 632 125 632 97 m 221 674 l 640 674 q 750 564 750 674 l 750 110 q 640 0 750 0 l 221 0 q 111 110 111 0 l 111 564 q 221 674 111 674 z "},"õ":{"ha":861,"x_min":111,"x_max":750,"o":"m 254 817 l 254 739 l 150 739 l 150 821 q 251 928 150 928 l 271 928 q 440 873 314 928 q 589 818 567 818 q 617 824 611 818 q 622 851 622 831 l 622 928 l 725 928 l 725 846 q 703 766 725 793 q 626 739 681 739 l 601 739 q 433 794 558 739 q 278 849 308 849 q 254 817 254 849 m 632 125 l 632 549 q 624 583 632 575 q 589 592 617 592 l 272 592 q 237 583 244 592 q 229 549 229 575 l 229 125 q 237 90 229 97 q 272 82 244 82 l 589 82 q 624 90 617 82 q 632 125 632 97 m 221 674 l 640 674 q 750 564 750 674 l 750 110 q 640 0 750 0 l 221 0 q 111 110 111 0 l 111 564 q 221 674 111 674 z "},"ö":{"ha":861,"x_min":111,"x_max":750,"o":"m 221 674 l 640 674 q 750 564 750 674 l 750 110 q 640 0 750 0 l 221 0 q 111 110 111 0 l 111 564 q 221 674 111 674 m 632 549 q 624 583 632 575 q 589 592 617 592 l 272 592 q 237 583 244 592 q 229 549 229 575 l 229 125 q 237 90 229 97 q 272 82 244 82 l 589 82 q 624 90 617 82 q 632 125 632 97 l 632 549 m 169 854 l 340 854 l 340 739 l 169 739 l 169 854 m 531 854 l 701 854 l 701 739 l 531 739 l 531 854 z "},"÷":{"ha":889,"x_min":83,"x_max":806,"o":"m 83 385 l 83 479 l 806 479 l 806 385 l 83 385 m 383 700 l 506 700 l 506 586 l 383 586 l 383 700 m 383 278 l 506 278 l 506 164 l 383 164 l 383 278 z "},"ø":{"ha":889,"x_min":114,"x_max":790,"o":"m 650 119 l 650 529 l 288 75 l 606 75 q 642 83 633 75 q 650 119 650 92 m 240 556 l 240 128 l 617 599 l 285 599 q 249 591 257 599 q 240 556 240 583 m 764 564 l 764 110 q 654 0 764 0 l 228 0 l 203 -31 l 114 -31 l 157 24 q 125 110 125 51 l 125 564 q 235 674 125 674 l 654 674 q 676 672 669 674 l 701 704 l 790 704 l 740 642 q 764 564 764 614 z "},"ù":{"ha":871,"x_min":111,"x_max":746,"o":"m 517 739 l 394 739 l 169 938 l 322 938 l 517 739 m 626 674 l 746 674 l 746 0 l 626 0 l 626 44 q 550 0 608 0 l 221 0 q 111 110 111 0 l 111 674 l 231 674 l 231 125 q 239 90 231 97 q 274 82 247 82 l 579 82 q 615 93 604 82 q 626 131 626 104 l 626 674 z "},"ú":{"ha":871,"x_min":111,"x_max":746,"o":"m 721 938 l 496 739 l 374 739 l 568 938 l 721 938 m 626 674 l 746 674 l 746 0 l 626 0 l 626 44 q 550 0 608 0 l 221 0 q 111 110 111 0 l 111 674 l 231 674 l 231 125 q 239 90 231 97 q 274 82 247 82 l 579 82 q 615 93 604 82 q 626 131 626 104 l 626 674 z "},"û":{"ha":871,"x_min":111,"x_max":746,"o":"m 426 879 l 267 739 l 126 739 l 357 938 l 496 938 l 726 739 l 586 739 l 426 879 m 626 674 l 746 674 l 746 0 l 626 0 l 626 44 q 550 0 608 0 l 221 0 q 111 110 111 0 l 111 674 l 231 674 l 231 125 q 239 90 231 97 q 274 82 247 82 l 579 82 q 615 93 604 82 q 626 131 626 104 l 626 674 z "},"ü":{"ha":871,"x_min":111,"x_max":746,"o":"m 694 854 l 694 739 l 524 739 l 524 854 l 694 854 m 333 854 l 333 739 l 163 739 l 163 854 l 333 854 m 626 674 l 746 674 l 746 0 l 626 0 l 626 44 q 550 0 608 0 l 221 0 q 111 110 111 0 l 111 674 l 231 674 l 231 125 q 239 90 231 97 q 274 82 247 82 l 579 82 q 615 93 604 82 q 626 131 626 104 l 626 674 z "},"ý":{"ha":801,"x_min":50,"x_max":792,"o":"m 297 -196 l 165 -196 l 165 -114 l 257 -114 q 357 -62 331 -114 l 388 0 l 346 0 l 50 674 l 171 674 l 424 82 l 671 674 l 792 674 l 460 -76 q 399 -167 433 -137 q 297 -196 364 -196 m 383 739 l 578 938 l 731 938 l 506 739 l 383 739 z "},"þ":{"ha":869,"x_min":125,"x_max":758,"o":"m 639 139 l 639 561 q 631 597 639 589 q 596 604 622 604 l 292 604 q 256 593 267 604 q 244 556 244 582 l 244 144 q 256 107 244 118 q 292 96 267 96 l 596 96 q 631 103 622 96 q 639 139 639 111 m 321 686 l 649 686 q 758 576 758 686 l 758 124 q 649 14 758 14 l 321 14 q 244 58 263 14 l 244 -196 l 125 -196 l 125 929 l 244 929 l 244 642 q 321 686 263 686 z "},"ÿ":{"ha":801,"x_min":50,"x_max":792,"o":"m 297 -196 l 165 -196 l 165 -114 l 257 -114 q 357 -62 331 -114 l 388 0 l 346 0 l 50 674 l 171 674 l 424 82 l 671 674 l 792 674 l 460 -76 q 399 -167 433 -137 q 297 -196 364 -196 m 521 854 l 692 854 l 692 739 l 521 739 l 521 854 m 160 854 l 331 854 l 331 739 l 160 739 l 160 854 z "},"Ā":{"ha":947,"x_min":49,"x_max":899,"o":"m 715 1011 l 715 931 l 233 931 l 233 1011 l 715 1011 m 268 253 l 679 253 l 472 781 l 268 253 m 778 0 l 711 171 l 236 171 l 171 0 l 49 0 l 385 864 l 561 864 l 899 0 l 778 0 z "},"ā":{"ha":871,"x_min":111,"x_max":746,"o":"m 657 819 l 657 739 l 175 739 l 175 819 l 657 819 m 274 82 l 579 82 q 615 93 604 82 q 626 131 626 104 l 626 543 q 615 581 626 569 q 579 592 604 592 l 274 592 q 239 583 247 592 q 231 549 231 575 l 231 125 q 239 90 231 97 q 274 82 247 82 m 626 674 l 746 674 l 746 0 l 626 0 l 626 44 q 550 0 608 0 l 221 0 q 111 110 111 0 l 111 564 q 221 674 111 674 l 550 674 q 626 629 608 674 l 626 674 z "},"Ă":{"ha":947,"x_min":49,"x_max":899,"o":"m 638 929 l 308 929 q 199 1039 199 929 l 199 1121 l 308 1121 l 308 1050 q 317 1015 308 1022 q 351 1007 325 1007 l 594 1007 q 630 1015 622 1007 q 638 1050 638 1022 l 638 1121 l 747 1121 l 747 1039 q 638 929 747 929 m 268 253 l 679 253 l 472 781 l 268 253 m 778 0 l 711 171 l 236 171 l 171 0 l 49 0 l 385 864 l 561 864 l 899 0 l 778 0 z "},"ă":{"ha":871,"x_min":111,"x_max":746,"o":"m 594 739 l 265 739 q 156 849 156 739 l 156 931 l 265 931 l 265 860 q 273 825 265 833 q 308 817 281 817 l 551 817 q 586 825 578 817 q 594 860 594 833 l 594 931 l 704 931 l 704 849 q 594 739 704 739 m 274 82 l 579 82 q 615 93 604 82 q 626 131 626 104 l 626 543 q 615 581 626 569 q 579 592 604 592 l 274 592 q 239 583 247 592 q 231 549 231 575 l 231 125 q 239 90 231 97 q 274 82 247 82 m 626 674 l 746 674 l 746 0 l 626 0 l 626 44 q 550 0 608 0 l 221 0 q 111 110 111 0 l 111 564 q 221 674 111 674 l 550 674 q 626 629 608 674 l 626 674 z "},"Ą":{"ha":947,"x_min":49,"x_max":921,"o":"m 268 253 l 679 253 l 472 781 l 268 253 m 692 -240 l 921 -240 l 921 -315 l 657 -315 q 547 -206 547 -315 l 547 -160 q 657 -50 547 -50 l 778 -50 l 778 0 l 711 171 l 236 171 l 171 0 l 49 0 l 385 864 l 561 864 l 893 15 l 893 14 l 899 0 l 893 0 l 893 -124 l 692 -124 q 656 -131 664 -124 q 647 -165 647 -139 l 647 -199 q 656 -233 647 -225 q 692 -240 664 -240 z "},"ą":{"ha":871,"x_min":111,"x_max":769,"o":"m 274 82 l 579 82 q 615 93 604 82 q 626 131 626 104 l 626 543 q 615 581 626 569 q 579 592 604 592 l 274 592 q 239 583 247 592 q 231 549 231 575 l 231 125 q 239 90 231 97 q 274 82 247 82 m 540 -240 l 769 -240 l 769 -315 l 506 -315 q 396 -206 396 -315 l 396 -160 q 506 -50 396 -50 l 626 -50 l 626 44 q 550 0 608 0 l 221 0 q 111 110 111 0 l 111 564 q 221 674 111 674 l 550 674 q 626 629 608 674 l 626 674 l 746 674 l 746 0 l 742 0 l 742 -124 l 540 -124 q 504 -131 513 -124 q 496 -165 496 -139 l 496 -199 q 504 -233 496 -225 q 540 -240 513 -240 z "},"Ć":{"ha":894,"x_min":125,"x_max":811,"o":"m 750 1129 l 525 931 l 403 931 l 597 1129 l 750 1129 m 811 574 l 689 574 l 689 739 q 681 774 689 767 q 646 782 672 782 l 290 782 q 256 774 264 782 q 247 739 247 767 l 247 125 q 256 90 247 97 q 290 82 264 82 l 646 82 q 681 90 672 82 q 689 125 689 97 l 689 290 l 811 290 l 811 110 q 701 0 811 0 l 235 0 q 125 110 125 0 l 125 754 q 235 864 125 864 l 701 864 q 811 754 811 864 l 811 574 z "},"ć":{"ha":814,"x_min":111,"x_max":731,"o":"m 724 938 l 499 739 l 376 739 l 571 938 l 724 938 m 731 454 l 611 454 l 611 549 q 603 583 611 575 q 568 592 594 592 l 274 592 q 239 583 247 592 q 231 549 231 575 l 231 125 q 239 90 231 97 q 274 82 247 82 l 568 82 q 603 90 594 82 q 611 125 611 97 l 611 219 l 731 219 l 731 110 q 621 0 731 0 l 221 0 q 111 110 111 0 l 111 564 q 221 674 111 674 l 621 674 q 731 564 731 674 l 731 454 z "},"Č":{"ha":894,"x_min":125,"x_max":811,"o":"m 542 929 l 403 929 l 172 1128 l 313 1128 l 472 988 l 632 1128 l 772 1128 l 542 929 m 811 574 l 689 574 l 689 739 q 681 774 689 767 q 646 782 672 782 l 290 782 q 256 774 264 782 q 247 739 247 767 l 247 125 q 256 90 247 97 q 290 82 264 82 l 646 82 q 681 90 672 82 q 689 125 689 97 l 689 290 l 811 290 l 811 110 q 701 0 811 0 l 235 0 q 125 110 125 0 l 125 754 q 235 864 125 864 l 701 864 q 811 754 811 864 l 811 574 z "},"č":{"ha":814,"x_min":111,"x_max":731,"o":"m 486 739 l 347 739 l 117 938 l 257 938 l 417 797 l 576 938 l 717 938 l 486 739 m 731 454 l 611 454 l 611 549 q 603 583 611 575 q 568 592 594 592 l 274 592 q 239 583 247 592 q 231 549 231 575 l 231 125 q 239 90 231 97 q 274 82 247 82 l 568 82 q 603 90 594 82 q 611 125 611 97 l 611 219 l 731 219 l 731 110 q 621 0 731 0 l 221 0 q 111 110 111 0 l 111 564 q 221 674 111 674 l 621 674 q 731 564 731 674 l 731 454 z "},"Ď":{"ha":965,"x_min":139,"x_max":840,"o":"m 542 929 l 403 929 l 172 1128 l 313 1128 l 472 988 l 632 1128 l 772 1128 l 542 929 m 718 125 l 718 739 q 710 774 718 767 q 675 782 703 782 l 261 782 l 261 82 l 675 82 q 710 90 703 82 q 718 125 718 97 m 139 864 l 731 864 q 840 754 840 864 l 840 110 q 731 0 840 0 l 139 0 l 139 864 z "},"ď":{"ha":871,"x_min":111,"x_max":1011,"o":"m 626 929 l 746 929 l 746 0 l 626 0 l 626 44 q 550 0 608 0 l 221 0 q 111 110 111 0 l 111 564 q 221 674 111 674 l 550 674 q 626 629 608 674 l 626 929 m 878 929 l 1011 929 l 1011 868 l 922 694 l 878 694 l 878 929 m 274 82 l 579 82 q 615 93 604 82 q 626 131 626 104 l 626 543 q 615 581 626 569 q 579 592 604 592 l 274 592 q 239 583 247 592 q 231 549 231 575 l 231 125 q 239 90 231 97 q 274 82 247 82 z "},"Đ":{"ha":1049,"x_min":153,"x_max":924,"o":"m 801 125 l 801 739 q 794 774 801 767 q 758 782 786 782 l 347 782 l 347 476 l 633 476 l 633 393 l 347 393 l 347 82 l 758 82 q 794 90 786 82 q 801 125 801 97 m 225 864 l 814 864 q 924 754 924 864 l 924 110 q 814 0 924 0 l 225 0 l 225 393 l 153 393 l 153 476 l 225 476 l 225 864 z "},"đ":{"ha":871,"x_min":111,"x_max":840,"o":"m 274 82 l 579 82 q 615 93 604 82 q 626 131 626 104 l 626 543 q 615 581 626 569 q 579 592 604 592 l 274 592 q 239 583 247 592 q 231 549 231 575 l 231 125 q 239 90 231 97 q 274 82 247 82 m 840 832 l 840 750 l 746 750 l 746 0 l 626 0 l 626 44 q 550 0 608 0 l 221 0 q 111 110 111 0 l 111 564 q 221 674 111 674 l 550 674 q 626 629 608 674 l 626 750 l 258 750 l 258 832 l 626 832 l 626 929 l 746 929 l 746 832 l 840 832 z "},"Ē":{"ha":815,"x_min":139,"x_max":746,"o":"m 682 1010 l 682 929 l 200 929 l 200 1010 l 682 1010 m 263 82 l 746 82 l 746 0 l 139 0 l 139 864 l 726 864 l 726 782 l 263 782 l 263 483 l 669 483 l 669 401 l 263 401 l 263 82 z "},"ē":{"ha":857,"x_min":111,"x_max":760,"o":"m 671 819 l 671 739 l 189 739 l 189 819 l 671 819 m 231 386 l 642 386 l 642 549 q 633 583 642 575 q 599 592 625 592 l 274 592 q 239 583 247 592 q 231 549 231 575 l 231 386 m 221 674 l 650 674 q 760 564 760 674 l 760 304 l 231 304 l 231 125 q 239 90 231 97 q 274 82 247 82 l 594 82 q 630 90 622 82 q 638 125 638 97 l 638 190 l 756 190 l 756 110 q 646 0 756 0 l 221 0 q 111 110 111 0 l 111 564 q 221 674 111 674 z "},"Ė":{"ha":815,"x_min":139,"x_max":746,"o":"m 533 1057 l 533 931 l 385 931 l 385 1057 l 533 1057 m 263 82 l 746 82 l 746 0 l 139 0 l 139 864 l 726 864 l 726 782 l 263 782 l 263 483 l 669 483 l 669 401 l 263 401 l 263 82 z "},"ė":{"ha":857,"x_min":111,"x_max":760,"o":"m 521 865 l 521 739 l 372 739 l 372 865 l 521 865 m 231 386 l 642 386 l 642 549 q 633 583 642 575 q 599 592 625 592 l 274 592 q 239 583 247 592 q 231 549 231 575 l 231 386 m 221 674 l 650 674 q 760 564 760 674 l 760 304 l 231 304 l 231 125 q 239 90 231 97 q 274 82 247 82 l 594 82 q 630 90 622 82 q 638 125 638 97 l 638 190 l 756 190 l 756 110 q 646 0 756 0 l 221 0 q 111 110 111 0 l 111 564 q 221 674 111 674 z "},"Ę":{"ha":815,"x_min":139,"x_max":774,"o":"m 544 -240 l 774 -240 l 774 -315 l 510 -315 q 400 -206 400 -315 l 400 -160 q 510 -50 400 -50 l 631 -50 l 631 0 l 139 0 l 139 864 l 726 864 l 726 782 l 263 782 l 263 483 l 669 483 l 669 401 l 263 401 l 263 82 l 746 82 l 746 -124 l 544 -124 q 508 -131 517 -124 q 500 -165 500 -139 l 500 -199 q 508 -233 500 -225 q 544 -240 517 -240 z "},"ę":{"ha":857,"x_min":111,"x_max":760,"o":"m 231 386 l 642 386 l 642 549 q 633 583 642 575 q 599 592 625 592 l 274 592 q 239 583 247 592 q 231 549 231 575 l 231 386 m 221 674 l 650 674 q 760 564 760 674 l 760 304 l 231 304 l 231 125 q 239 90 231 97 q 274 82 247 82 l 594 82 q 630 90 622 82 q 638 125 638 97 l 638 190 l 756 190 l 756 110 q 646 0 756 0 l 500 0 l 500 -124 l 299 -124 q 263 -131 271 -124 q 254 -165 254 -139 l 254 -199 q 263 -233 254 -225 q 299 -240 271 -240 l 528 -240 l 528 -315 l 264 -315 q 154 -206 154 -315 l 154 -160 q 264 -50 154 -50 l 385 -50 l 385 0 l 221 0 q 111 110 111 0 l 111 564 q 221 674 111 674 z "},"Ě":{"ha":815,"x_min":139,"x_max":758,"o":"m 528 929 l 389 929 l 158 1128 l 299 1128 l 458 988 l 618 1128 l 758 1128 l 528 929 m 263 401 l 263 82 l 746 82 l 746 0 l 139 0 l 139 864 l 726 864 l 726 782 l 263 782 l 263 483 l 669 483 l 669 401 l 263 401 z "},"ě":{"ha":857,"x_min":111,"x_max":760,"o":"m 501 739 l 363 739 l 132 938 l 272 938 l 432 797 l 592 938 l 732 938 l 501 739 m 231 386 l 642 386 l 642 549 q 633 583 642 575 q 599 592 625 592 l 274 592 q 239 583 247 592 q 231 549 231 575 l 231 386 m 221 674 l 650 674 q 760 564 760 674 l 760 304 l 231 304 l 231 125 q 239 90 231 97 q 274 82 247 82 l 594 82 q 630 90 622 82 q 638 125 638 97 l 638 190 l 756 190 l 756 110 q 646 0 756 0 l 221 0 q 111 110 111 0 l 111 564 q 221 674 111 674 z "},"Ğ":{"ha":924,"x_min":125,"x_max":813,"o":"m 625 929 l 296 929 q 186 1039 186 929 l 186 1121 l 296 1121 l 296 1050 q 303 1015 296 1022 q 339 1007 311 1007 l 582 1007 q 617 1015 608 1007 q 625 1050 625 1022 l 625 1121 l 735 1121 l 735 1039 q 625 929 735 929 m 813 603 l 690 603 l 690 739 q 683 774 690 767 q 647 782 675 782 l 290 782 q 256 774 264 782 q 247 739 247 767 l 247 125 q 256 90 247 97 q 290 82 264 82 l 649 82 q 683 90 675 82 q 692 125 692 97 l 692 363 l 457 363 l 457 444 l 813 444 l 813 110 q 703 0 813 0 l 235 0 q 125 110 125 0 l 125 754 q 235 864 125 864 l 703 864 q 813 754 813 864 l 813 603 z "},"ğ":{"ha":857,"x_min":111,"x_max":747,"o":"m 608 739 l 279 739 q 169 849 169 739 l 169 931 l 279 931 l 279 860 q 287 825 279 833 q 322 817 294 817 l 565 817 q 600 825 592 817 q 608 860 608 833 l 608 931 l 718 931 l 718 849 q 608 739 718 739 m 274 82 l 579 82 q 615 93 604 82 q 626 131 626 104 l 626 543 q 615 581 626 569 q 579 592 604 592 l 274 592 q 239 583 247 592 q 231 549 231 575 l 231 125 q 239 90 231 97 q 274 82 247 82 m 746 18 l 747 18 l 747 -86 q 638 -196 747 -196 l 135 -196 l 135 -114 l 585 -114 q 619 -106 611 -114 q 628 -71 628 -97 l 628 3 l 626 3 l 626 44 q 550 0 608 0 l 221 0 q 111 110 111 0 l 111 564 q 221 674 111 674 l 550 674 q 626 629 608 674 l 626 674 l 746 674 l 746 18 z "},"Ģ":{"ha":924,"x_min":125,"x_max":813,"o":"m 392 -304 l 392 -69 l 525 -69 l 525 -131 l 436 -304 l 392 -304 m 813 603 l 690 603 l 690 739 q 683 774 690 767 q 647 782 675 782 l 290 782 q 256 774 264 782 q 247 739 247 767 l 247 125 q 256 90 247 97 q 290 82 264 82 l 649 82 q 683 90 675 82 q 692 125 692 97 l 692 363 l 457 363 l 457 444 l 813 444 l 813 110 q 703 0 813 0 l 235 0 q 125 110 125 0 l 125 754 q 235 864 125 864 l 703 864 q 813 754 813 864 l 813 603 z "},"ģ":{"ha":857,"x_min":111,"x_max":747,"o":"m 539 972 l 539 738 l 406 738 l 406 799 l 494 972 l 539 972 m 274 82 l 579 82 q 615 93 604 82 q 626 131 626 104 l 626 543 q 615 581 626 569 q 579 592 604 592 l 274 592 q 239 583 247 592 q 231 549 231 575 l 231 125 q 239 90 231 97 q 274 82 247 82 m 746 18 l 747 18 l 747 -86 q 638 -196 747 -196 l 135 -196 l 135 -114 l 585 -114 q 619 -106 611 -114 q 628 -71 628 -97 l 628 3 l 626 3 l 626 44 q 550 0 608 0 l 221 0 q 111 110 111 0 l 111 564 q 221 674 111 674 l 550 674 q 626 629 608 674 l 626 674 l 746 674 l 746 18 z "},"Ī":{"ha":428,"x_min":-19,"x_max":463,"o":"m 153 864 l 275 864 l 275 0 l 153 0 l 153 864 m -19 929 l -19 1010 l 463 1010 l 463 929 l -19 929 z "},"ī":{"ha":397,"x_min":-35,"x_max":447,"o":"m 258 0 l 139 0 l 139 674 l 258 674 l 258 0 m -35 739 l -35 819 l 447 819 l 447 739 l -35 739 z "},"Į":{"ha":428,"x_min":-78,"x_max":296,"o":"m 67 -240 l 296 -240 l 296 -315 l 32 -315 q -78 -206 -78 -315 l -78 -160 q 32 -50 -78 -50 l 153 -50 l 153 864 l 275 864 l 275 0 l 268 0 l 268 -124 l 67 -124 q 31 -131 39 -124 q 22 -165 22 -139 l 22 -199 q 31 -233 22 -225 q 67 -240 39 -240 z "},"į":{"ha":397,"x_min":-92,"x_max":282,"o":"m 263 931 l 263 811 l 136 811 l 136 931 l 263 931 m 53 -240 l 282 -240 l 282 -315 l 18 -315 q -92 -206 -92 -315 l -92 -160 q 18 -50 -92 -50 l 139 -50 l 139 674 l 258 674 l 258 0 l 254 0 l 254 -124 l 53 -124 q 17 -131 25 -124 q 8 -165 8 -139 l 8 -199 q 17 -233 8 -225 q 53 -240 25 -240 z "},"İ":{"ha":397,"x_min":124,"x_max":272,"o":"m 139 674 l 258 674 l 258 0 l 139 0 l 139 674 m 124 865 l 272 865 l 272 739 l 124 739 l 124 865 z "},"ı":{"ha":397,"x_min":139,"x_max":258,"o":"m 139 674 l 258 674 l 258 0 l 139 0 l 139 674 z "},"Ķ":{"ha":926,"x_min":139,"x_max":896,"o":"m 139 864 l 258 864 l 258 0 l 139 0 l 139 864 m 726 864 l 876 864 l 444 442 l 896 0 l 742 0 l 296 442 l 726 864 m 419 -304 l 419 -69 l 553 -69 l 553 -131 l 464 -304 l 419 -304 z "},"ķ":{"ha":838,"x_min":125,"x_max":808,"o":"m 125 0 l 125 929 l 244 929 l 244 0 l 125 0 m 350 -304 l 350 -69 l 483 -69 l 483 -131 l 394 -304 l 350 -304 m 808 674 l 439 340 l 808 0 l 650 0 l 286 340 l 650 674 l 808 674 z "},"Ĺ":{"ha":749,"x_min":139,"x_max":707,"o":"m 503 1128 l 278 929 l 156 929 l 350 1128 l 503 1128 m 260 82 l 707 82 l 707 0 l 139 0 l 139 864 l 260 864 l 260 82 z "},"ĺ":{"ha":397,"x_min":139,"x_max":494,"o":"m 147 994 l 342 1193 l 494 1193 l 269 994 l 147 994 m 258 0 l 139 0 l 139 929 l 258 929 l 258 0 z "},"Ļ":{"ha":749,"x_min":139,"x_max":707,"o":"m 354 -304 l 354 -69 l 488 -69 l 488 -131 l 399 -304 l 354 -304 m 260 82 l 707 82 l 707 0 l 139 0 l 139 864 l 260 864 l 260 82 z "},"ļ":{"ha":397,"x_min":131,"x_max":264,"o":"m 258 0 l 139 0 l 139 929 l 258 929 l 258 0 m 131 -304 l 131 -69 l 264 -69 l 264 -131 l 175 -304 l 131 -304 z "},"Ľ":{"ha":749,"x_min":-97,"x_max":707,"o":"m 503 1129 l 272 931 l 133 931 l -97 1129 l 43 1129 l 203 989 l 363 1129 l 503 1129 m 260 82 l 707 82 l 707 0 l 139 0 l 139 864 l 260 864 l 260 82 z "},"ľ":{"ha":397,"x_min":139,"x_max":525,"o":"m 139 929 l 258 929 l 258 0 l 139 0 l 139 929 m 392 928 l 525 928 l 525 867 l 436 693 l 392 693 l 392 928 z "},"Ł":{"ha":749,"x_min":-29,"x_max":707,"o":"m 260 82 l 707 82 l 707 0 l 139 0 l 139 347 l -29 290 l -29 375 l 139 431 l 139 864 l 260 864 l 260 472 l 494 550 l 494 467 l 260 388 l 260 82 z "},"ł":{"ha":397,"x_min":-18,"x_max":422,"o":"m 258 0 l 139 0 l 139 411 l -18 358 l -18 443 l 139 496 l 139 929 l 258 929 l 258 536 l 422 590 l 422 507 l 258 451 l 258 0 z "},"Ń":{"ha":999,"x_min":139,"x_max":860,"o":"m 461 926 l 656 1125 l 808 1125 l 583 926 l 461 926 m 749 864 l 860 864 l 860 0 l 738 0 l 250 721 l 250 0 l 139 0 l 139 864 l 268 864 l 749 150 l 749 864 z "},"ń":{"ha":871,"x_min":125,"x_max":792,"o":"m 792 938 l 567 739 l 444 739 l 639 938 l 792 938 m 322 674 l 650 674 q 760 564 760 674 l 760 0 l 640 0 l 640 549 q 633 583 640 575 q 597 592 625 592 l 293 592 q 257 581 268 592 q 246 543 246 569 l 246 497 l 244 497 l 244 0 l 125 0 l 125 674 l 244 674 l 244 625 q 322 674 260 674 z "},"Ņ":{"ha":999,"x_min":139,"x_max":860,"o":"m 749 864 l 860 864 l 860 0 l 738 0 l 250 721 l 250 0 l 139 0 l 139 864 l 268 864 l 749 150 l 749 864 m 433 -304 l 433 -69 l 567 -69 l 567 -131 l 478 -304 l 433 -304 z "},"ņ":{"ha":871,"x_min":125,"x_max":760,"o":"m 374 -304 l 374 -69 l 507 -69 l 507 -131 l 418 -304 l 374 -304 m 322 674 l 650 674 q 760 564 760 674 l 760 0 l 640 0 l 640 549 q 633 583 640 575 q 597 592 625 592 l 293 592 q 257 581 268 592 q 246 543 246 569 l 246 497 l 244 497 l 244 0 l 125 0 l 125 674 l 244 674 l 244 625 q 322 674 260 674 z "},"Ň":{"ha":999,"x_min":139,"x_max":860,"o":"m 444 929 l 214 1128 l 354 1128 l 514 988 l 674 1128 l 814 1128 l 583 929 l 444 929 m 749 864 l 860 864 l 860 0 l 738 0 l 250 721 l 250 0 l 139 0 l 139 864 l 268 864 l 749 150 l 749 864 z "},"ň":{"ha":871,"x_min":125,"x_max":760,"o":"m 528 739 l 389 739 l 158 938 l 299 938 l 458 797 l 618 938 l 758 938 l 528 739 m 322 674 l 650 674 q 760 564 760 674 l 760 0 l 640 0 l 640 549 q 633 583 640 575 q 597 592 625 592 l 293 592 q 257 581 268 592 q 246 543 246 569 l 246 497 l 244 497 l 244 0 l 125 0 l 125 674 l 244 674 l 244 625 q 322 674 260 674 z "},"Ō":{"ha":924,"x_min":125,"x_max":799,"o":"m 225 931 l 225 1011 l 707 1011 l 707 931 l 225 931 m 799 754 l 799 110 q 689 0 799 0 l 235 0 q 125 110 125 0 l 125 754 q 235 864 125 864 l 689 864 q 799 754 799 864 m 679 125 l 679 739 q 672 774 679 767 q 636 782 664 782 l 289 782 q 253 774 261 782 q 246 739 246 767 l 246 125 q 253 90 246 97 q 289 82 261 82 l 636 82 q 672 90 664 82 q 679 125 679 97 z "},"ō":{"ha":861,"x_min":111,"x_max":750,"o":"m 667 819 l 667 739 l 185 739 l 185 819 l 667 819 m 632 125 l 632 549 q 624 583 632 575 q 589 592 617 592 l 272 592 q 237 583 244 592 q 229 549 229 575 l 229 125 q 237 90 229 97 q 272 82 244 82 l 589 82 q 624 90 617 82 q 632 125 632 97 m 221 674 l 640 674 q 750 564 750 674 l 750 110 q 640 0 750 0 l 221 0 q 111 110 111 0 l 111 564 q 221 674 111 674 z "},"Ő":{"ha":924,"x_min":125,"x_max":919,"o":"m 235 864 l 689 864 q 799 754 799 864 l 799 110 q 689 0 799 0 l 235 0 q 125 110 125 0 l 125 754 q 235 864 125 864 m 679 739 q 672 774 679 767 q 636 782 664 782 l 289 782 q 253 774 261 782 q 246 739 246 767 l 246 125 q 253 90 246 97 q 289 82 261 82 l 636 82 q 672 90 664 82 q 679 125 679 97 l 679 739 m 489 1156 l 628 1156 l 389 929 l 281 929 l 489 1156 m 781 1156 l 919 1156 l 681 929 l 572 929 l 781 1156 z "},"ő":{"ha":861,"x_min":111,"x_max":882,"o":"m 221 674 l 640 674 q 750 564 750 674 l 750 110 q 640 0 750 0 l 221 0 q 111 110 111 0 l 111 564 q 221 674 111 674 m 632 549 q 624 583 632 575 q 589 592 617 592 l 272 592 q 237 583 244 592 q 229 549 229 575 l 229 125 q 237 90 229 97 q 272 82 244 82 l 589 82 q 624 90 617 82 q 632 125 632 97 l 632 549 m 451 965 l 590 965 l 351 739 l 243 739 l 451 965 m 743 965 l 882 965 l 643 739 l 535 739 l 743 965 z "},"Œ":{"ha":1326,"x_min":125,"x_max":1243,"o":"m 682 125 l 682 739 q 674 774 682 767 q 639 782 667 782 l 289 782 q 253 774 261 782 q 246 739 246 767 l 246 125 q 253 90 246 97 q 289 82 261 82 l 639 82 q 674 90 667 82 q 682 125 682 97 m 810 82 l 1243 82 l 1243 0 l 710 0 l 710 24 q 629 0 682 0 l 235 0 q 125 110 125 0 l 125 754 q 235 864 125 864 l 629 864 q 710 840 682 864 l 710 864 l 1226 864 l 1226 782 l 810 782 l 810 483 l 1182 483 l 1182 401 l 810 401 l 810 82 z "},"œ":{"ha":1329,"x_min":111,"x_max":1232,"o":"m 732 386 l 1114 386 l 1114 549 q 1106 583 1114 575 q 1071 592 1097 592 l 775 592 q 740 583 747 592 q 732 549 732 575 l 732 386 m 613 124 l 613 550 q 567 592 613 592 l 275 592 q 240 583 247 592 q 232 549 232 575 l 232 125 q 240 90 232 97 q 275 82 247 82 l 567 82 q 613 124 613 82 m 754 674 l 1122 674 q 1232 564 1232 674 l 1232 304 l 732 304 l 732 125 q 740 90 732 97 q 775 82 747 82 l 1067 82 q 1102 90 1094 82 q 1110 125 1110 97 l 1110 190 l 1229 190 l 1229 110 q 1119 0 1229 0 l 753 0 q 668 53 685 0 q 579 0 654 0 l 221 0 q 111 110 111 0 l 111 564 q 221 674 111 674 l 579 674 q 669 621 653 674 q 697 658 675 643 q 754 674 719 674 z "},"Ŕ":{"ha":954,"x_min":139,"x_max":846,"o":"m 764 1125 l 539 926 l 417 926 l 611 1125 l 764 1125 m 260 782 l 260 392 l 681 392 q 716 400 708 392 q 724 435 724 408 l 724 739 q 716 774 724 767 q 681 782 708 782 l 260 782 m 260 310 l 260 0 l 139 0 l 139 864 l 733 864 q 843 754 843 864 l 843 419 q 733 310 843 310 l 651 310 l 846 0 l 721 0 l 528 310 l 260 310 z "},"ŕ":{"ha":511,"x_min":125,"x_max":639,"o":"m 639 939 l 414 740 l 292 740 l 486 939 l 639 939 m 244 674 l 244 589 q 353 674 267 674 l 497 674 l 497 589 l 335 589 q 244 485 244 589 l 244 0 l 125 0 l 125 674 l 244 674 z "},"Ŗ":{"ha":954,"x_min":139,"x_max":846,"o":"m 406 -304 l 406 -69 l 539 -69 l 539 -131 l 450 -304 l 406 -304 m 260 782 l 260 392 l 681 392 q 716 400 708 392 q 724 435 724 408 l 724 739 q 716 774 724 767 q 681 782 708 782 l 260 782 m 260 310 l 260 0 l 139 0 l 139 864 l 733 864 q 843 754 843 864 l 843 419 q 733 310 843 310 l 651 310 l 846 0 l 721 0 l 528 310 l 260 310 z "},"ŗ":{"ha":511,"x_min":115,"x_max":497,"o":"m 115 -304 l 115 -69 l 249 -69 l 249 -131 l 160 -304 l 115 -304 m 353 674 l 497 674 l 497 589 l 335 589 q 244 485 244 589 l 244 0 l 125 0 l 125 674 l 244 674 l 244 589 q 353 674 267 674 z "},"Ř":{"ha":954,"x_min":139,"x_max":846,"o":"m 556 926 l 417 926 l 186 1125 l 326 1125 l 486 985 l 646 1125 l 786 1125 l 556 926 m 260 782 l 260 392 l 681 392 q 716 400 708 392 q 724 435 724 408 l 724 739 q 716 774 724 767 q 681 782 708 782 l 260 782 m 260 310 l 260 0 l 139 0 l 139 864 l 733 864 q 843 754 843 864 l 843 419 q 733 310 843 310 l 651 310 l 846 0 l 721 0 l 528 310 l 260 310 z "},"ř":{"ha":511,"x_min":22,"x_max":622,"o":"m 392 740 l 253 740 l 22 939 l 163 939 l 322 799 l 482 939 l 622 939 l 392 740 m 244 674 l 244 589 q 353 674 267 674 l 497 674 l 497 589 l 335 589 q 244 485 244 589 l 244 0 l 125 0 l 125 674 l 244 674 z "},"Ś":{"ha":900,"x_min":111,"x_max":789,"o":"m 403 926 l 597 1125 l 750 1125 l 525 926 l 403 926 m 668 125 l 668 351 q 660 386 668 378 q 625 394 653 394 l 221 394 q 111 504 111 394 l 111 754 q 221 864 111 864 l 675 864 q 785 754 785 864 l 785 617 l 663 617 l 663 739 q 655 774 663 767 q 619 782 647 782 l 276 782 q 242 774 250 782 q 233 739 233 767 l 233 519 q 242 484 233 492 q 276 476 250 476 l 679 476 q 789 367 789 476 l 789 110 q 679 0 789 0 l 224 0 q 114 110 114 0 l 114 247 l 236 247 l 236 125 q 244 90 236 97 q 279 82 253 82 l 625 82 q 660 90 653 82 q 668 125 668 97 z "},"ś":{"ha":800,"x_min":111,"x_max":722,"o":"m 375 739 l 569 938 l 722 938 l 497 739 l 375 739 m 585 124 l 585 251 q 577 286 585 278 q 542 294 569 294 l 221 294 q 111 404 111 294 l 111 564 q 221 674 111 674 l 590 674 q 700 564 700 674 l 700 492 l 583 492 l 583 550 q 575 585 583 578 q 540 593 567 593 l 272 593 q 237 585 244 593 q 229 550 229 578 l 229 419 q 237 384 229 392 q 272 376 244 376 l 593 376 q 703 267 703 376 l 703 110 q 593 0 703 0 l 224 0 q 114 110 114 0 l 114 182 l 232 182 l 232 124 q 240 89 232 97 q 275 81 247 81 l 542 81 q 577 89 569 81 q 585 124 585 97 z "},"Ş":{"ha":900,"x_min":111,"x_max":789,"o":"m 668 125 l 668 351 q 660 386 668 378 q 625 394 653 394 l 221 394 q 111 504 111 394 l 111 754 q 221 864 111 864 l 675 864 q 785 754 785 864 l 785 617 l 663 617 l 663 739 q 655 774 663 767 q 619 782 647 782 l 276 782 q 242 774 250 782 q 233 739 233 767 l 233 519 q 242 484 233 492 q 276 476 250 476 l 679 476 q 789 367 789 476 l 789 110 q 679 0 789 0 l 224 0 q 114 110 114 0 l 114 247 l 236 247 l 236 125 q 244 90 236 97 q 279 82 253 82 l 625 82 q 660 90 653 82 q 668 125 668 97 m 378 -304 l 378 -69 l 511 -69 l 511 -131 l 422 -304 l 378 -304 z "},"ş":{"ha":800,"x_min":111,"x_max":703,"o":"m 585 124 l 585 251 q 577 286 585 278 q 542 294 569 294 l 221 294 q 111 404 111 294 l 111 564 q 221 674 111 674 l 590 674 q 700 564 700 674 l 700 492 l 583 492 l 583 550 q 575 585 583 578 q 540 593 567 593 l 272 593 q 237 585 244 593 q 229 550 229 578 l 229 419 q 237 384 229 392 q 272 376 244 376 l 593 376 q 703 267 703 376 l 703 110 q 593 0 703 0 l 224 0 q 114 110 114 0 l 114 182 l 232 182 l 232 124 q 240 89 232 97 q 275 81 247 81 l 542 81 q 577 89 569 81 q 585 124 585 97 m 331 -304 l 331 -69 l 464 -69 l 464 -131 l 375 -304 l 331 -304 z "},"Š":{"ha":900,"x_min":111,"x_max":789,"o":"m 389 926 l 158 1125 l 299 1125 l 458 985 l 618 1125 l 758 1125 l 528 926 l 389 926 m 668 125 l 668 351 q 660 386 668 378 q 625 394 653 394 l 221 394 q 111 504 111 394 l 111 754 q 221 864 111 864 l 675 864 q 785 754 785 864 l 785 617 l 663 617 l 663 739 q 655 774 663 767 q 619 782 647 782 l 276 782 q 242 774 250 782 q 233 739 233 767 l 233 519 q 242 484 233 492 q 276 476 250 476 l 679 476 q 789 367 789 476 l 789 110 q 679 0 789 0 l 224 0 q 114 110 114 0 l 114 247 l 236 247 l 236 125 q 244 90 236 97 q 279 82 253 82 l 625 82 q 660 90 653 82 q 668 125 668 97 z "},"š":{"ha":800,"x_min":111,"x_max":717,"o":"m 347 739 l 117 938 l 257 938 l 417 797 l 576 938 l 717 938 l 486 739 l 347 739 m 585 124 l 585 251 q 577 286 585 278 q 542 294 569 294 l 221 294 q 111 404 111 294 l 111 564 q 221 674 111 674 l 590 674 q 700 564 700 674 l 700 492 l 583 492 l 583 550 q 575 585 583 578 q 540 593 567 593 l 272 593 q 237 585 244 593 q 229 550 229 578 l 229 419 q 237 384 229 392 q 272 376 244 376 l 593 376 q 703 267 703 376 l 703 110 q 593 0 703 0 l 224 0 q 114 110 114 0 l 114 182 l 232 182 l 232 124 q 240 89 232 97 q 275 81 247 81 l 542 81 q 577 89 569 81 q 585 124 585 97 z "},"Ţ":{"ha":785,"x_min":14,"x_max":771,"o":"m 322 -304 l 322 -69 l 456 -69 l 456 -131 l 367 -304 l 322 -304 m 14 864 l 771 864 l 771 782 l 453 782 l 453 0 l 332 0 l 332 782 l 14 782 l 14 864 z "},"ţ":{"ha":785,"x_min":14,"x_max":771,"o":"m 324 -304 l 324 -69 l 457 -69 l 457 -131 l 368 -304 l 324 -304 m 14 864 l 771 864 l 771 782 l 453 782 l 453 0 l 332 0 l 332 782 l 14 782 l 14 864 z "},"Ť":{"ha":785,"x_min":14,"x_max":771,"o":"m 465 926 l 326 926 l 96 1125 l 236 1125 l 396 985 l 556 1125 l 696 1125 l 465 926 m 771 864 l 771 782 l 453 782 l 453 0 l 332 0 l 332 782 l 14 782 l 14 864 l 771 864 z "},"ť":{"ha":508,"x_min":56,"x_max":497,"o":"m 283 790 l 283 674 l 453 674 l 453 592 l 283 592 l 283 132 q 292 97 283 106 q 326 89 300 89 l 451 89 l 451 0 l 274 0 q 164 110 164 0 l 164 592 l 56 592 l 56 674 l 164 674 l 164 790 l 283 790 m 364 1004 l 497 1004 l 497 943 l 408 769 l 364 769 l 364 1004 z "},"Ū":{"ha":949,"x_min":125,"x_max":824,"o":"m 246 864 l 246 125 q 253 90 246 97 q 289 82 261 82 l 661 82 q 697 90 689 82 q 704 125 704 97 l 704 864 l 824 864 l 824 110 q 714 0 824 0 l 235 0 q 125 110 125 0 l 125 864 l 246 864 m 231 929 l 231 1010 l 713 1010 l 713 929 l 231 929 z "},"ū":{"ha":871,"x_min":111,"x_max":746,"o":"m 667 821 l 667 740 l 185 740 l 185 821 l 667 821 m 626 674 l 746 674 l 746 0 l 626 0 l 626 44 q 550 0 608 0 l 221 0 q 111 110 111 0 l 111 674 l 231 674 l 231 125 q 239 90 231 97 q 274 82 247 82 l 579 82 q 615 93 604 82 q 626 131 626 104 l 626 674 z "},"Ů":{"ha":949,"x_min":125,"x_max":824,"o":"m 696 1076 l 696 1022 q 604 931 696 931 l 358 931 q 267 1022 267 931 l 267 1076 q 358 1168 267 1168 l 604 1168 q 696 1076 696 1168 m 611 1035 l 611 1064 q 604 1096 611 1089 q 572 1103 597 1103 l 390 1103 q 358 1096 365 1103 q 351 1064 351 1089 l 351 1035 q 358 1003 351 1010 q 390 996 365 996 l 572 996 q 604 1003 597 996 q 611 1035 611 1010 m 246 864 l 246 125 q 253 90 246 97 q 289 82 261 82 l 661 82 q 697 90 689 82 q 704 125 704 97 l 704 864 l 824 864 l 824 110 q 714 0 824 0 l 235 0 q 125 110 125 0 l 125 864 l 246 864 z "},"ů":{"ha":871,"x_min":111,"x_max":746,"o":"m 296 872 l 296 843 q 303 811 296 818 q 335 804 310 804 l 517 804 q 549 811 542 804 q 556 843 556 818 l 556 872 q 549 904 556 897 q 517 911 542 911 l 335 911 q 303 904 310 911 q 296 872 296 897 m 549 739 l 303 739 q 211 831 211 739 l 211 885 q 303 976 211 976 l 549 976 q 640 885 640 976 l 640 831 q 549 739 640 739 m 626 674 l 746 674 l 746 0 l 626 0 l 626 44 q 550 0 608 0 l 221 0 q 111 110 111 0 l 111 674 l 231 674 l 231 125 q 239 90 231 97 q 274 82 247 82 l 579 82 q 615 93 604 82 q 626 131 626 104 l 626 674 z "},"Ű":{"ha":949,"x_min":125,"x_max":915,"o":"m 246 864 l 246 125 q 253 90 246 97 q 289 82 261 82 l 661 82 q 697 90 689 82 q 704 125 704 97 l 704 864 l 824 864 l 824 110 q 714 0 824 0 l 235 0 q 125 110 125 0 l 125 864 l 246 864 m 776 1153 l 915 1153 l 676 926 l 568 926 l 776 1153 m 485 1153 l 624 1153 l 385 926 l 276 926 l 485 1153 z "},"ű":{"ha":871,"x_min":111,"x_max":869,"o":"m 631 740 l 522 740 l 731 967 l 869 967 l 631 740 m 578 967 l 339 740 l 231 740 l 439 967 l 578 967 m 626 674 l 746 674 l 746 0 l 626 0 l 626 44 q 550 0 608 0 l 221 0 q 111 110 111 0 l 111 674 l 231 674 l 231 125 q 239 90 231 97 q 274 82 247 82 l 579 82 q 615 93 604 82 q 626 131 626 104 l 626 674 z "},"Ų":{"ha":949,"x_min":125,"x_max":824,"o":"m 704 864 l 824 864 l 824 110 q 714 0 824 0 l 528 0 l 528 -124 l 326 -124 q 290 -131 299 -124 q 282 -165 282 -139 l 282 -199 q 290 -233 282 -225 q 326 -240 299 -240 l 556 -240 l 556 -315 l 292 -315 q 182 -206 182 -315 l 182 -160 q 292 -50 182 -50 l 413 -50 l 413 0 l 235 0 q 125 110 125 0 l 125 864 l 246 864 l 246 125 q 253 90 246 97 q 289 82 261 82 l 661 82 q 697 90 689 82 q 704 125 704 97 l 704 864 z "},"ų":{"ha":871,"x_min":111,"x_max":769,"o":"m 540 -240 l 769 -240 l 769 -315 l 506 -315 q 396 -206 396 -315 l 396 -160 q 506 -50 396 -50 l 626 -50 l 626 44 q 550 0 608 0 l 221 0 q 111 110 111 0 l 111 674 l 231 674 l 231 125 q 239 90 231 97 q 274 82 247 82 l 579 82 q 615 93 604 82 q 626 131 626 104 l 626 674 l 746 674 l 746 0 l 742 0 l 742 -124 l 540 -124 q 504 -131 513 -124 q 496 -165 496 -139 l 496 -199 q 504 -233 496 -225 q 540 -240 513 -240 z "},"Ÿ":{"ha":875,"x_min":13,"x_max":863,"o":"m 349 1044 l 349 929 l 178 929 l 178 1044 l 349 1044 m 710 1044 l 710 929 l 539 929 l 539 1044 l 710 1044 m 506 0 l 385 0 l 385 279 l 13 864 l 138 864 l 444 381 l 739 864 l 863 864 l 506 279 l 506 0 z "},"Ź":{"ha":872,"x_min":83,"x_max":789,"o":"m 750 1128 l 525 929 l 403 929 l 597 1128 l 750 1128 m 789 864 l 789 782 l 222 82 l 775 82 l 775 0 l 83 0 l 83 82 l 650 782 l 97 782 l 97 864 l 789 864 z "},"ź":{"ha":707,"x_min":83,"x_max":681,"o":"m 681 939 l 456 740 l 333 740 l 528 939 l 681 939 m 101 592 l 101 674 l 624 674 l 624 592 l 211 82 l 624 82 l 624 0 l 83 0 l 83 82 l 496 592 l 101 592 z "},"Ż":{"ha":872,"x_min":83,"x_max":789,"o":"m 532 1056 l 532 929 l 383 929 l 383 1056 l 532 1056 m 789 864 l 789 782 l 222 82 l 775 82 l 775 0 l 83 0 l 83 82 l 650 782 l 97 782 l 97 864 l 789 864 z "},"ż":{"ha":707,"x_min":83,"x_max":624,"o":"m 446 865 l 446 739 l 297 739 l 297 865 l 446 865 m 624 674 l 624 592 l 211 82 l 624 82 l 624 0 l 83 0 l 83 82 l 496 592 l 101 592 l 101 674 l 624 674 z "},"Ž":{"ha":872,"x_min":83,"x_max":789,"o":"m 514 929 l 375 929 l 144 1128 l 285 1128 l 444 988 l 604 1128 l 744 1128 l 514 929 m 789 864 l 789 782 l 222 82 l 775 82 l 775 0 l 83 0 l 83 82 l 650 782 l 97 782 l 97 864 l 789 864 z "},"ž":{"ha":707,"x_min":64,"x_max":664,"o":"m 433 739 l 294 739 l 64 938 l 204 938 l 364 797 l 524 938 l 664 938 l 433 739 m 101 592 l 101 674 l 624 674 l 624 592 l 211 82 l 624 82 l 624 0 l 83 0 l 83 82 l 496 592 l 101 592 z "},"ƒ":{"ha":622,"x_min":42,"x_max":583,"o":"m 583 838 l 478 838 q 443 830 451 838 q 432 793 435 822 l 415 674 l 581 674 l 581 592 l 404 592 l 314 -81 q 278 -168 307 -140 q 188 -196 250 -196 l 42 -196 l 42 -108 l 147 -108 q 183 -100 175 -108 q 194 -62 190 -92 l 282 592 l 146 592 l 146 674 l 293 674 l 311 811 q 347 899 318 871 q 438 926 375 926 l 583 926 l 583 838 z "},"Ș":{"ha":900,"x_min":111,"x_max":789,"o":"m 668 125 l 668 351 q 660 386 668 378 q 625 394 653 394 l 221 394 q 111 504 111 394 l 111 754 q 221 864 111 864 l 675 864 q 785 754 785 864 l 785 617 l 663 617 l 663 739 q 655 774 663 767 q 619 782 647 782 l 276 782 q 242 774 250 782 q 233 739 233 767 l 233 519 q 242 484 233 492 q 276 476 250 476 l 679 476 q 789 367 789 476 l 789 110 q 679 0 789 0 l 224 0 q 114 110 114 0 l 114 247 l 236 247 l 236 125 q 244 90 236 97 q 279 82 253 82 l 625 82 q 660 90 653 82 q 668 125 668 97 m 379 -304 l 379 -69 l 513 -69 l 513 -131 l 424 -304 l 379 -304 z "},"ș":{"ha":800,"x_min":111,"x_max":703,"o":"m 585 124 l 585 251 q 577 286 585 278 q 542 294 569 294 l 221 294 q 111 404 111 294 l 111 564 q 221 674 111 674 l 590 674 q 700 564 700 674 l 700 492 l 583 492 l 583 550 q 575 585 583 578 q 540 593 567 593 l 272 593 q 237 585 244 593 q 229 550 229 578 l 229 419 q 237 384 229 392 q 272 376 244 376 l 593 376 q 703 267 703 376 l 703 110 q 593 0 703 0 l 224 0 q 114 110 114 0 l 114 182 l 232 182 l 232 124 q 240 89 232 97 q 275 81 247 81 l 542 81 q 577 89 569 81 q 585 124 585 97 m 336 -304 l 336 -69 l 469 -69 l 469 -131 l 381 -304 l 336 -304 z "},"Ț":{"ha":785,"x_min":14,"x_max":771,"o":"m 328 -304 l 328 -69 l 461 -69 l 461 -131 l 372 -304 l 328 -304 m 14 864 l 771 864 l 771 782 l 453 782 l 453 0 l 332 0 l 332 782 l 14 782 l 14 864 z "},"ț":{"ha":508,"x_min":56,"x_max":453,"o":"m 174 -304 l 174 -69 l 307 -69 l 307 -131 l 218 -304 l 174 -304 m 453 592 l 283 592 l 283 132 q 292 97 283 106 q 326 89 300 89 l 451 89 l 451 0 l 274 0 q 164 110 164 0 l 164 592 l 56 592 l 56 674 l 164 674 l 164 790 l 283 790 l 283 674 l 453 674 l 453 592 z "},"ˆ":{"ha":833,"x_min":117,"x_max":717,"o":"m 117 703 l 347 901 l 486 901 l 717 703 l 576 703 l 417 843 l 257 703 l 117 703 z "},"ˇ":{"ha":833,"x_min":117,"x_max":717,"o":"m 347 703 l 117 901 l 257 901 l 417 761 l 576 901 l 717 901 l 486 703 l 347 703 z "},"ˉ":{"ha":599,"x_min":114,"x_max":485,"o":"m 114 764 l 114 844 l 485 844 l 485 764 l 114 764 z "},"˘":{"ha":833,"x_min":142,"x_max":690,"o":"m 581 894 l 690 894 l 690 813 q 581 703 690 703 l 251 703 q 142 813 142 703 l 142 894 l 251 894 l 251 824 q 259 789 251 797 q 294 781 267 781 l 538 781 q 572 789 564 781 q 581 824 581 797 l 581 894 z "},"˙":{"ha":833,"x_min":342,"x_max":490,"o":"m 342 742 l 342 868 l 490 868 l 490 742 l 342 742 z "},"˚":{"ha":833,"x_min":201,"x_max":631,"o":"m 631 849 l 631 794 q 539 703 631 703 l 293 703 q 201 794 201 703 l 201 849 q 293 940 201 940 l 539 940 q 631 849 631 940 m 546 807 l 546 836 q 539 868 546 861 q 507 875 532 875 l 325 875 q 293 868 300 875 q 286 836 286 861 l 286 807 q 293 775 286 782 q 325 768 300 768 l 507 768 q 539 775 532 768 q 546 807 546 782 z "},"˛":{"ha":833,"x_min":229,"x_max":603,"o":"m 374 -240 l 603 -240 l 603 -315 l 339 -315 q 229 -206 229 -315 l 229 -160 q 339 -50 229 -50 l 460 -50 l 460 15 l 575 15 l 575 -124 l 374 -124 q 338 -131 346 -124 q 329 -165 329 -139 l 329 -199 q 338 -233 329 -225 q 374 -240 346 -240 z "},"˜":{"ha":833,"x_min":129,"x_max":704,"o":"m 257 832 q 233 800 233 832 l 233 722 l 129 722 l 129 804 q 231 911 129 911 l 250 911 q 418 856 292 911 q 567 801 544 801 q 596 808 590 801 q 601 835 601 814 l 601 911 l 704 911 l 704 829 q 682 749 704 776 q 606 722 660 722 l 581 722 q 413 777 538 722 q 257 832 288 832 z "},"˝":{"ha":833,"x_min":147,"x_max":786,"o":"m 647 929 l 786 929 l 547 703 l 439 703 l 647 929 m 356 929 l 494 929 l 256 703 l 147 703 l 356 929 z "},"π":{"ha":1179,"x_min":111,"x_max":1096,"o":"m 1096 674 l 1096 592 l 925 592 l 925 0 l 807 0 l 807 592 l 386 592 l 386 110 q 276 0 386 0 l 111 0 l 111 89 l 224 89 q 258 97 250 89 q 267 132 267 106 l 267 592 l 111 592 l 111 674 l 1096 674 z "},"ँ":{"ha":0,"x_min":-474,"x_max":190,"o":"m -364 951 q -474 1060 -474 951 l -474 1183 l -358 1183 l -358 1076 q -350 1042 -358 1050 q -315 1033 -342 1033 l 32 1033 q 67 1042 58 1033 q 75 1076 75 1050 l 75 1183 l 190 1183 l 190 1060 q 82 951 190 951 l -364 951 m -206 1114 l -206 1243 l -79 1243 l -79 1114 l -206 1114 z "},"ं":{"ha":0,"x_min":-321,"x_max":-194,"o":"m -321 954 l -321 1083 l -194 1083 l -194 954 l -321 954 z "},"ः":{"ha":557,"x_min":236,"x_max":363,"o":"m 236 611 l 236 740 l 363 740 l 363 611 l 236 611 m 236 164 l 236 293 l 363 293 l 363 164 l 236 164 z "},"अ":{"ha":1478,"x_min":142,"x_max":1506,"o":"m 1506 864 l 1506 782 l 1283 782 l 1283 0 l 1160 0 l 1160 407 l 854 407 l 854 218 q 744 108 854 108 l 251 108 q 142 218 142 108 l 142 351 l 265 351 l 265 233 q 273 198 265 206 q 308 190 281 190 l 686 190 q 722 199 714 190 q 731 233 731 207 l 731 394 q 721 432 731 422 q 683 442 711 442 l 456 442 l 456 524 l 683 524 q 721 534 711 524 q 731 571 731 544 l 731 739 q 722 774 731 765 q 686 782 714 782 l 308 782 q 273 774 281 782 q 265 739 265 767 l 265 621 l 142 621 l 142 754 q 251 864 142 864 l 744 864 q 854 754 854 864 l 854 563 q 796 494 854 499 l 796 489 l 1160 489 l 1160 864 l 1506 864 z "},"आ":{"ha":1963,"x_min":142,"x_max":1990,"o":"m 1990 864 l 1990 782 l 1768 782 l 1768 0 l 1644 0 l 1644 782 l 1283 782 l 1283 0 l 1160 0 l 1160 407 l 854 407 l 854 218 q 744 108 854 108 l 251 108 q 142 218 142 108 l 142 351 l 265 351 l 265 233 q 273 198 265 206 q 308 190 281 190 l 686 190 q 722 199 714 190 q 731 233 731 207 l 731 394 q 721 432 731 422 q 683 442 711 442 l 456 442 l 456 524 l 683 524 q 721 534 711 524 q 731 571 731 544 l 731 739 q 722 774 731 765 q 686 782 714 782 l 308 782 q 273 774 281 782 q 265 739 265 767 l 265 621 l 142 621 l 142 754 q 251 864 142 864 l 744 864 q 854 754 854 864 l 854 563 q 796 494 854 499 l 796 489 l 1160 489 l 1160 864 l 1990 864 z "},"इ":{"ha":1050,"x_min":-28,"x_max":1078,"o":"m 899 592 l 318 592 q 283 583 292 592 q 275 549 275 575 l 275 493 q 283 458 275 467 q 318 450 292 450 l 796 450 q 906 340 906 450 l 906 218 q 796 108 906 108 l 282 108 l 282 0 l 158 0 l 158 264 l 282 264 l 282 190 l 739 190 q 774 198 767 190 q 782 233 782 206 l 782 325 q 774 360 782 353 q 739 368 767 368 l 261 368 q 153 478 153 368 l 153 564 q 261 674 153 674 l 775 674 l 775 782 l -28 782 l -28 864 l 1078 864 l 1078 782 l 899 782 l 899 592 z "},"ई":{"ha":1053,"x_min":-25,"x_max":1081,"o":"m 901 592 l 321 592 q 286 583 294 592 q 278 549 278 575 l 278 493 q 286 458 278 467 q 321 450 294 450 l 799 450 q 908 340 908 450 l 908 218 q 799 108 908 108 l 285 108 l 285 0 l 161 0 l 161 264 l 285 264 l 285 190 l 742 190 q 777 198 769 190 q 785 233 785 206 l 785 325 q 777 360 785 353 q 742 368 769 368 l 264 368 q 156 478 156 368 l 156 564 q 264 674 156 674 l 778 674 l 778 782 l -25 782 l -25 864 l 703 864 l 703 1026 q 813 1135 703 1135 l 1038 1135 l 1038 1053 l 869 1053 q 835 1045 843 1053 q 826 1011 826 1038 l 826 864 l 1081 864 l 1081 782 l 901 782 l 901 592 z "},"उ":{"ha":1004,"x_min":-28,"x_max":1032,"o":"m 1032 864 l 1032 782 l 797 782 q 810 744 810 772 l 810 546 q 753 476 810 481 l 753 474 q 810 406 810 469 l 810 110 q 700 0 810 0 l 221 0 q 111 110 111 0 l 111 286 l 235 286 l 235 125 q 242 90 235 97 q 278 82 250 82 l 643 82 q 678 90 669 82 q 686 125 686 97 l 686 388 q 678 422 686 414 q 643 431 669 431 l 457 431 l 457 513 l 643 513 q 678 521 669 513 q 686 557 686 529 l 686 739 q 678 774 686 767 q 643 782 669 782 l -28 782 l -28 864 l 1032 864 z "},"ऊ":{"ha":1465,"x_min":-26,"x_max":1493,"o":"m 1493 864 l 1493 782 l 799 782 q 811 744 811 772 l 811 546 q 754 476 811 481 l 754 474 q 769 471 761 474 l 1256 471 q 1365 361 1365 471 l 1365 110 q 1256 0 1365 0 l 875 0 l 875 82 l 1199 82 q 1233 90 1225 82 q 1242 125 1242 97 l 1242 346 q 1233 381 1242 372 q 1199 389 1225 389 l 811 389 l 811 110 q 701 0 811 0 l 222 0 q 113 110 113 0 l 113 286 l 236 286 l 236 125 q 244 90 236 97 q 279 82 253 82 l 644 82 q 680 90 672 82 q 688 125 688 97 l 688 388 q 680 422 688 414 q 644 431 672 431 l 458 431 l 458 513 l 644 513 q 679 521 671 513 q 688 557 688 529 l 688 739 q 680 774 688 767 q 644 782 672 782 l -26 782 l -26 864 l 1493 864 z "},"ऋ":{"ha":1829,"x_min":-28,"x_max":1857,"o":"m 1174 547 l 1174 408 q 1210 364 1174 364 l 1538 364 q 1571 408 1571 364 l 1571 547 q 1563 583 1571 574 q 1529 592 1556 592 l 1215 592 q 1181 583 1189 592 q 1174 547 1174 574 m 853 782 l 853 364 l 1071 364 q 1053 446 1053 383 l 1053 565 q 1163 674 1053 674 l 1581 674 q 1690 565 1690 674 l 1690 450 q 1679 370 1690 394 q 1643 339 1668 346 l 1643 332 q 1689 251 1689 314 l 1689 108 q 1579 0 1689 0 l 1157 0 q 1084 30 1108 0 q 1060 108 1060 60 l 1060 192 l 1181 192 l 1181 125 q 1188 90 1181 99 q 1221 82 1196 82 l 1529 82 q 1561 91 1554 82 q 1568 126 1568 100 l 1568 242 q 1560 274 1568 267 q 1528 281 1553 281 l 853 281 l 853 0 l 732 0 l 732 281 l 614 281 l 272 0 l 106 0 l 506 325 l 310 511 q 104 588 228 588 l 76 588 l 76 674 l 131 674 q 281 656 222 674 q 401 579 339 639 l 625 364 l 732 364 l 732 782 l -28 782 l -28 864 l 1857 864 l 1857 782 l 853 782 z "},"ऌ":{"ha":1586,"x_min":-28,"x_max":1614,"o":"m 1392 47 l 1008 47 q 972 37 982 47 q 961 1 961 26 l 961 -119 q 972 -155 961 -144 q 1008 -165 982 -165 l 1432 -165 l 1432 -247 l 942 -247 q 862 -223 886 -247 q 838 -143 838 -199 l 838 25 q 862 105 838 81 q 942 129 886 129 l 1268 129 l 1268 592 l 883 592 q 848 583 856 592 q 840 549 840 575 l 840 268 l 718 268 l 718 549 q 709 583 718 575 q 672 592 700 592 l 333 592 q 298 583 306 592 q 290 549 290 575 l 290 125 q 298 90 290 97 q 333 82 306 82 l 661 82 l 661 0 l 276 0 q 167 110 167 0 l 167 564 q 276 674 167 674 l 697 674 q 776 628 767 674 l 782 628 q 846 674 796 674 l 1268 674 l 1268 782 l -28 782 l -28 864 l 1614 864 l 1614 782 l 1392 782 l 1392 47 z "},"ऍ":{"ha":1101,"x_min":-28,"x_max":1129,"o":"m 790 951 l 344 951 q 235 1060 235 951 l 235 1183 l 350 1183 l 350 1076 q 358 1042 350 1050 q 393 1033 367 1033 l 740 1033 q 775 1042 767 1033 q 783 1076 783 1050 l 783 1183 l 899 1183 l 899 1060 q 790 951 899 951 m 1129 864 l 1129 782 l 940 782 l 940 504 q 831 394 940 394 l 561 394 l 561 476 l 774 476 q 810 485 801 476 q 818 519 818 493 l 818 782 l 318 782 l 318 125 q 326 90 318 97 q 361 82 333 82 l 767 82 q 802 90 794 82 q 810 125 810 97 l 810 272 l 933 272 l 933 110 q 824 0 933 0 l 304 0 q 194 110 194 0 l 194 782 l -28 782 l -28 864 l 1129 864 z "},"ऎ":{"ha":1101,"x_min":-28,"x_max":1129,"o":"m 1129 864 l 1129 782 l 940 782 l 940 504 q 831 394 940 394 l 561 394 l 561 476 l 774 476 q 810 485 801 476 q 818 519 818 493 l 818 782 l 318 782 l 318 125 q 326 90 318 97 q 361 82 333 82 l 767 82 q 802 90 794 82 q 810 125 810 97 l 810 272 l 933 272 l 933 110 q 824 0 933 0 l 304 0 q 194 110 194 0 l 194 782 l -28 782 l -28 864 l 818 864 l 818 906 q 810 942 818 933 q 775 950 801 950 l 393 950 q 285 1058 285 950 l 285 1129 l 407 1129 l 407 1075 q 415 1040 407 1049 q 451 1032 424 1032 l 832 1032 q 942 922 942 1032 l 942 864 l 1129 864 z "},"ए":{"ha":1101,"x_min":-28,"x_max":1129,"o":"m 1129 864 l 1129 782 l 940 782 l 940 504 q 831 394 940 394 l 561 394 l 561 476 l 774 476 q 810 485 801 476 q 818 519 818 493 l 818 782 l 318 782 l 318 125 q 326 90 318 97 q 361 82 333 82 l 767 82 q 802 90 794 82 q 810 125 810 97 l 810 272 l 933 272 l 933 110 q 824 0 933 0 l 304 0 q 194 110 194 0 l 194 782 l -28 782 l -28 864 l 1129 864 z "},"ऐ":{"ha":1101,"x_min":-28,"x_max":1129,"o":"m 1129 864 l 1129 782 l 940 782 l 940 504 q 831 394 940 394 l 561 394 l 561 476 l 774 476 q 810 485 801 476 q 818 519 818 493 l 818 782 l 318 782 l 318 125 q 326 90 318 97 q 361 82 333 82 l 767 82 q 802 90 794 82 q 810 125 810 97 l 810 272 l 933 272 l 933 110 q 824 0 933 0 l 304 0 q 194 110 194 0 l 194 782 l -28 782 l -28 864 l 811 864 q 678 999 740 922 l 564 1135 l 707 1135 l 936 864 l 1129 864 z "},"ऑ":{"ha":1949,"x_min":142,"x_max":1976,"o":"m 1682 951 l 1236 951 q 1126 1060 1126 951 l 1126 1183 l 1242 1183 l 1242 1076 q 1250 1042 1242 1050 q 1285 1033 1258 1033 l 1632 1033 q 1667 1042 1658 1033 q 1675 1076 1675 1050 l 1675 1183 l 1790 1183 l 1790 1060 q 1682 951 1790 951 m 1976 864 l 1976 782 l 1754 782 l 1754 0 l 1631 0 l 1631 782 l 1283 782 l 1283 0 l 1160 0 l 1160 407 l 854 407 l 854 218 q 744 108 854 108 l 251 108 q 142 218 142 108 l 142 351 l 265 351 l 265 233 q 273 198 265 206 q 308 190 281 190 l 686 190 q 722 199 714 190 q 731 233 731 207 l 731 394 q 721 432 731 422 q 683 442 711 442 l 456 442 l 456 524 l 683 524 q 721 534 711 524 q 731 571 731 544 l 731 739 q 722 774 731 765 q 686 782 714 782 l 308 782 q 273 774 281 782 q 265 739 265 767 l 265 621 l 142 621 l 142 754 q 251 864 142 864 l 744 864 q 854 754 854 864 l 854 563 q 796 494 854 499 l 796 489 l 1160 489 l 1160 864 l 1976 864 z "},"ऒ":{"ha":1949,"x_min":142,"x_max":1976,"o":"m 1976 864 l 1976 782 l 1754 782 l 1754 0 l 1631 0 l 1631 782 l 1283 782 l 1283 0 l 1160 0 l 1160 407 l 854 407 l 854 218 q 744 108 854 108 l 251 108 q 142 218 142 108 l 142 351 l 265 351 l 265 233 q 273 198 265 206 q 308 190 281 190 l 686 190 q 722 199 714 190 q 731 233 731 207 l 731 394 q 721 432 731 422 q 683 442 711 442 l 456 442 l 456 524 l 683 524 q 721 534 711 524 q 731 571 731 544 l 731 739 q 722 774 731 765 q 686 782 714 782 l 308 782 q 273 774 281 782 q 265 739 265 767 l 265 621 l 142 621 l 142 754 q 251 864 142 864 l 744 864 q 854 754 854 864 l 854 563 q 796 494 854 499 l 796 489 l 1160 489 l 1160 864 l 1631 864 l 1631 906 q 1622 942 1631 933 q 1588 950 1614 950 l 1206 950 q 1097 1058 1097 950 l 1097 1129 l 1219 1129 l 1219 1075 q 1228 1040 1219 1049 q 1264 1032 1236 1032 l 1644 1032 q 1754 922 1754 1032 l 1754 864 l 1976 864 z "},"ओ":{"ha":1950,"x_min":142,"x_max":1978,"o":"m 1978 864 l 1978 782 l 1756 782 l 1756 0 l 1632 0 l 1632 782 l 1283 782 l 1283 0 l 1160 0 l 1160 407 l 854 407 l 854 218 q 744 108 854 108 l 251 108 q 142 218 142 108 l 142 351 l 265 351 l 265 233 q 273 198 265 206 q 308 190 281 190 l 686 190 q 722 199 714 190 q 731 233 731 207 l 731 394 q 721 432 731 422 q 683 442 711 442 l 456 442 l 456 524 l 683 524 q 721 534 711 524 q 731 571 731 544 l 731 739 q 722 774 731 765 q 686 782 714 782 l 308 782 q 273 774 281 782 q 265 739 265 767 l 265 621 l 142 621 l 142 754 q 251 864 142 864 l 744 864 q 854 754 854 864 l 854 563 q 796 494 854 499 l 796 489 l 1160 489 l 1160 864 l 1631 864 q 1497 999 1560 922 l 1383 1135 l 1526 1135 l 1756 864 l 1978 864 z "},"औ":{"ha":2032,"x_min":225,"x_max":2060,"o":"m 2060 864 l 2060 782 l 1838 782 l 1838 0 l 1714 0 l 1714 782 l 1367 782 l 1367 0 l 1243 0 l 1243 407 l 938 407 l 938 218 q 828 108 938 108 l 335 108 q 225 218 225 108 l 225 351 l 349 351 l 349 233 q 356 198 349 206 q 392 190 364 190 l 769 190 q 806 199 797 190 q 814 233 814 207 l 814 394 q 804 432 814 422 q 767 442 794 442 l 539 442 l 539 524 l 767 524 q 804 534 794 524 q 814 571 814 544 l 814 739 q 806 774 814 765 q 769 782 797 782 l 392 782 q 356 774 364 782 q 349 739 349 767 l 349 621 l 225 621 l 225 754 q 335 864 225 864 l 828 864 q 938 754 938 864 l 938 563 q 879 494 938 499 l 879 489 l 1243 489 l 1243 864 l 1701 864 q 1600 951 1667 889 l 1406 1135 l 1551 1135 l 1610 1069 q 1768 864 1715 953 l 1774 864 q 1689 1063 1756 897 l 1658 1135 l 1775 1135 l 1836 864 l 2060 864 z "},"क":{"ha":1503,"x_min":-28,"x_max":1531,"o":"m 1531 782 l 813 782 l 813 661 q 857 674 828 674 l 1254 674 q 1364 564 1364 674 l 1364 218 q 1254 108 1364 108 l 882 108 l 882 190 l 1197 190 q 1233 198 1225 190 q 1240 233 1240 206 l 1240 549 q 1233 583 1240 575 q 1197 592 1225 592 l 860 592 q 823 582 833 592 q 813 544 813 572 l 813 0 l 690 0 l 690 121 q 646 108 675 108 l 249 108 q 139 218 139 108 l 139 564 q 249 674 139 674 l 621 674 l 621 592 l 306 592 q 270 583 278 592 q 263 549 263 575 l 263 233 q 270 198 263 206 q 306 190 278 190 l 643 190 q 680 201 669 190 q 690 238 690 211 l 690 782 l -28 782 l -28 864 l 1531 864 l 1531 782 z "},"ख":{"ha":1918,"x_min":-28,"x_max":1944,"o":"m 1944 864 l 1944 782 l 1722 782 l 1722 0 l 1600 0 l 1600 186 q 1550 167 1586 167 l 1094 167 q 986 276 986 167 l 986 524 q 1094 632 986 632 l 1538 632 l 1538 550 l 1144 550 q 1109 542 1117 550 q 1101 507 1101 533 l 1101 290 q 1110 256 1101 264 q 1144 247 1118 247 l 1544 247 q 1588 259 1575 247 q 1600 301 1600 271 l 1600 782 l 772 782 l 772 446 q 663 338 772 338 l 290 338 l 290 125 q 299 90 290 99 q 335 82 307 82 l 883 82 l 883 0 l 275 0 q 167 110 167 0 l 167 661 l 290 661 l 290 419 l 607 419 q 642 428 633 419 q 650 463 650 436 l 650 782 l -28 782 l -28 864 l 1944 864 z "},"ग":{"ha":1543,"x_min":-28,"x_max":1571,"o":"m 288 190 l 742 190 q 777 198 769 190 q 785 233 785 206 l 785 510 l 288 510 q 253 502 261 510 q 244 467 244 494 l 244 233 q 253 198 244 206 q 288 190 261 190 m 1571 864 l 1571 782 l 1349 782 l 1349 0 l 1226 0 l 1226 782 l 907 782 l 907 218 q 799 108 907 108 l 235 108 q 125 218 125 108 l 125 482 q 235 592 125 592 l 785 592 l 785 782 l -28 782 l -28 864 l 1571 864 z "},"घ":{"ha":1249,"x_min":-28,"x_max":1276,"o":"m 931 238 l 931 782 l 333 782 q 298 774 306 782 q 290 739 290 767 l 290 568 q 298 533 290 542 q 333 525 306 525 l 629 525 l 629 443 l 333 443 q 298 435 306 443 q 290 400 290 428 l 290 233 q 298 198 290 206 q 333 190 306 190 l 883 190 q 921 201 911 190 q 931 238 931 211 m 1276 864 l 1276 782 l 1054 782 l 1054 0 l 931 0 l 931 121 q 886 108 917 108 l 276 108 q 167 218 167 108 l 167 413 q 224 481 167 476 l 224 486 q 167 553 167 490 l 167 744 q 179 782 167 772 l -28 782 l -28 864 l 1276 864 z "},"ङ":{"ha":1186,"x_min":-28,"x_max":1214,"o":"m 968 435 l 968 539 l 1075 539 l 1075 435 l 968 435 m -28 864 l 1214 864 l 1214 782 l 838 782 l 838 592 l 319 592 q 283 583 292 592 q 275 549 275 575 l 275 464 q 283 429 275 438 q 319 421 292 421 l 761 421 q 871 311 871 421 l 871 124 q 761 14 871 14 l 265 14 q 157 124 157 14 l 157 236 l 279 236 l 279 139 q 288 104 279 113 q 324 96 296 96 l 704 96 q 739 103 731 96 q 747 139 747 111 l 747 296 q 739 331 747 322 q 704 339 731 339 l 261 339 q 153 449 153 339 l 153 564 q 261 674 153 674 l 715 674 l 715 782 l -28 782 l -28 864 z "},"च":{"ha":1171,"x_min":-28,"x_max":1199,"o":"m 1199 864 l 1199 782 l 976 782 l 976 0 l 854 0 l 854 121 q 810 108 839 108 l 276 108 q 167 218 167 108 l 167 554 q 179 592 167 581 l 50 592 l 50 674 l 572 674 l 572 592 l 332 592 q 298 583 306 592 q 290 549 290 575 l 290 233 q 298 198 290 206 q 333 190 306 190 l 807 190 q 844 201 833 190 q 854 238 854 211 l 854 782 l -28 782 l -28 864 l 1199 864 z "},"छ":{"ha":1474,"x_min":-28,"x_max":1501,"o":"m 906 674 l 906 782 l 335 782 q 300 774 308 782 q 292 739 292 767 l 292 514 q 300 478 292 486 q 335 471 308 471 l 572 471 l 572 389 l 335 389 q 300 381 308 389 q 292 346 292 372 l 292 125 q 300 90 292 97 q 335 82 308 82 l 1150 82 q 1186 90 1178 82 q 1194 125 1194 99 l 1194 549 q 1186 583 1194 575 q 1150 592 1178 592 l 799 592 q 763 583 771 592 q 754 549 754 575 l 754 365 q 763 331 754 339 q 799 322 771 322 l 978 322 l 978 240 l 746 240 q 636 350 636 240 l 636 564 q 746 674 636 674 l 906 674 m 1501 782 l 1029 782 l 1029 674 l 1197 674 q 1307 564 1307 674 l 1307 110 q 1197 0 1307 0 l 278 0 q 168 110 168 0 l 168 358 q 225 425 168 421 l 225 431 q 168 499 168 435 l 168 744 q 181 782 168 772 l -28 782 l -28 864 l 1501 864 l 1501 782 z "},"ज":{"ha":1493,"x_min":-28,"x_max":1521,"o":"m 1521 864 l 1521 782 l 1299 782 l 1299 0 l 1175 0 l 1175 592 l 856 592 l 856 218 q 746 108 856 108 l 276 108 q 167 218 167 108 l 167 674 l 289 674 l 289 233 q 297 198 289 206 q 332 190 306 190 l 690 190 q 725 198 717 190 q 733 233 733 206 l 733 674 l 1175 674 l 1175 782 l -28 782 l -28 864 l 1521 864 z "},"झ":{"ha":1528,"x_min":-28,"x_max":1556,"o":"m 1211 460 l 1211 782 l 906 782 l 906 592 l 319 592 q 284 583 292 592 q 276 549 276 575 l 276 503 q 284 467 276 475 q 319 460 292 460 l 1211 460 m 1556 864 l 1556 782 l 1333 782 l 1333 0 l 1211 0 l 1211 378 l 904 378 q 906 350 906 369 l 906 218 q 797 108 906 108 l 269 108 l 269 0 l 146 0 l 146 264 l 269 264 l 269 190 l 739 190 q 775 199 767 190 q 783 233 783 207 l 783 333 q 775 369 783 361 q 739 378 767 378 l 263 378 q 153 486 153 378 l 153 564 q 263 674 153 674 l 783 674 l 783 782 l -28 782 l -28 864 l 1556 864 z "},"ञ":{"ha":1440,"x_min":-28,"x_max":1468,"o":"m 1468 864 l 1468 782 l 1246 782 l 1246 0 l 1122 0 l 1122 360 l 817 360 l 817 218 q 708 108 817 108 l 200 108 q 90 218 90 108 l 90 374 l 214 374 l 214 233 q 222 198 214 206 q 257 190 231 190 l 651 190 q 686 198 678 190 q 694 233 694 206 l 694 549 q 686 583 694 575 q 651 592 678 592 l 333 592 l 333 674 l 708 674 q 817 564 817 674 l 817 442 l 1122 442 l 1122 782 l -28 782 l -28 864 l 1468 864 z "},"ट":{"ha":1061,"x_min":-28,"x_max":1089,"o":"m 856 592 l 333 592 q 298 583 306 592 q 290 549 290 575 l 290 125 q 298 90 290 97 q 333 82 306 82 l 731 82 q 766 90 758 82 q 774 125 774 97 l 774 339 l 897 339 l 897 110 q 788 0 897 0 l 276 0 q 167 110 167 0 l 167 564 q 276 674 167 674 l 733 674 l 733 782 l -28 782 l -28 864 l 1089 864 l 1089 782 l 856 782 l 856 592 z "},"ठ":{"ha":1092,"x_min":-28,"x_max":1119,"o":"m 804 125 l 804 549 q 796 583 804 575 q 760 592 788 592 l 332 592 q 297 583 306 592 q 289 549 289 575 l 289 125 q 297 90 289 97 q 332 82 306 82 l 760 82 q 796 90 788 82 q 804 125 804 99 m 1119 782 l 607 782 l 607 674 l 817 674 q 925 564 925 674 l 925 110 q 817 0 925 0 l 276 0 q 167 110 167 0 l 167 564 q 276 674 167 674 l 483 674 l 483 782 l -28 782 l -28 864 l 1119 864 l 1119 782 z "},"ड":{"ha":1032,"x_min":-28,"x_max":1060,"o":"m 846 592 l 328 592 q 292 583 300 592 q 283 549 283 575 l 283 475 q 292 440 283 449 q 328 432 300 432 l 769 432 q 879 322 879 432 l 879 110 q 769 0 879 0 l 274 0 q 165 110 165 0 l 165 242 l 288 242 l 288 125 q 296 90 288 99 q 332 82 304 82 l 713 82 q 747 90 739 82 q 756 125 756 97 l 756 306 q 747 342 756 333 q 713 350 739 350 l 269 350 q 161 458 161 350 l 161 564 q 269 674 161 674 l 724 674 l 724 782 l -28 782 l -28 864 l 1060 864 l 1060 782 l 846 782 l 846 592 z "},"ढ":{"ha":1096,"x_min":-28,"x_max":1124,"o":"m 858 592 l 333 592 q 298 583 306 592 q 290 549 290 575 l 290 125 q 298 90 290 97 q 333 82 306 82 l 767 82 q 802 90 794 82 q 810 125 810 97 l 810 278 q 802 313 810 306 q 767 321 794 321 l 533 321 l 533 403 l 821 403 q 929 293 929 403 l 929 110 q 821 0 929 0 l 276 0 q 167 110 167 0 l 167 564 q 276 674 167 674 l 735 674 l 735 782 l -28 782 l -28 864 l 1124 864 l 1124 782 l 858 782 l 858 592 z "},"ण":{"ha":1521,"x_min":-28,"x_max":1549,"o":"m 738 233 l 738 782 l 288 782 l 288 233 q 295 198 288 206 q 331 190 303 190 l 693 190 q 729 199 721 190 q 738 233 738 207 m 1549 864 l 1549 782 l 1326 782 l 1326 0 l 1204 0 l 1204 782 l 857 782 l 857 218 q 749 108 857 108 l 276 108 q 167 218 167 108 l 167 782 l -28 782 l -28 864 l 1549 864 z "},"त":{"ha":1121,"x_min":-28,"x_max":1149,"o":"m 1149 864 l 1149 782 l 926 782 l 926 0 l 803 0 l 803 592 l 333 592 q 298 583 306 592 q 290 549 290 575 l 290 125 q 298 90 290 97 q 333 82 306 82 l 540 82 l 540 0 l 276 0 q 167 110 167 0 l 167 564 q 276 674 167 674 l 803 674 l 803 782 l -28 782 l -28 864 l 1149 864 z "},"थ":{"ha":1458,"x_min":167,"x_max":1486,"o":"m 1486 864 l 1486 782 l 1264 782 l 1264 0 l 1142 0 l 1142 121 q 1097 108 1128 108 l 276 108 q 167 218 167 108 l 167 513 l 669 513 q 706 521 697 513 q 714 556 714 529 l 714 739 q 706 774 714 765 q 669 782 697 782 l 332 782 q 297 774 306 782 q 289 739 289 767 l 289 619 l 167 619 l 167 754 q 276 864 167 864 l 726 864 q 836 754 836 864 l 836 539 q 726 431 836 431 l 290 431 l 290 233 q 298 198 290 206 q 333 190 306 190 l 1094 190 q 1132 201 1122 190 q 1142 238 1142 211 l 1142 864 l 1486 864 z "},"द":{"ha":1060,"x_min":-28,"x_max":1088,"o":"m 851 592 l 306 592 q 270 583 278 592 q 263 549 263 575 l 263 233 q 270 198 263 206 q 306 190 278 190 l 694 190 q 732 201 722 190 q 742 238 742 211 l 742 369 l 865 369 l 865 0 l 742 0 l 742 121 q 697 108 728 108 l 249 108 q 139 218 139 108 l 139 564 q 249 674 139 674 l 729 674 l 729 782 l -28 782 l -28 864 l 1088 864 l 1088 782 l 851 782 l 851 592 z "},"ध":{"ha":1451,"x_min":161,"x_max":1479,"o":"m 1479 864 l 1479 782 l 1257 782 l 1257 0 l 1135 0 l 1135 121 q 1090 108 1119 108 l 271 108 q 161 218 161 108 l 161 383 q 218 450 161 446 l 218 456 q 161 524 161 460 l 161 754 q 271 864 161 864 l 735 864 q 843 754 843 864 l 843 592 l 731 592 l 731 739 q 722 774 731 767 q 688 782 714 782 l 328 782 q 292 774 300 782 q 285 739 285 767 l 285 542 q 292 506 285 514 q 328 499 300 499 l 547 499 l 547 417 l 328 417 q 292 408 300 417 q 285 374 285 400 l 285 233 q 292 198 285 206 q 328 190 300 190 l 1088 190 q 1124 201 1114 190 q 1135 238 1135 211 l 1135 864 l 1479 864 z "},"न":{"ha":1461,"x_min":-28,"x_max":1489,"o":"m 703 233 l 703 592 l 290 592 q 256 583 264 592 q 247 549 247 575 l 247 233 q 256 198 247 206 q 290 190 264 190 l 660 190 q 694 198 686 190 q 703 233 703 206 m 1489 864 l 1489 782 l 1267 782 l 1267 0 l 1143 0 l 1143 592 l 824 592 l 824 218 q 715 108 824 108 l 235 108 q 125 218 125 108 l 125 564 q 235 674 125 674 l 1143 674 l 1143 782 l -28 782 l -28 864 l 1489 864 z "},"ऩ":{"ha":1461,"x_min":-28,"x_max":1489,"o":"m 471 -110 l 471 18 l 597 18 l 597 -110 l 471 -110 m 703 233 l 703 592 l 290 592 q 256 583 264 592 q 247 549 247 575 l 247 233 q 256 198 247 206 q 290 190 264 190 l 660 190 q 694 198 686 190 q 703 233 703 206 m 1489 864 l 1489 782 l 1267 782 l 1267 0 l 1143 0 l 1143 592 l 824 592 l 824 218 q 715 108 824 108 l 235 108 q 125 218 125 108 l 125 564 q 235 674 125 674 l 1143 674 l 1143 782 l -28 782 l -28 864 l 1489 864 z "},"प":{"ha":1074,"x_min":-28,"x_max":1103,"o":"m 757 238 l 757 782 l 289 782 l 289 233 q 297 198 289 206 q 332 190 306 190 l 710 190 q 747 201 736 190 q 757 238 757 211 m 1103 864 l 1103 782 l 879 782 l 879 0 l 757 0 l 757 121 q 713 108 742 108 l 276 108 q 167 218 167 108 l 167 782 l -28 782 l -28 864 l 1103 864 z "},"फ":{"ha":1579,"x_min":-28,"x_max":1608,"o":"m 757 238 l 757 782 l 289 782 l 289 233 q 297 198 289 206 q 332 190 306 190 l 710 190 q 747 201 736 190 q 757 238 757 211 m 1608 782 l 879 782 l 879 661 q 924 674 894 674 l 1332 674 q 1442 564 1442 674 l 1442 218 q 1332 108 1442 108 l 949 108 l 949 190 l 1275 190 q 1310 198 1303 190 q 1318 233 1318 206 l 1318 549 q 1310 583 1318 575 q 1275 592 1303 592 l 926 592 q 890 582 900 592 q 879 544 879 572 l 879 0 l 757 0 l 757 121 q 713 108 742 108 l 276 108 q 167 218 167 108 l 167 782 l -28 782 l -28 864 l 1608 864 l 1608 782 z "},"ब":{"ha":1156,"x_min":-28,"x_max":1183,"o":"m 301 190 l 801 190 l 254 539 q 258 397 258 454 l 258 233 q 267 199 258 207 q 301 190 275 190 m 1183 864 l 1183 782 l 961 782 l 961 0 l 838 0 l 838 121 q 793 108 822 108 l 249 108 q 139 218 139 108 l 139 564 q 249 674 139 674 l 781 674 l 781 592 l 301 592 l 849 242 q 838 433 838 310 l 838 782 l -28 782 l -28 864 l 1183 864 z "},"भ":{"ha":1501,"x_min":165,"x_max":1529,"o":"m 742 232 l 742 431 l 328 431 q 292 422 300 431 q 285 388 285 414 l 285 232 q 293 197 285 206 q 328 189 301 189 l 699 189 q 733 197 725 189 q 742 232 742 206 m 1529 864 l 1529 782 l 1307 782 l 1307 0 l 1185 0 l 1185 431 l 865 431 l 865 218 q 756 108 865 108 l 275 108 q 165 218 165 108 l 165 404 q 275 513 165 513 l 742 513 l 742 739 q 733 774 742 767 q 699 782 725 782 l 332 782 q 297 774 306 782 q 289 739 289 767 l 289 619 l 165 619 l 165 754 q 275 864 165 864 l 756 864 q 865 754 865 864 l 865 513 l 1185 513 l 1185 864 l 1529 864 z "},"म":{"ha":1504,"x_min":-28,"x_max":1532,"o":"m 1186 674 l 1186 782 l 867 782 l 867 674 l 1186 674 m 743 233 l 743 592 l 331 592 q 295 583 303 592 q 288 549 288 575 l 288 233 q 295 198 288 206 q 331 190 303 190 l 700 190 q 735 198 728 190 q 743 233 743 206 m 1532 864 l 1532 782 l 1310 782 l 1310 0 l 1186 0 l 1186 592 l 867 592 l 867 218 q 757 108 867 108 l 276 108 q 167 218 167 108 l 167 564 q 276 674 167 674 l 743 674 l 743 782 l -28 782 l -28 864 l 1532 864 z "},"य":{"ha":1338,"x_min":-28,"x_max":1365,"o":"m 1021 244 l 1021 782 l 703 782 q 715 744 715 772 l 715 539 q 606 429 715 429 l 235 429 l 235 233 q 242 198 235 206 q 278 190 250 190 l 964 190 q 1008 202 996 190 q 1021 244 1021 214 m 1365 864 l 1365 782 l 1143 782 l 1143 0 l 1021 0 l 1021 129 q 969 108 1007 108 l 221 108 q 111 218 111 108 l 111 511 l 549 511 q 583 519 575 511 q 592 556 592 528 l 592 739 q 583 774 592 767 q 549 782 575 782 l -28 782 l -28 864 l 1365 864 z "},"र":{"ha":1061,"x_min":-28,"x_max":1089,"o":"m 1089 864 l 1089 782 l 854 782 q 867 744 867 772 l 867 506 q 757 396 867 396 l 290 396 l 290 125 q 298 90 290 97 q 333 82 306 82 l 689 82 q 725 90 717 82 q 733 125 733 99 l 733 293 l 856 293 l 856 110 q 747 0 856 0 l 276 0 q 167 110 167 0 l 167 600 l 290 600 l 290 478 l 700 478 q 735 486 728 478 q 743 521 743 494 l 743 739 q 735 774 743 767 q 700 782 728 782 l -28 782 l -28 864 l 1089 864 z "},"ऱ":{"ha":1061,"x_min":-28,"x_max":1089,"o":"m 267 -218 l 267 -90 l 393 -90 l 393 -218 l 267 -218 m 1089 864 l 1089 782 l 854 782 q 867 744 867 772 l 867 506 q 757 396 867 396 l 290 396 l 290 125 q 298 90 290 97 q 333 82 306 82 l 689 82 q 725 90 717 82 q 733 125 733 99 l 733 293 l 856 293 l 856 110 q 747 0 856 0 l 276 0 q 167 110 167 0 l 167 600 l 290 600 l 290 478 l 700 478 q 735 486 728 478 q 743 521 743 494 l 743 739 q 735 774 743 767 q 700 782 728 782 l -28 782 l -28 864 l 1089 864 z "},"ल":{"ha":1586,"x_min":-28,"x_max":1614,"o":"m 1614 864 l 1614 782 l 1392 782 l 1392 0 l 1268 0 l 1268 592 l 883 592 q 848 583 856 592 q 840 549 840 575 l 840 268 l 718 268 l 718 549 q 709 583 718 575 q 672 592 700 592 l 333 592 q 298 583 306 592 q 290 549 290 575 l 290 125 q 298 90 290 97 q 333 82 306 82 l 661 82 l 661 0 l 276 0 q 167 110 167 0 l 167 564 q 276 674 167 674 l 697 674 q 776 628 767 674 l 782 628 q 846 674 796 674 l 1268 674 l 1268 782 l -28 782 l -28 864 l 1614 864 z "},"ळ":{"ha":1469,"x_min":-28,"x_max":1497,"o":"m 1151 592 l 836 592 q 801 583 808 592 q 793 549 793 575 l 793 233 q 801 198 793 206 q 836 190 808 190 l 1151 190 q 1188 199 1179 190 q 1196 233 1196 207 l 1196 549 q 1188 583 1196 575 q 1151 592 1179 592 m 676 233 l 676 549 q 669 583 676 575 q 633 592 661 592 l 317 592 q 281 583 289 592 q 274 549 274 575 l 274 233 q 281 198 274 206 q 317 190 289 190 l 633 190 q 669 198 661 190 q 676 233 676 206 m 1497 782 l 1071 782 l 1071 674 l 1207 674 q 1317 564 1317 674 l 1317 218 q 1207 108 1317 108 l 801 108 q 738 154 747 108 l 732 154 q 653 108 722 108 l 263 108 q 153 218 153 108 l 153 564 q 263 674 153 674 l 653 674 q 732 628 722 674 l 738 628 q 801 674 746 674 l 949 674 l 949 782 l -28 782 l -28 864 l 1497 864 l 1497 782 z "},"ऴ":{"ha":1469,"x_min":-28,"x_max":1497,"o":"m 454 -110 l 454 18 l 581 18 l 581 -110 l 454 -110 m 1151 592 l 836 592 q 801 583 808 592 q 793 549 793 575 l 793 233 q 801 198 793 206 q 836 190 808 190 l 1151 190 q 1188 199 1179 190 q 1196 233 1196 207 l 1196 549 q 1188 583 1196 575 q 1151 592 1179 592 m 676 233 l 676 549 q 669 583 676 575 q 633 592 661 592 l 317 592 q 281 583 289 592 q 274 549 274 575 l 274 233 q 281 198 274 206 q 317 190 289 190 l 633 190 q 669 198 661 190 q 676 233 676 206 m 1497 782 l 1071 782 l 1071 674 l 1207 674 q 1317 564 1317 674 l 1317 218 q 1207 108 1317 108 l 801 108 q 738 154 747 108 l 732 154 q 653 108 722 108 l 263 108 q 153 218 153 108 l 153 564 q 263 674 153 674 l 653 674 q 732 628 722 674 l 738 628 q 801 674 746 674 l 949 674 l 949 782 l -28 782 l -28 864 l 1497 864 l 1497 782 z "},"व":{"ha":1074,"x_min":-28,"x_max":1101,"o":"m 1101 864 l 1101 782 l 879 782 l 879 0 l 757 0 l 757 121 q 713 108 742 108 l 263 108 q 153 218 153 108 l 153 564 q 263 674 153 674 l 688 674 l 688 592 l 319 592 q 284 583 292 592 q 276 549 276 575 l 276 233 q 284 198 276 206 q 319 190 292 190 l 710 190 q 747 201 736 190 q 757 238 757 211 l 757 782 l -28 782 l -28 864 l 1101 864 z "},"श":{"ha":1546,"x_min":194,"x_max":1574,"o":"m 304 864 l 786 864 q 894 754 894 864 l 894 478 q 786 368 894 368 l 318 368 l 318 125 q 326 90 318 97 q 361 82 333 82 l 728 82 q 763 90 756 82 q 771 125 771 97 l 771 271 l 894 271 l 894 110 q 785 0 894 0 l 304 0 q 194 110 194 0 l 194 518 l 318 518 l 318 450 l 728 450 q 764 458 756 450 q 772 493 772 467 l 772 739 q 764 774 772 765 q 728 782 756 782 l 361 782 q 325 774 333 782 q 317 739 317 765 l 317 622 l 194 622 l 194 754 q 304 864 194 864 m 1574 864 l 1574 782 l 1351 782 l 1351 0 l 1228 0 l 1228 864 l 1574 864 z "},"ष":{"ha":1158,"x_min":-28,"x_max":1186,"o":"m 847 475 l 847 782 l 281 782 l 856 275 q 847 475 847 360 m 331 190 l 799 190 q 838 201 826 190 l 279 693 q 288 522 288 621 l 288 233 q 295 198 288 206 q 331 190 303 190 m 1186 864 l 1186 782 l 965 782 l 965 0 l 846 0 l 846 121 q 801 108 831 108 l 276 108 q 167 218 167 108 l 167 782 l -28 782 l -28 864 l 1186 864 z "},"स":{"ha":1522,"x_min":-28,"x_max":1551,"o":"m 1204 471 l 1204 782 l 858 782 q 871 744 871 772 l 871 499 q 869 471 871 479 l 1204 471 m 1551 864 l 1551 782 l 1328 782 l 1328 0 l 1204 0 l 1204 389 l 290 389 l 290 125 q 298 90 290 97 q 333 82 306 82 l 703 82 q 738 90 731 82 q 746 125 746 97 l 746 297 l 869 297 l 869 110 q 760 0 869 0 l 276 0 q 167 110 167 0 l 167 661 l 290 661 l 290 471 l 704 471 q 739 478 731 471 q 747 514 747 486 l 747 739 q 739 774 747 767 q 704 782 731 782 l -28 782 l -28 864 l 1551 864 z "},"ह":{"ha":1069,"x_min":-28,"x_max":1097,"o":"m 876 592 l 344 592 q 309 583 317 592 q 301 549 301 575 l 301 493 q 309 458 301 467 q 344 450 317 450 l 792 450 q 903 339 903 450 l 903 197 l 782 197 l 782 325 q 774 360 782 351 q 739 368 765 368 l 344 368 q 309 360 317 368 q 301 325 301 353 l 301 125 q 309 90 301 97 q 344 82 317 82 l 900 82 l 900 0 l 288 0 q 178 110 178 0 l 178 335 q 235 403 178 399 l 235 408 q 178 475 178 411 l 178 564 q 288 674 178 674 l 754 674 l 754 782 l -28 782 l -28 864 l 1097 864 l 1097 782 l 876 782 l 876 592 z "},"़":{"ha":0,"x_min":-369,"x_max":-243,"o":"m -369 -218 l -369 -90 l -243 -90 l -243 -218 l -369 -218 z "},"ऽ":{"ha":983,"x_min":161,"x_max":838,"o":"m 328 510 l 728 510 q 838 400 838 510 l 838 110 q 728 0 838 0 l 274 0 q 165 111 165 0 l 165 257 l 288 257 l 288 126 q 297 91 288 100 q 332 82 306 82 l 671 82 q 706 90 697 82 q 714 125 714 97 l 714 383 q 706 419 714 411 q 671 428 697 428 l 269 428 q 161 536 161 428 l 161 754 q 269 864 161 864 l 831 864 l 831 782 l 328 782 q 292 774 300 782 q 283 739 283 765 l 283 553 q 292 518 283 526 q 328 510 300 510 z "},"ा":{"ha":513,"x_min":-28,"x_max":540,"o":"m 540 864 l 540 782 l 318 782 l 318 0 l 194 0 l 194 782 l -28 782 l -28 864 l 540 864 z "},"ि":{"ha":513,"x_min":-28,"x_max":1318,"o":"m 304 1135 l 1210 1135 q 1318 1025 1318 1135 l 1318 926 l 1196 926 l 1196 1010 q 1188 1044 1196 1036 q 1153 1053 1181 1053 l 361 1053 q 326 1044 333 1053 q 318 1010 318 1036 l 318 864 l 540 864 l 540 782 l 318 782 l 318 0 l 194 0 l 194 782 l -28 782 l -28 864 l 194 864 l 194 1025 q 304 1135 194 1135 z "},"ी":{"ha":513,"x_min":-326,"x_max":540,"o":"m 540 864 l 540 782 l 318 782 l 318 0 l 194 0 l 194 782 l -28 782 l -28 864 l 194 864 l 194 1010 q 186 1044 194 1036 q 151 1053 178 1053 l -160 1053 q -194 1044 -186 1053 q -203 1010 -203 1036 l -203 926 l -326 926 l -326 1025 q -217 1135 -326 1135 l 208 1135 q 318 1025 318 1135 l 318 864 l 540 864 z "},"ु":{"ha":0,"x_min":-757,"x_max":-12,"o":"m -360 0 l -117 0 q -37 -24 -61 0 q -12 -104 -12 -49 l -12 -271 q -37 -351 -12 -326 q -117 -375 -61 -375 l -485 -375 q -592 -360 -560 -375 q -660 -286 -624 -344 l -757 -125 l -615 -125 l -540 -254 q -515 -285 -526 -276 q -482 -293 -504 -293 l -183 -293 q -147 -283 -157 -293 q -136 -247 -136 -272 l -136 -128 q -147 -92 -136 -103 q -183 -82 -157 -82 l -360 -82 l -360 0 z "},"ू":{"ha":0,"x_min":-678,"x_max":101,"o":"m -246 -82 l -507 -82 q -544 -92 -533 -82 q -554 -128 -554 -103 l -554 -247 q -544 -283 -554 -272 q -507 -293 -533 -293 l -317 -293 l -317 -375 l -574 -375 q -653 -351 -629 -375 q -678 -271 -678 -326 l -678 -104 q -653 -24 -678 -49 q -574 0 -629 0 l -243 0 q -135 -15 -167 0 q -68 -89 -103 -29 l 101 -375 l -40 -375 l -187 -121 q -212 -90 -201 -99 q -246 -82 -224 -82 z "},"ृ":{"ha":0,"x_min":-617,"x_max":-14,"o":"m -446 -293 l -14 -293 l -14 -375 l -512 -375 q -592 -351 -568 -375 q -617 -271 -617 -326 l -617 -104 q -592 -24 -617 -49 q -512 0 -568 0 l -76 0 l -76 -82 l -446 -82 q -483 -92 -472 -82 q -493 -128 -493 -103 l -493 -247 q -483 -283 -493 -272 q -446 -293 -472 -293 z "},"ॄ":{"ha":0,"x_min":-617,"x_max":-36,"o":"m -446 -294 l -36 -294 l -36 -376 l -446 -376 q -483 -387 -472 -376 q -493 -422 -493 -397 l -493 -543 q -483 -578 -493 -568 q -446 -589 -472 -589 l -36 -589 l -36 -671 l -512 -671 q -592 -647 -568 -671 q -617 -567 -617 -622 l -617 -426 q -575 -336 -617 -367 q -617 -244 -617 -303 l -617 -104 q -592 -24 -617 -49 q -512 0 -568 0 l -76 0 l -76 -82 l -446 -82 q -483 -92 -472 -82 q -493 -128 -493 -103 l -493 -249 q -483 -284 -493 -274 q -446 -294 -472 -294 z "},"ॅ":{"ha":0,"x_min":-474,"x_max":190,"o":"m 75 1183 l 190 1183 l 190 1060 q 82 951 190 951 l -364 951 q -474 1060 -474 951 l -474 1183 l -358 1183 l -358 1076 q -350 1042 -358 1050 q -315 1033 -342 1033 l 32 1033 q 67 1042 58 1033 q 75 1076 75 1050 l 75 1183 z "},"ॆ":{"ha":0,"x_min":-733,"x_max":-76,"o":"m -567 1032 l -186 1032 q -76 922 -76 1032 l -76 815 l -200 815 l -200 906 q -208 942 -200 933 q -243 950 -217 950 l -625 950 q -733 1058 -733 950 l -733 1129 l -611 1129 l -611 1075 q -603 1040 -611 1049 q -567 1032 -594 1032 z "},"े":{"ha":0,"x_min":-567,"x_max":-183,"o":"m -183 850 l -303 850 q -453 999 -387 921 l -567 1135 l -424 1135 l -183 850 z "},"ै":{"ha":0,"x_min":-625,"x_max":-192,"o":"m -262 864 l -257 864 q -342 1063 -275 897 l -372 1135 l -256 1135 l -192 850 l -310 850 q -431 951 -349 874 l -625 1135 l -479 1135 l -421 1069 q -262 864 -315 953 z "},"ॉ":{"ha":513,"x_min":-75,"x_max":589,"o":"m 540 864 l 540 782 l 318 782 l 318 0 l 194 0 l 194 782 l -28 782 l -28 864 l 540 864 m 474 1183 l 589 1183 l 589 1060 q 481 951 589 951 l 35 951 q -75 1060 -75 951 l -75 1183 l 40 1183 l 40 1076 q 48 1042 40 1050 q 83 1033 56 1033 l 431 1033 q 466 1042 458 1033 q 474 1076 474 1050 l 474 1183 z "},"ॊ":{"ha":513,"x_min":-339,"x_max":540,"o":"m 540 864 l 540 782 l 318 782 l 318 0 l 194 0 l 194 782 l -28 782 l -28 864 l 194 864 l 194 906 q 186 942 194 933 q 151 950 178 950 l -231 950 q -339 1058 -339 950 l -339 1129 l -217 1129 l -217 1075 q -208 1040 -217 1049 q -172 1032 -200 1032 l 208 1032 q 318 922 318 1032 l 318 864 l 540 864 z "},"ो":{"ha":513,"x_min":-54,"x_max":540,"o":"m 540 864 l 540 782 l 318 782 l 318 0 l 194 0 l 194 782 l -28 782 l -28 864 l 193 864 q 60 999 122 922 l -54 1135 l 89 1135 l 318 864 l 540 864 z "},"ौ":{"ha":513,"x_min":-112,"x_max":540,"o":"m 540 864 l 540 782 l 318 782 l 318 0 l 194 0 l 194 782 l -28 782 l -28 864 l 183 864 q 82 951 147 889 l -112 1135 l 33 1135 l 92 1069 q 250 864 197 953 l 256 864 q 171 1063 238 897 l 140 1135 l 257 1135 l 318 864 l 540 864 z "},"्":{"ha":0,"x_min":-321,"x_max":-47,"o":"m -321 -85 l -194 -85 l -47 -275 l -179 -275 l -321 -85 z "},"ॐ":{"ha":1465,"x_min":113,"x_max":1553,"o":"m 1283 1022 l 1283 893 l 1157 893 l 1157 1022 l 1283 1022 m 811 558 l 1433 558 q 1543 449 1543 558 l 1543 110 q 1433 0 1543 0 l 1039 0 q 929 110 929 0 l 929 286 l 1053 286 l 1053 125 q 1061 90 1053 97 q 1096 82 1069 82 l 1376 82 q 1411 90 1403 82 q 1419 125 1419 97 l 1419 433 q 1411 469 1419 461 q 1376 476 1403 476 l 754 476 l 754 471 q 811 406 811 467 l 811 110 q 701 0 811 0 l 222 0 q 113 110 113 0 l 113 286 l 236 286 l 236 125 q 244 90 236 97 q 279 82 253 82 l 644 82 q 680 90 672 82 q 688 125 688 97 l 688 388 q 680 422 688 414 q 644 431 672 431 l 458 431 l 458 513 l 644 513 q 679 521 671 513 q 688 557 688 529 l 688 739 q 680 774 688 767 q 644 782 672 782 l 279 782 q 244 774 253 782 q 236 739 236 767 l 236 621 l 113 621 l 113 754 q 222 864 113 864 l 701 864 q 811 754 811 864 l 811 558 m 1438 963 l 1553 963 l 1553 839 q 1444 731 1553 731 l 999 731 q 889 839 889 731 l 889 963 l 1004 963 l 1004 856 q 1012 820 1004 828 q 1047 813 1019 813 l 1394 813 q 1430 820 1422 813 q 1438 856 1438 828 l 1438 963 z "},"॑":{"ha":0,"x_min":-318,"x_max":-194,"o":"m -318 988 l -318 1349 l -194 1349 l -194 988 l -318 988 z "},"॒":{"ha":0,"x_min":-697,"x_max":-76,"o":"m -76 -264 l -697 -264 l -697 -182 l -76 -182 l -76 -264 z "},"॓":{"ha":0,"x_min":-517,"x_max":-190,"o":"m -517 1300 l -422 1383 l -190 1106 l -285 1022 l -517 1300 z "},"॔":{"ha":0,"x_min":-289,"x_max":38,"o":"m -57 1383 l 38 1300 l -194 1022 l -289 1106 l -57 1383 z "},"क़":{"ha":1503,"x_min":-28,"x_max":1531,"o":"m 250 -110 l 250 18 l 376 18 l 376 -110 l 250 -110 m 1531 782 l 813 782 l 813 661 q 857 674 828 674 l 1254 674 q 1364 564 1364 674 l 1364 218 q 1254 108 1364 108 l 882 108 l 882 190 l 1197 190 q 1233 198 1225 190 q 1240 233 1240 206 l 1240 549 q 1233 583 1240 575 q 1197 592 1225 592 l 860 592 q 823 582 833 592 q 813 544 813 572 l 813 0 l 690 0 l 690 121 q 646 108 675 108 l 249 108 q 139 218 139 108 l 139 564 q 249 674 139 674 l 621 674 l 621 592 l 306 592 q 270 583 278 592 q 263 549 263 575 l 263 233 q 270 198 263 206 q 306 190 278 190 l 643 190 q 680 201 669 190 q 690 238 690 211 l 690 782 l -28 782 l -28 864 l 1531 864 l 1531 782 z "},"ख़":{"ha":1918,"x_min":-28,"x_max":1944,"o":"m 714 -218 l 714 -90 l 840 -90 l 840 -218 l 714 -218 m 1944 864 l 1944 782 l 1722 782 l 1722 0 l 1600 0 l 1600 186 q 1550 167 1586 167 l 1094 167 q 986 276 986 167 l 986 524 q 1094 632 986 632 l 1538 632 l 1538 550 l 1144 550 q 1109 542 1117 550 q 1101 507 1101 533 l 1101 290 q 1110 256 1101 264 q 1144 247 1118 247 l 1544 247 q 1588 259 1575 247 q 1600 301 1600 271 l 1600 782 l 772 782 l 772 446 q 663 338 772 338 l 290 338 l 290 125 q 299 90 290 99 q 335 82 307 82 l 883 82 l 883 0 l 275 0 q 167 110 167 0 l 167 661 l 290 661 l 290 419 l 607 419 q 642 428 633 419 q 650 463 650 436 l 650 782 l -28 782 l -28 864 l 1944 864 z "},"ग़":{"ha":1543,"x_min":-28,"x_max":1571,"o":"m 456 -110 l 456 18 l 582 18 l 582 -110 l 456 -110 m 288 190 l 742 190 q 777 198 769 190 q 785 233 785 206 l 785 510 l 288 510 q 253 502 261 510 q 244 467 244 494 l 244 233 q 253 198 244 206 q 288 190 261 190 m 1571 864 l 1571 782 l 1349 782 l 1349 0 l 1226 0 l 1226 782 l 907 782 l 907 218 q 799 108 907 108 l 235 108 q 125 218 125 108 l 125 482 q 235 592 125 592 l 785 592 l 785 782 l -28 782 l -28 864 l 1571 864 z "},"ज़":{"ha":1493,"x_min":-28,"x_max":1521,"o":"m 433 -110 l 433 18 l 560 18 l 560 -110 l 433 -110 m 1521 864 l 1521 782 l 1299 782 l 1299 0 l 1175 0 l 1175 592 l 856 592 l 856 218 q 746 108 856 108 l 276 108 q 167 218 167 108 l 167 674 l 289 674 l 289 233 q 297 198 289 206 q 332 190 306 190 l 690 190 q 725 198 717 190 q 733 233 733 206 l 733 674 l 1175 674 l 1175 782 l -28 782 l -28 864 l 1521 864 z "},"ड़":{"ha":1032,"x_min":-28,"x_max":1060,"o":"m 518 -218 l 518 -90 l 644 -90 l 644 -218 l 518 -218 m 846 592 l 328 592 q 292 583 300 592 q 283 549 283 575 l 283 475 q 292 440 283 449 q 328 432 300 432 l 769 432 q 879 322 879 432 l 879 110 q 769 0 879 0 l 274 0 q 165 110 165 0 l 165 242 l 288 242 l 288 125 q 296 90 288 99 q 332 82 304 82 l 713 82 q 747 90 739 82 q 756 125 756 97 l 756 306 q 747 342 756 333 q 713 350 739 350 l 269 350 q 161 458 161 350 l 161 564 q 269 674 161 674 l 724 674 l 724 782 l -28 782 l -28 864 l 1060 864 l 1060 782 l 846 782 l 846 592 z "},"ढ़":{"ha":1096,"x_min":-28,"x_max":1124,"o":"m 543 -218 l 543 -90 l 669 -90 l 669 -218 l 543 -218 m 858 592 l 333 592 q 298 583 306 592 q 290 549 290 575 l 290 125 q 298 90 290 97 q 333 82 306 82 l 767 82 q 802 90 794 82 q 810 125 810 97 l 810 278 q 802 313 810 306 q 767 321 794 321 l 533 321 l 533 403 l 821 403 q 929 293 929 403 l 929 110 q 821 0 929 0 l 276 0 q 167 110 167 0 l 167 564 q 276 674 167 674 l 735 674 l 735 782 l -28 782 l -28 864 l 1124 864 l 1124 782 l 858 782 l 858 592 z "},"फ़":{"ha":1579,"x_min":-28,"x_max":1608,"o":"m 181 -110 l 181 18 l 307 18 l 307 -110 l 181 -110 m 757 238 l 757 782 l 289 782 l 289 233 q 297 198 289 206 q 332 190 306 190 l 710 190 q 747 201 736 190 q 757 238 757 211 m 1608 782 l 879 782 l 879 661 q 924 674 894 674 l 1332 674 q 1442 564 1442 674 l 1442 218 q 1332 108 1442 108 l 949 108 l 949 190 l 1275 190 q 1310 198 1303 190 q 1318 233 1318 206 l 1318 549 q 1310 583 1318 575 q 1275 592 1303 592 l 926 592 q 890 582 900 592 q 879 544 879 572 l 879 0 l 757 0 l 757 121 q 713 108 742 108 l 276 108 q 167 218 167 108 l 167 782 l -28 782 l -28 864 l 1608 864 l 1608 782 z "},"य़":{"ha":1338,"x_min":-28,"x_max":1365,"o":"m 372 -110 l 372 18 l 499 18 l 499 -110 l 372 -110 m 1021 244 l 1021 782 l 703 782 q 715 744 715 772 l 715 539 q 606 429 715 429 l 235 429 l 235 233 q 242 198 235 206 q 278 190 250 190 l 964 190 q 1008 202 996 190 q 1021 244 1021 214 m 1365 864 l 1365 782 l 1143 782 l 1143 0 l 1021 0 l 1021 129 q 969 108 1007 108 l 221 108 q 111 218 111 108 l 111 511 l 549 511 q 583 519 575 511 q 592 556 592 528 l 592 739 q 583 774 592 767 q 549 782 575 782 l -28 782 l -28 864 l 1365 864 z "},"ॠ":{"ha":1829,"x_min":-28,"x_max":1857,"o":"m 1174 547 l 1174 408 q 1210 364 1174 364 l 1538 364 q 1571 408 1571 364 l 1571 547 q 1563 583 1571 574 q 1529 592 1556 592 l 1215 592 q 1181 583 1189 592 q 1174 547 1174 574 m 853 782 l 853 364 l 1071 364 q 1053 446 1053 383 l 1053 565 q 1163 674 1053 674 l 1581 674 q 1690 565 1690 674 l 1690 389 q 1581 281 1690 281 l 1217 281 q 1184 274 1192 281 q 1176 242 1176 267 l 1176 126 q 1183 91 1176 100 q 1215 82 1190 82 l 1524 82 q 1556 90 1549 82 q 1564 125 1564 99 l 1564 192 l 1685 192 l 1685 108 q 1660 30 1685 60 q 1588 0 1636 0 l 1165 0 q 1056 108 1056 0 l 1056 218 q 1074 281 1056 263 l 853 281 l 853 0 l 732 0 l 732 281 l 614 281 l 272 0 l 106 0 l 506 325 l 310 511 q 104 588 228 588 l 76 588 l 76 674 l 131 674 q 281 656 222 674 q 401 579 339 639 l 625 364 l 732 364 l 732 782 l -28 782 l -28 864 l 1857 864 l 1857 782 l 853 782 z "},"ॡ":{"ha":1586,"x_min":-28,"x_max":1614,"o":"m 1392 172 l 1036 172 q 999 162 1010 172 q 989 126 989 151 l 989 6 q 999 -30 989 -19 q 1036 -40 1010 -40 l 1432 -40 l 1432 -122 l 1036 -122 q 999 -133 1010 -122 q 989 -168 989 -143 l 989 -289 q 999 -324 989 -314 q 1036 -335 1010 -335 l 1432 -335 l 1432 -417 l 969 -417 q 890 -392 914 -417 q 865 -312 865 -368 l 865 -172 q 907 -82 865 -112 q 865 10 865 -49 l 865 150 q 890 230 865 206 q 969 254 914 254 l 1268 254 l 1268 592 l 883 592 q 848 583 856 592 q 840 549 840 575 l 840 324 l 718 324 l 718 549 q 709 583 718 575 q 672 592 700 592 l 333 592 q 298 583 306 592 q 290 549 290 575 l 290 125 q 298 90 290 97 q 333 82 306 82 l 661 82 l 661 0 l 276 0 q 167 110 167 0 l 167 564 q 276 674 167 674 l 697 674 q 776 628 767 674 l 782 628 q 846 674 796 674 l 1268 674 l 1268 782 l -28 782 l -28 864 l 1614 864 l 1614 782 l 1392 782 l 1392 172 z "},"।":{"ha":596,"x_min":278,"x_max":401,"o":"m 278 0 l 278 864 l 401 864 l 401 0 l 278 0 z "},"॥":{"ha":1108,"x_min":278,"x_max":914,"o":"m 278 0 l 278 864 l 401 864 l 401 0 l 278 0 m 790 0 l 790 864 l 914 864 l 914 0 l 790 0 z "},"०":{"ha":1031,"x_min":167,"x_max":864,"o":"m 744 126 l 744 738 q 737 773 744 764 q 703 782 729 782 l 329 782 q 296 773 303 782 q 289 738 289 764 l 289 126 q 296 91 289 100 q 329 82 303 82 l 703 82 q 737 91 729 82 q 744 126 744 100 m 275 864 l 756 864 q 864 756 864 864 l 864 108 q 756 0 864 0 l 275 0 q 167 108 167 0 l 167 756 q 275 864 167 864 z "},"१":{"ha":721,"x_min":149,"x_max":526,"o":"m 526 864 l 526 0 l 404 0 l 404 782 l 149 782 l 149 864 l 526 864 z "},"२":{"ha":1072,"x_min":183,"x_max":893,"o":"m 893 82 l 893 0 l 183 0 l 183 81 l 656 497 q 740 590 715 549 q 764 692 764 632 l 764 738 q 757 773 764 764 q 725 782 750 782 l 354 782 q 321 773 328 782 q 314 738 314 764 l 314 560 l 192 560 l 192 756 q 300 864 192 864 l 779 864 q 888 756 888 864 l 888 694 q 856 547 888 600 q 751 429 824 493 l 358 82 l 893 82 z "},"३":{"ha":1018,"x_min":146,"x_max":858,"o":"m 696 88 q 730 97 722 88 q 738 132 738 106 l 738 340 q 686 390 738 390 l 517 390 l 517 474 l 689 474 q 738 524 738 474 l 738 731 q 730 767 738 757 q 696 776 722 776 l 308 776 q 275 767 282 776 q 268 731 268 757 l 268 607 l 146 607 l 146 756 q 254 864 146 864 l 750 864 q 858 756 858 864 l 858 529 q 786 435 858 447 l 786 429 q 858 338 858 422 l 858 110 q 750 0 858 0 l 254 0 q 146 108 146 0 l 146 260 l 269 260 l 269 132 q 276 97 269 106 q 308 88 283 88 l 696 88 z "},"४":{"ha":1007,"x_min":111,"x_max":903,"o":"m 903 254 l 903 172 l 735 172 l 735 0 l 618 0 l 618 172 l 111 172 l 111 256 l 417 864 l 538 864 l 242 254 l 618 254 l 618 453 l 735 453 l 735 254 l 903 254 z "},"५":{"ha":1017,"x_min":164,"x_max":865,"o":"m 286 543 l 757 543 q 865 435 865 543 l 865 110 q 757 0 865 0 l 272 0 q 164 108 164 0 l 164 290 l 288 290 l 288 126 q 294 91 288 100 q 326 82 301 82 l 703 82 q 736 91 729 82 q 743 126 743 100 l 743 417 q 736 452 743 443 q 703 461 729 461 l 164 461 l 164 864 l 850 864 l 850 782 l 286 782 l 286 543 z "},"६":{"ha":1044,"x_min":167,"x_max":885,"o":"m 763 126 l 763 367 q 755 403 763 393 q 721 413 747 413 l 289 413 l 289 126 q 296 91 289 100 q 329 82 303 82 l 721 82 q 755 91 747 82 q 763 126 763 100 m 289 493 l 776 493 q 885 386 885 493 l 885 108 q 776 0 885 0 l 275 0 q 167 108 167 0 l 167 756 q 275 864 167 864 l 775 864 q 883 756 883 864 l 883 594 l 761 594 l 761 738 q 754 773 761 764 q 721 782 747 782 l 329 782 q 296 773 303 782 q 289 738 289 764 l 289 493 z "},"७":{"ha":821,"x_min":106,"x_max":710,"o":"m 710 864 l 710 796 l 386 0 l 265 0 l 583 782 l 106 782 l 106 864 l 710 864 z "},"८":{"ha":985,"x_min":140,"x_max":843,"o":"m 722 521 l 722 738 q 715 773 722 764 q 681 782 707 782 l 301 782 q 267 773 275 782 q 260 738 260 764 l 260 521 q 270 485 260 496 q 307 475 281 475 l 679 475 q 713 485 704 475 q 722 521 722 496 m 722 126 l 722 347 q 713 383 722 372 q 679 393 704 393 l 303 393 q 269 383 278 393 q 260 347 260 372 l 260 126 q 267 91 260 100 q 301 82 275 82 l 681 82 q 714 91 706 82 q 722 126 722 100 m 843 756 l 843 536 q 769 433 843 433 l 769 428 q 826 406 810 428 q 843 335 843 383 l 843 110 q 733 0 843 0 l 249 0 q 140 110 140 0 l 140 335 q 157 406 140 383 q 214 428 174 428 l 214 433 q 140 536 140 433 l 140 756 q 249 864 140 864 l 733 864 q 843 756 843 864 z "},"९":{"ha":1044,"x_min":160,"x_max":878,"o":"m 322 439 l 756 439 l 756 738 q 748 773 756 764 q 714 782 740 782 l 322 782 q 289 773 296 782 q 282 738 282 764 l 282 483 q 289 448 282 457 q 322 439 296 439 m 268 864 l 769 864 q 878 756 878 864 l 878 108 q 769 0 878 0 l 269 0 q 161 108 161 0 l 161 257 l 283 257 l 283 126 q 290 91 283 100 q 324 82 297 82 l 714 82 q 748 91 740 82 q 756 126 756 100 l 756 357 l 268 357 q 160 465 160 357 l 160 756 q 268 864 160 864 z "},"॰":{"ha":919,"x_min":139,"x_max":781,"o":"m 672 303 l 672 478 q 664 513 672 506 q 629 521 656 521 l 292 521 q 256 513 264 521 q 247 478 247 504 l 247 303 q 256 268 247 276 q 292 260 264 260 l 629 260 q 664 267 656 260 q 672 303 672 275 m 249 600 l 672 600 q 781 490 781 600 l 781 290 q 672 181 781 181 l 249 181 q 139 290 139 181 l 139 490 q 249 600 139 600 z "},"ॲ":{"ha":1478,"x_min":142,"x_max":1553,"o":"m 1506 864 l 1506 782 l 1283 782 l 1283 0 l 1160 0 l 1160 407 l 854 407 l 854 218 q 744 108 854 108 l 251 108 q 142 218 142 108 l 142 351 l 265 351 l 265 233 q 273 198 265 206 q 308 190 281 190 l 686 190 q 722 199 714 190 q 731 233 731 207 l 731 394 q 721 432 731 422 q 683 442 711 442 l 456 442 l 456 524 l 683 524 q 721 534 711 524 q 731 571 731 544 l 731 739 q 722 774 731 765 q 686 782 714 782 l 308 782 q 273 774 281 782 q 265 739 265 767 l 265 621 l 142 621 l 142 754 q 251 864 142 864 l 744 864 q 854 754 854 864 l 854 563 q 796 494 854 499 l 796 489 l 1160 489 l 1160 864 l 1506 864 m 1438 1183 l 1553 1183 l 1553 1060 q 1444 951 1553 951 l 999 951 q 889 1060 889 951 l 889 1183 l 1004 1183 l 1004 1076 q 1012 1042 1004 1050 q 1047 1033 1019 1033 l 1394 1033 q 1430 1042 1422 1033 q 1438 1076 1438 1050 l 1438 1183 z "},"ॽ":{"ha":982,"x_min":201,"x_max":788,"o":"m 311 946 l 678 946 q 788 839 788 946 l 788 451 q 678 343 788 343 l 521 343 l 521 0 l 399 0 l 399 425 l 628 425 q 660 434 653 425 q 667 469 667 443 l 667 818 q 660 856 667 846 q 628 865 653 865 l 365 865 q 331 856 339 865 q 324 818 324 846 l 324 654 l 201 654 l 201 839 q 311 946 201 946 z "},"​":{"ha":0,"x_min":0,"x_max":0,"o":""},"‌":{"ha":0,"x_min":-33,"x_max":38,"o":"m -33 1103 l 38 1103 l 38 -481 l -33 -481 l -33 1103 z "},"‍":{"ha":0,"x_min":-207,"x_max":185,"o":"m 25 -481 l -46 -481 l -46 839 l -149 738 l -207 792 l -62 924 l -207 1057 l -150 1110 l -10 972 l 129 1110 l 185 1057 l 40 924 l 185 792 l 128 738 l 25 840 l 25 -481 z "},"–":{"ha":801,"x_min":83,"x_max":718,"o":"m 83 364 l 83 446 l 718 446 l 718 364 l 83 364 z "},"—":{"ha":1242,"x_min":83,"x_max":1158,"o":"m 83 364 l 83 446 l 1158 446 l 1158 364 l 83 364 z "},"‘":{"ha":290,"x_min":69,"x_max":207,"o":"m 207 864 l 207 513 l 69 513 l 69 596 l 163 864 l 207 864 z "},"’":{"ha":290,"x_min":83,"x_max":221,"o":"m 83 513 l 83 864 l 221 864 l 221 781 l 129 513 l 83 513 z "},"‚":{"ha":290,"x_min":83,"x_max":221,"o":"m 83 -187 l 83 164 l 221 164 l 221 81 l 129 -187 l 83 -187 z "},"“":{"ha":497,"x_min":69,"x_max":414,"o":"m 207 864 l 207 513 l 69 513 l 69 596 l 163 864 l 207 864 m 414 864 l 414 513 l 276 513 l 276 596 l 369 864 l 414 864 z "},"”":{"ha":497,"x_min":83,"x_max":428,"o":"m 290 513 l 290 864 l 428 864 l 428 781 l 336 513 l 290 513 m 83 513 l 83 864 l 221 864 l 221 781 l 129 513 l 83 513 z "},"„":{"ha":497,"x_min":83,"x_max":428,"o":"m 290 -187 l 290 164 l 428 164 l 428 81 l 336 -187 l 290 -187 m 83 -187 l 83 164 l 221 164 l 221 81 l 129 -187 l 83 -187 z "},"†":{"ha":828,"x_min":125,"x_max":703,"o":"m 703 639 l 703 557 l 475 557 l 475 -157 l 354 -157 l 354 557 l 125 557 l 125 639 l 354 639 l 354 864 l 475 864 l 475 639 l 703 639 z "},"‡":{"ha":828,"x_min":125,"x_max":703,"o":"m 703 551 l 475 551 l 475 99 l 703 99 l 703 17 l 475 17 l 475 -215 l 354 -215 l 354 17 l 125 17 l 125 99 l 354 99 l 354 551 l 125 551 l 125 633 l 354 633 l 354 864 l 475 864 l 475 633 l 703 633 l 703 551 z "},"•":{"ha":597,"x_min":111,"x_max":486,"o":"m 166 571 q 193 597 166 571 q 299 624 221 624 q 431 571 376 624 q 486 444 486 518 q 431 318 486 371 q 299 265 376 265 q 166 318 221 265 q 111 444 111 371 q 166 571 111 518 z "},"…":{"ha":976,"x_min":83,"x_max":893,"o":"m 83 0 l 83 154 l 233 154 l 233 0 l 83 0 m 414 0 l 414 154 l 564 154 l 564 0 l 414 0 m 743 0 l 743 154 l 893 154 l 893 0 l 743 0 z "},"‰":{"ha":2121,"x_min":83,"x_max":2038,"o":"m 1410 364 l 1410 96 q 1319 0 1410 0 l 1011 0 q 921 96 921 0 l 921 364 q 1011 460 921 460 l 1319 460 q 1410 364 1410 460 m 1313 113 l 1313 347 q 1306 380 1313 372 q 1275 388 1300 388 l 1057 388 q 1026 380 1032 388 q 1019 347 1019 372 l 1019 113 q 1026 80 1019 88 q 1057 72 1032 72 l 1275 72 q 1306 80 1300 72 q 1313 113 1313 88 m 1011 864 l 1125 864 l 476 0 l 364 0 l 1011 864 m 572 767 l 572 499 q 482 403 572 403 l 174 403 q 83 499 83 403 l 83 767 q 174 863 83 863 l 482 863 q 572 767 572 863 m 475 515 l 475 750 q 469 783 475 775 q 438 790 463 790 l 219 790 q 188 783 194 790 q 182 750 182 775 l 182 515 q 188 483 182 490 q 219 475 194 475 l 438 475 q 469 483 463 475 q 475 515 475 490 m 2038 364 l 2038 96 q 1947 0 2038 0 l 1639 0 q 1549 96 1549 0 l 1549 364 q 1639 460 1549 460 l 1947 460 q 2038 364 2038 460 m 1940 113 l 1940 347 q 1934 380 1940 372 q 1903 388 1928 388 l 1685 388 q 1653 380 1660 388 q 1647 347 1647 372 l 1647 113 q 1653 80 1647 88 q 1685 72 1660 72 l 1903 72 q 1934 80 1928 72 q 1940 113 1940 88 z "},"‹":{"ha":440,"x_min":82,"x_max":385,"o":"m 253 146 l 82 361 l 253 576 l 385 576 l 210 360 l 385 146 l 253 146 z "},"›":{"ha":435,"x_min":57,"x_max":360,"o":"m 360 361 l 188 146 l 57 146 l 232 360 l 57 576 l 188 576 l 360 361 z "},"⁄":{"ha":758,"x_min":32,"x_max":724,"o":"m 603 864 l 724 864 l 153 0 l 32 0 l 603 864 z "},"€":{"ha":965,"x_min":56,"x_max":882,"o":"m 882 574 l 760 574 l 760 739 q 752 774 760 767 q 717 782 744 782 l 361 782 q 326 774 333 782 q 318 739 318 767 l 318 563 l 576 563 l 576 481 l 318 481 l 318 385 l 576 385 l 576 303 l 318 303 l 318 125 q 326 90 318 97 q 361 82 333 82 l 717 82 q 752 90 744 82 q 760 125 760 97 l 760 290 l 882 290 l 882 110 q 772 0 882 0 l 306 0 q 196 110 196 0 l 196 303 l 56 303 l 56 385 l 196 385 l 196 481 l 56 481 l 56 563 l 196 563 l 196 754 q 306 864 196 864 l 772 864 q 882 754 882 864 l 882 574 z "},"™":{"ha":1328,"x_min":28,"x_max":1244,"o":"m 28 781 l 28 864 l 528 864 l 528 781 l 332 781 l 332 413 l 224 413 l 224 781 l 28 781 m 1244 864 l 1244 413 l 1144 413 l 1144 744 l 981 481 l 885 481 l 726 746 l 726 413 l 626 413 l 626 864 l 758 864 l 932 575 l 1111 864 l 1244 864 z "},"Ω":{"ha":1049,"x_min":83,"x_max":965,"o":"m 965 82 l 965 0 l 610 0 l 610 82 l 713 82 q 747 90 739 82 q 756 125 756 97 l 756 739 q 747 774 756 767 q 713 782 739 782 l 339 782 q 303 774 311 782 q 296 739 296 767 l 296 125 q 303 90 296 97 q 339 82 311 82 l 440 82 l 440 0 l 83 0 l 83 82 l 206 82 q 175 154 175 99 l 175 754 q 285 864 175 864 l 765 864 q 875 754 875 864 l 875 154 q 844 82 875 99 l 965 82 z "},"∏":{"ha":1049,"x_min":56,"x_max":910,"o":"m 239 864 l 910 864 l 910 0 l 792 0 l 792 782 l 358 782 l 358 110 q 249 0 358 0 l 56 0 l 56 89 l 196 89 q 231 97 222 89 q 239 132 239 106 l 239 864 z "},"−":{"ha":889,"x_min":83,"x_max":806,"o":"m 83 385 l 83 479 l 806 479 l 806 385 l 83 385 z "},"∕":{"ha":556,"x_min":-29,"x_max":663,"o":"m 542 971 l 663 971 l 92 -189 l -29 -189 l 542 971 z "},"∙":{"ha":226,"x_min":46,"x_max":183,"o":"m 46 511 l 183 511 l 183 351 l 46 351 l 46 511 z "},"∞":{"ha":1321,"x_min":83,"x_max":1238,"o":"m 485 288 l 190 288 q 83 393 83 288 l 83 572 q 190 676 83 676 l 494 676 q 578 662 551 676 q 640 600 606 647 l 681 546 l 708 588 q 771 660 746 644 q 856 676 796 676 l 1128 676 q 1238 572 1238 676 l 1238 393 q 1128 288 1238 288 l 868 288 q 778 301 806 288 q 711 365 750 315 l 681 404 l 672 392 q 595 306 629 325 q 485 288 561 288 m 856 365 l 1089 365 q 1126 375 1118 365 q 1133 414 1133 385 l 1133 551 q 1126 590 1133 579 q 1089 600 1118 600 l 840 600 q 786 561 814 600 l 729 476 l 796 394 q 856 365 819 365 m 496 599 l 233 599 q 196 588 204 599 q 188 550 188 578 l 188 414 q 196 375 188 385 q 233 365 204 365 l 510 365 q 583 408 554 365 l 629 475 l 571 553 q 538 589 553 579 q 496 599 522 599 z "},"∫":{"ha":510,"x_min":28,"x_max":482,"o":"m 315 879 l 315 -56 q 206 -165 315 -165 l 28 -165 l 28 -76 l 151 -76 q 185 -69 178 -76 q 194 -33 192 -61 l 194 901 q 304 1011 194 1011 l 482 1011 l 482 922 l 358 922 q 323 914 331 922 q 315 879 315 906 z "},"≈":{"ha":1079,"x_min":111,"x_max":968,"o":"m 524 211 q 422 260 482 238 q 311 282 363 282 q 242 269 260 282 q 225 222 225 256 l 225 140 l 111 140 l 111 257 q 218 363 111 363 l 360 363 q 469 340 415 363 q 561 291 524 318 q 656 242 599 264 q 766 219 714 219 q 836 234 818 219 q 854 282 854 249 l 854 363 l 968 363 l 968 246 q 860 139 968 139 l 724 139 q 524 211 633 139 m 524 517 q 422 565 482 543 q 311 588 363 588 q 242 574 260 588 q 225 528 225 561 l 225 446 l 111 446 l 111 563 q 218 668 111 668 l 360 668 q 469 646 415 668 q 561 597 524 624 q 656 547 599 569 q 766 525 714 525 q 836 540 818 525 q 854 588 854 554 l 854 668 l 968 668 l 968 551 q 860 444 968 444 l 724 444 q 524 517 633 444 z "},"≠":{"ha":943,"x_min":111,"x_max":832,"o":"m 832 504 l 578 504 l 467 369 l 832 369 l 832 278 l 392 278 l 297 164 l 199 164 l 293 278 l 111 278 l 111 369 l 368 369 l 479 504 l 111 504 l 111 596 l 554 596 l 640 700 l 739 700 l 653 596 l 832 596 l 832 504 z "},"≤":{"ha":1003,"x_min":83,"x_max":906,"o":"m 906 236 l 906 149 l 83 149 l 83 236 l 906 236 m 906 579 l 190 474 l 906 368 l 906 264 l 85 415 l 85 533 l 906 683 l 906 579 z "},"≥":{"ha":1003,"x_min":97,"x_max":919,"o":"m 97 149 l 97 236 l 919 236 l 919 149 l 97 149 m 813 474 l 97 579 l 97 683 l 918 533 l 918 415 l 97 264 l 97 368 l 813 474 z "},"◊":{"ha":996,"x_min":76,"x_max":919,"o":"m 919 435 l 543 0 l 438 0 l 76 435 l 438 864 l 543 864 l 919 435 m 782 435 l 492 774 l 215 435 l 492 92 l 782 435 z "},"◌":{"ha":586,"x_min":99,"x_max":479,"o":"m 190 210 l 190 108 q 124 136 150 108 q 99 210 99 164 l 190 210 m 99 263 l 99 364 l 190 364 l 190 263 l 99 263 m 99 418 l 99 519 l 190 519 l 190 418 l 99 418 m 190 572 l 99 572 q 124 647 99 619 q 190 674 149 674 l 190 572 m 388 108 l 388 210 l 479 210 q 454 138 479 168 q 388 108 429 108 m 388 263 l 388 364 l 479 364 l 479 263 l 388 263 m 388 418 l 388 519 l 479 519 l 479 418 l 388 418 m 388 572 l 388 674 q 479 572 479 674 l 388 572 m 243 572 l 243 674 l 335 674 l 335 572 l 243 572 m 243 108 l 243 210 l 335 210 l 335 108 l 243 108 z "},"":{"ha":833,"x_min":350,"x_max":483,"o":"m 350 -304 l 350 -69 l 483 -69 l 483 -131 l 394 -304 l 350 -304 z "},"ﬁ":{"ha":847,"x_min":97,"x_max":724,"o":"m 722 674 l 722 0 l 603 0 l 603 592 l 317 592 l 317 0 l 197 0 l 197 592 l 97 592 l 97 674 l 197 674 l 197 819 q 307 929 197 929 l 531 929 l 531 842 l 360 842 q 325 833 333 842 q 317 799 317 825 l 317 674 l 722 674 m 603 929 l 724 929 l 724 832 l 603 832 l 603 929 z "},"ﬂ":{"ha":847,"x_min":97,"x_max":722,"o":"m 603 929 l 722 929 l 722 0 l 603 0 l 603 592 l 317 592 l 317 0 l 197 0 l 197 592 l 97 592 l 97 674 l 197 674 l 197 819 q 307 929 197 929 l 531 929 l 531 842 l 360 842 q 325 833 333 842 q 317 799 317 825 l 317 674 l 603 674 l 603 929 z "}}}
